<svg width="36" height="36" viewBox="0 0 36 36" fill="none" xmlns="http://www.w3.org/2000/svg">
<path fill-rule="evenodd" clip-rule="evenodd" d="M18.0001 33.2743L14.0581 29.6161H7.5001C5.34619 29.6161 3.6001 27.87 3.6001 25.7161V9.0001C3.6001 6.84619 5.34619 5.1001 7.5001 5.1001H28.5001C30.654 5.1001 32.4001 6.84619 32.4001 9.0001V25.7161C32.4001 27.87 30.654 29.6161 28.5001 29.6161H21.9421L18.0001 33.2743ZM18.0001 30.0001L20.5685 27.6166C20.8459 27.3592 21.2104 27.2161 21.5889 27.2161H28.5001C29.3285 27.2161 30.0001 26.5445 30.0001 25.7161V9.0001C30.0001 8.17167 29.3285 7.5001 28.5001 7.5001H7.5001C6.67167 7.5001 6.0001 8.17167 6.0001 9.0001V25.7161C6.0001 26.5445 6.67167 27.2161 7.5001 27.2161H14.4113C14.7898 27.2161 15.1543 27.3592 15.4317 27.6166L18.0001 30.0001ZM18.0001 13.5464L16.6056 16.8001H19.3945L18.0001 13.5464ZM14.8056 21.0001L15.5771 19.2001H20.4231L21.1945 21.0001H23.8056L19.103 10.0274H16.8971L12.1945 21.0001H14.8056ZM23.7 22.0501H12.3V24.4501H23.7V22.0501Z" fill="#1C1D20"/>
</svg>
