<svg width="64" height="64" viewBox="0 0 64 64" fill="none" xmlns="http://www.w3.org/2000/svg">
<path d="M18.2243 37.9314L43.7852 12.3706L54.0095 22.5949L28.4487 48.1558L13.798 53.0393C13.5154 53.1335 13.2466 52.8647 13.3408 52.5821L18.2243 37.9314Z" fill="#a5f3fc"/>
<path d="M18.2246 37.9316L43.7855 12.3708L54.0098 22.5951L28.449 48.156L18.2246 37.9316Z" fill="#a5f3fc"/>
<rect x="18.2246" y="37.9312" width="26.5089" height="14.4594" transform="rotate(-45 18.2246 37.9312)" fill="#0ea5e9"/>
<rect x="38.6733" y="17.4824" width="2.4099" height="14.4594" transform="rotate(-45 38.6733 17.4824)" fill="#0ea5e9"/>
<path d="M42.0811 14.0747L44.8501 11.3056C45.2031 10.9527 45.7753 10.9527 46.1282 11.3056L55.0745 20.2519C55.4274 20.6048 55.4274 21.177 55.0745 21.53L52.3054 24.2991L42.0811 14.0747Z" fill="#0ea5e9"/>
<mask id="mask0_740_4287" style="mask-type:alpha" maskUnits="userSpaceOnUse" x="13" y="12" width="42" height="42">
<path d="M18.2243 37.9314L43.7852 12.3706L54.0095 22.5949L28.4487 48.1558L13.798 53.0393C13.5154 53.1335 13.2466 52.8647 13.3408 52.5821L18.2243 37.9314Z" fill="#a5f3fc"/>
</mask>
<g mask="url(#mask0_740_4287)">
<rect x="9.70361" y="49.8594" width="7.2297" height="9.6396" transform="rotate(-45 9.70361 49.8594)" fill="#0ea5e9"/>
</g>
<path d="M18.4782 8.33674C18.7017 7.88775 19.3422 7.88775 19.5657 8.33674L21.9592 13.1451C22.0181 13.2635 22.114 13.3593 22.2323 13.4182L27.0407 15.8117C27.4897 16.0352 27.4897 16.6758 27.0407 16.8993L22.2323 19.2927C22.114 19.3516 22.0181 19.4475 21.9592 19.5658L19.5657 24.3742C19.3422 24.8232 18.7017 24.8232 18.4782 24.3742L16.0847 19.5658C16.0258 19.4475 15.9299 19.3516 15.8116 19.2927L11.0032 16.8993C10.5542 16.6758 10.5542 16.0352 11.0032 15.8117L15.8116 13.4182C15.9299 13.3593 16.0258 13.2635 16.0847 13.1451L18.4782 8.33674Z" fill="#0ea5e9"/>
<rect x="24" y="50.6665" width="29.3333" height="2.66666" rx="1.33333" fill="#0ea5e9"/>
</svg>
