<svg width="64" height="64" viewBox="0 0 64 64" fill="none" xmlns="http://www.w3.org/2000/svg">
<path d="M45.3334 22.3333C45.3334 21.781 44.8857 21.3333 44.3334 21.3333H6.33337C5.78109 21.3333 5.33337 21.781 5.33337 22.3333V56.3651L13.3334 50.8888H43.3334C44.4379 50.8888 45.3334 49.9934 45.3334 48.8888V22.3333Z" fill="#60a5fa"/>
<path d="M18.6667 9C18.6667 8.44771 19.1145 8 19.6667 8H57.6668C58.219 8 58.6667 8.44772 58.6667 9V43.0319L50.6667 37.5556H20.6667C19.5622 37.5556 18.6667 36.6601 18.6667 35.5556V9Z" fill="#0ea5e9"/>
<ellipse cx="49.3334" cy="22.6667" rx="2.66667" ry="2.66667" fill="white"/>
<ellipse cx="38.6667" cy="22.6667" rx="2.66667" ry="2.66667" fill="white"/>
<ellipse cx="28" cy="22.6667" rx="2.66667" ry="2.66667" fill="white"/>
</svg>
