<svg width="140" height="70" viewBox="0 0 140 70" fill="none" xmlns="http://www.w3.org/2000/svg">
<path d="M25.7917 32.0604L25.9905 31.8969C27.4819 30.7214 28.2111 29.2847 28.2111 27.65C28.2111 26.6059 27.946 25.6259 27.3825 24.7437C26.8191 23.8294 26.0899 23.1435 25.1619 22.6859C24.2331 22.2284 23.0723 22 21.6131 22H12V42.6761H21.7797C23.3043 42.6761 24.5645 42.4149 25.4934 41.9245C26.4404 41.4422 27.2325 40.707 27.7802 39.8018C28.3251 38.9283 28.6121 37.9209 28.6088 36.8939C28.6088 34.869 27.7471 33.3016 26.0237 32.191L25.7917 32.0604ZM15.48 24.8743H21.6463C22.6074 24.8743 23.3697 25.1355 23.9671 25.6908C24.5968 26.2133 24.8951 26.8992 24.8951 27.7486C24.8951 28.5651 24.5968 29.2518 24.0003 29.7735C23.4037 30.3288 22.6414 30.5908 21.6803 30.5908H15.48V24.8743ZM24.2986 38.6912C23.6688 39.2465 22.8071 39.5078 21.7134 39.5078H15.48V33.4971H21.7457C22.508 33.4971 23.1046 33.5957 23.5686 33.8241C24.6963 34.3465 25.2597 35.2288 25.2597 36.4692C25.2597 37.4171 24.9283 38.1359 24.2986 38.6912ZM33.8471 22H30.5328V42.6433H33.8471V22ZM42.5662 39.7033C41.4062 39.7033 40.5445 39.2465 39.9147 38.3314C39.6496 37.9067 39.517 37.2537 39.517 36.3722V27.8471H36.2011V37.3514C36.2011 38.43 36.3336 39.2137 36.5988 39.8018C37.0296 40.6833 37.7256 41.4349 38.6536 41.9902C39.5493 42.5455 40.5445 42.8396 41.5719 42.8396C42.997 42.8396 44.2565 42.382 45.2516 41.4678L45.583 41.1737V42.6433H48.8982V27.8471H45.5839V36.1759C45.5839 37.0902 45.4844 37.7761 45.2524 38.168C44.7213 39.2137 43.8264 39.7033 42.5662 39.7033ZM60.9324 38.3643C60.0044 39.3114 58.977 39.7361 57.7175 39.7361C56.6561 39.7361 55.7944 39.442 55.1307 38.8539C54.4347 38.2665 54.1033 37.5806 54.1033 36.6655V36.3722H63.8498V34.0524C63.8498 32.2239 63.2201 30.6886 61.9938 29.4802C60.7675 28.271 59.1758 27.6508 57.319 27.6508C55.5293 27.6508 53.9715 28.239 52.6781 29.4145C51.3856 30.5908 50.755 32.0276 50.755 33.6935V36.2737C50.755 37.7441 51.1196 38.9845 51.8487 39.9973C53.1744 41.8596 55.1307 42.8067 57.6836 42.8067C60.0707 42.8067 61.9938 41.9902 63.4853 40.3571L63.5515 40.2914L60.9995 38.2665L60.9332 38.3651L60.9324 38.3643ZM54.1364 33.3994C54.269 32.6157 54.6004 31.9947 55.0976 31.5051C55.6941 30.9498 56.4233 30.6886 57.319 30.6886C58.2138 30.6886 58.9761 30.9498 59.5727 31.538C60.137 32.0276 60.4353 32.6486 60.5015 33.3994L60.5347 33.5957H54.1033L54.1364 33.3994ZM62.2258 44.6682H62.1264V44.7667C62.1264 46.8565 62.1264 47.8365 62.2258 48H62.259C64.6453 48 66.5684 47.0529 68.0275 45.1906C68.9224 44.0151 69.3532 42.5455 69.3532 40.749V22H65.8392V40.3243C65.8392 41.4678 65.7398 42.2514 65.5409 42.6761C64.9112 44.0151 63.8507 44.6682 62.2258 44.6682ZM77.9066 27.6845C76.1169 27.6845 74.5583 28.2718 73.2658 29.4482C71.9732 30.6237 71.3426 32.0604 71.3426 33.7271V36.3074C71.3426 37.7778 71.7072 39.0182 72.4364 40.031C73.7621 41.8925 75.7515 42.8404 78.2712 42.8404C80.6583 42.8404 82.5815 42.0231 84.0729 40.39L84.1392 40.3243L81.5872 38.3002L81.5209 38.3659C80.592 39.3123 79.5646 39.7378 78.3043 39.7378C77.2438 39.7378 76.382 39.4429 75.7192 38.8547C75.0232 38.2674 74.6909 37.5814 74.6909 36.6663V36.3731H84.4375V34.0533C84.4375 32.2247 83.8077 30.6894 82.5815 29.481C81.3552 28.2718 79.7966 27.6845 77.9066 27.6845ZM74.6578 33.6286L74.6909 33.4002C74.8235 32.6165 75.1549 31.9955 75.6521 31.5059C76.2486 30.9506 76.9778 30.6894 77.9066 30.6894C78.8015 30.6894 79.5638 30.9506 80.1604 31.5388C80.7246 32.0284 81.0229 32.6494 81.0892 33.4002L81.1223 33.5965L74.6578 33.6286ZM96.4717 28.9257C95.4443 28.1092 93.8866 27.6845 91.8308 27.6845C89.1454 27.6845 87.3217 28.4025 86.3274 29.7743L86.2612 29.84L88.8795 31.8L88.9457 31.7014C89.2109 31.2447 89.6094 30.9835 90.1729 30.8529C90.4712 30.7871 91.0014 30.7214 91.7969 30.7214C93.0571 30.7214 93.8857 30.9186 94.3505 31.2776C94.6157 31.5059 94.7814 31.9955 94.7814 32.7151V33.7271H90.7363C89.6426 33.7271 88.7809 33.8578 88.1511 34.1518C87.3226 34.5108 86.6589 35.099 86.1286 35.8178C85.5983 36.5686 85.3663 37.3522 85.3663 38.2345C85.3663 39.5735 85.8966 40.6841 86.9903 41.5663C88.0509 42.4157 89.4429 42.8396 91.1348 42.8396C92.56 42.8396 93.6869 42.4806 94.416 41.7947L94.7474 41.4686V42.6441H98.0965V32.3874C98.1297 30.9827 97.5663 29.8063 96.4725 28.9249L96.4717 28.9257ZM94.7814 37.5157C94.7814 38.5935 94.6157 38.9204 94.4831 39.0839C94.1185 39.6392 93.1905 39.9004 91.632 39.9004C89.5763 39.9004 88.5489 39.2794 88.5489 38.071C88.5489 37.3851 88.8471 36.8627 89.4437 36.5686C89.7089 36.438 90.1729 36.3731 90.8026 36.3731H94.7814V37.5157ZM107.976 27.6845C106.517 27.6845 105.258 28.1092 104.263 28.9906L103.931 29.2847V27.88H100.583V42.6761H103.931V33.53C103.931 32.8112 104.229 32.1582 104.859 31.6029C105.489 31.0147 106.185 30.7535 106.981 30.7535C107.81 30.7535 108.473 31.0147 109.07 31.6029C109.667 32.1582 109.965 32.8112 109.965 33.5629V42.6761H113.279V32.7463C113.279 31.3416 112.749 30.1333 111.722 29.1533C110.727 28.1733 109.468 27.6829 107.976 27.6829L107.976 27.6845ZM125.546 34.2167C124.817 33.8249 123.326 33.6286 121.038 33.5637C119.579 33.5308 118.883 33.0741 118.883 32.2247C118.883 31.2447 119.645 30.7871 121.236 30.7871C122.927 30.7871 124.386 31.2447 125.546 32.1261L125.613 32.1918L127.668 29.6437L127.601 29.578C125.778 28.3047 123.69 27.6845 121.37 27.6845C119.679 27.6845 118.32 28.0435 117.358 28.7623C116.131 29.6437 115.502 30.8529 115.502 32.2567C115.502 33.8906 116.264 35.1318 117.755 35.9484C118.319 36.2745 119.015 36.4708 119.877 36.5686C120.374 36.6343 121.137 36.6672 122.098 36.7C123.06 36.732 123.723 36.8298 124.121 37.059C124.486 37.2545 124.685 37.6143 124.685 38.1039C124.685 39.2145 123.624 39.7369 121.502 39.7369C119.712 39.7369 118.187 39.1816 116.927 38.0382L116.86 37.9725L114.474 40.1945L114.54 40.2602C116.297 41.9582 118.65 42.8396 121.502 42.8396C123.458 42.8396 125.015 42.4157 126.209 41.5663C127.402 40.6841 127.999 39.5414 127.999 38.1367C128.032 36.3731 127.204 35.0661 125.546 34.2167Z" fill="#004DCE"/>
</svg>
