<svg width="141" height="70" viewBox="0 0 141 70" fill="none" xmlns="http://www.w3.org/2000/svg">
<path d="M34.0034 39.9364H41.7943L34.3015 33.3156L39.8161 27.9046L29.7489 28.3833V20.7388L22.9743 28.0243L17.4597 22.6133L17.9204 32.5046H10.116L17.6087 39.1786L12.0942 44.5896L22.1749 44.111V51.7687L28.9902 44.43L34.5048 49.8543L34.0034 39.9364ZM26.5107 41.1994H25.7519L22.7439 40.1092L22.2426 39.604L20.9148 36.7457L20.8877 36.0144L21.9987 33.0763L22.5407 32.5711L25.4403 31.3081H26.1719L29.1663 32.3983L29.6677 32.9035L31.009 35.7486V36.4266L29.898 39.3647L29.3967 39.8965L26.5107 41.1994Z" fill="#C9EBEC"/>
<path d="M29.898 39.3914L32.4317 36.9186L37.5263 46.8764H34.5048L29.898 39.3914ZM22.7439 40.1093L25.2777 42.5822L15.1157 47.581V44.603L22.7439 40.1093ZM22.0123 33.103L19.4921 35.5891L14.384 25.6313H17.4326L22.0123 33.103ZM29.1663 32.3984L26.6326 29.9123L36.7946 24.9267V27.9048L29.1663 32.3984ZM31.0226 35.7487V32.2388L41.7943 35.7354L39.6671 37.8359L31.0226 35.7487ZM26.5107 41.2128H30.0741L26.4971 51.7954L24.3563 49.6949L26.5107 41.2128ZM20.8877 36.7591V40.2689L10.116 36.7724L12.2703 34.6585L20.8877 36.7591ZM25.4403 31.3082H21.8632L25.4538 20.7256L27.5946 22.8395L25.4403 31.3082Z" fill="#00868C"/>
<path d="M128.591 41.9174C128.624 41.6439 128.638 41.3684 128.632 41.0931C128.632 39.8168 128.32 38.8596 127.71 38.2081C127.101 37.5567 126.206 37.2243 125.028 37.2243C123.849 37.2243 122.629 37.6232 121.884 38.4076C121.139 39.1919 120.705 40.3619 120.597 41.9174H128.591ZM131.166 50.5457C129.621 51.3566 127.738 51.7688 125.515 51.7688C122.878 51.7688 120.886 51.0553 119.54 49.6283C118.185 48.2058 117.521 46.0919 117.521 43.3C117.521 40.5081 118.185 38.5671 119.54 37.0914C120.895 35.6157 122.765 34.8711 125.19 34.8711C127.223 34.8711 128.794 35.4295 129.878 36.5463C130.962 37.663 131.518 39.2584 131.518 41.3191C131.529 42.2163 131.442 43.1121 131.26 43.9914H120.597C120.638 45.7994 121.098 47.1289 121.966 47.9931C122.833 48.8572 124.174 49.2827 125.99 49.2827C127.761 49.2703 129.515 48.9414 131.166 48.3121V50.5457ZM114.459 51.2902H111.289V40.4682C111.289 39.418 111.085 38.6469 110.679 38.1417C110.272 37.6365 109.622 37.3839 108.741 37.3839C107.183 37.3839 105.611 37.8625 104.026 38.8064C104.049 38.9604 104.058 39.1161 104.053 39.2717V51.2902H100.883V40.4682C100.883 39.418 100.68 38.6469 100.273 38.1417C99.8666 37.6365 99.2162 37.3839 98.3355 37.3839C96.7096 37.3839 95.1514 37.8492 93.6474 38.7665V51.2902H90.4769V35.3365H93.1326L93.4577 36.9451C95.5172 35.5625 97.5225 34.8711 99.4601 34.8711C101.398 34.8711 102.807 35.6157 103.511 37.1047C105.643 35.6157 107.761 34.8711 109.866 34.8711C111.343 34.8711 112.481 35.2833 113.28 36.0943C114.08 36.9052 114.459 38.0752 114.459 39.5908V51.2902ZM83.2144 51.2902H86.3985V35.3365H83.2144V51.2902ZM79.2038 51.2902H76.0197V40.6278C76.0197 39.511 75.7894 38.7 75.3287 38.1683C74.868 37.6365 74.1499 37.3839 73.1608 37.3839C71.4672 37.3839 69.8141 37.9157 68.1882 38.9925V51.2902H65.0041V28.0111H68.1882V36.9717C70.2206 35.5802 72.2982 34.88 74.4209 34.8711C75.9791 34.8711 77.1714 35.27 77.9844 36.081C78.7974 36.892 79.2038 38.0619 79.2038 39.5908V51.2902ZM62.3078 50.6919C60.5113 51.357 58.6049 51.6905 56.6848 51.6757C53.1756 51.6757 50.5199 50.7185 48.7043 48.8306C46.8887 46.9428 45.9944 44.1376 45.9944 40.4682C45.9944 36.7989 46.9293 34.0469 48.7991 32.0925C50.6689 30.1382 53.3517 29.1677 56.8474 29.1677C58.5962 29.1602 60.3333 29.448 61.9826 30.0186V32.6376C60.0451 32.1989 58.4598 31.9729 57.2404 31.9729C54.5305 31.9729 52.5658 32.6243 51.3193 33.9139C50.0728 35.2035 49.463 37.2509 49.463 40.0561V40.8139C49.463 43.5792 50.0728 45.6266 51.2787 46.9162C52.4845 48.2058 54.4086 48.8705 57.0371 48.8705C58.3921 48.8705 60.1399 48.6046 62.3078 48.0861V50.6919ZM84.5423 23.9827V20.1671C84.5423 19.8614 84.4745 19.6354 84.3255 19.4891C84.1764 19.3429 83.9732 19.2764 83.6887 19.2764C83.2402 19.2867 82.8036 19.4203 82.4286 19.6619V23.9827H80.7349V18.1729H82.1305L82.2931 18.7978C82.919 18.2904 83.7033 18.0088 84.5152 18.0001C85.0707 18.0001 85.4907 18.1463 85.7888 18.4388C86.0869 18.7313 86.2359 19.1435 86.2359 19.6885V23.9827H84.5423ZM77.9844 21.0712C77.9844 19.8747 77.5779 19.2764 76.765 19.2764C75.952 19.2764 75.5455 19.8747 75.5455 21.0712C75.5455 22.281 75.952 22.8793 76.765 22.8793C77.5779 22.8793 77.9844 22.281 77.9844 21.0712ZM76.765 24.1556C75.8436 24.1556 75.1255 23.8764 74.6106 23.3446C74.0957 22.8128 73.8247 22.0417 73.8247 21.0712C73.8247 20.1007 74.0822 19.3562 74.6106 18.8111C75.139 18.266 75.8436 18.0001 76.765 18.0001C77.6863 18.0001 78.4044 18.266 78.9193 18.8111C79.4342 19.3562 79.7052 20.114 79.7052 21.0712C79.7052 22.0284 79.4342 22.7995 78.9193 23.3446C78.4044 23.8897 77.6863 24.1556 76.765 24.1556ZM49.5308 21.5897C49.2307 21.5402 48.9272 21.5135 48.623 21.5099C47.9455 21.5099 47.6068 21.7758 47.6068 22.3076C47.5986 22.4074 47.6126 22.5078 47.6479 22.6017C47.6831 22.6957 47.7387 22.781 47.8109 22.8518C47.883 22.9227 47.97 22.9772 48.0658 23.0118C48.1616 23.0464 48.2638 23.0601 48.3655 23.0521C48.5718 23.0511 48.7753 23.0058 48.9617 22.9192C49.1686 22.8394 49.3608 22.7272 49.5308 22.5868V21.5897ZM49.7611 23.9827L49.6256 23.4642C49.3802 23.6794 49.1011 23.8544 48.7991 23.9827C48.5108 24.0991 48.203 24.1622 47.8913 24.1689C47.3132 24.1689 46.8525 24.0093 46.5093 23.6903C46.3372 23.5248 46.2024 23.3256 46.1137 23.1058C46.025 22.8859 45.9844 22.6502 45.9944 22.414C45.9889 22.0759 46.083 21.7435 46.2654 21.4567C46.4677 21.165 46.7494 20.9347 47.0784 20.792C47.4617 20.6246 47.8783 20.5428 48.2978 20.5527C48.7138 20.5576 49.1277 20.6111 49.5308 20.7122V20.1406C49.5308 19.7949 49.463 19.5556 49.314 19.4226C49.165 19.2897 48.894 19.2232 48.501 19.2232C47.7863 19.2358 47.0779 19.3569 46.4009 19.5822V18.4787C46.7431 18.3122 47.1083 18.1958 47.4848 18.1331C47.9167 18.0422 48.3574 17.9976 48.7991 18.0001C49.594 18.0001 50.1766 18.1596 50.547 18.4787C50.9128 18.7845 51.1025 19.2764 51.1025 19.9544V23.9827H49.7611ZM59.7605 23.9827V20.0475C59.7605 19.529 59.5167 19.2764 59.056 19.2764C58.6145 19.2797 58.1794 19.3796 57.7823 19.5689V23.9827H56.0887V20.0475C56.0887 19.529 55.8583 19.2764 55.3841 19.2764C54.9405 19.275 54.5033 19.38 54.1105 19.5822V23.9827H52.4168V18.1729H53.7988L53.9614 18.7313C54.304 18.5005 54.6722 18.3087 55.0589 18.1596C55.3871 18.055 55.73 18.0011 56.0751 18.0001C56.7797 18.0001 57.2675 18.2394 57.552 18.7313C57.8929 18.4934 58.2671 18.3053 58.663 18.1729C59.012 18.0564 59.3784 17.998 59.747 18.0001C60.289 18.0001 60.709 18.1463 61.0071 18.4388C61.3052 18.7446 61.4542 19.1567 61.4542 19.6885V23.9827H59.7605ZM65.939 21.5897C65.6344 21.5401 65.3264 21.5135 65.0177 21.5099C64.3402 21.5099 64.0015 21.7758 64.0015 22.3076C63.994 22.4074 64.0082 22.5076 64.0432 22.6016C64.0783 22.6956 64.1333 22.7812 64.2047 22.8527C64.2781 22.922 64.3654 22.9756 64.461 23.0099C64.5567 23.0443 64.6586 23.0586 64.7602 23.0521C64.9665 23.0511 65.17 23.0058 65.3564 22.9192C65.566 22.8367 65.7623 22.7247 65.939 22.5868V21.5897ZM66.1694 23.9827L66.0203 23.4642C65.7772 23.6823 65.4976 23.8577 65.1938 23.9827C64.9058 24.1003 64.5979 24.1634 64.286 24.1689C63.7795 24.1916 63.2838 24.02 62.904 23.6903C62.7319 23.5248 62.5971 23.3256 62.5084 23.1058C62.4197 22.8859 62.3791 22.6502 62.3891 22.414C62.3819 22.0738 62.4812 21.7397 62.6736 21.4567C62.8707 21.1654 63.1479 20.9349 63.4731 20.792C63.8613 20.6247 64.2822 20.5431 64.706 20.5527C65.1219 20.5593 65.5356 20.6128 65.939 20.7122V20.1406C65.939 19.7949 65.8577 19.5556 65.7087 19.4226C65.5597 19.2897 65.2887 19.2232 64.8957 19.2232C64.1812 19.2379 63.4731 19.3589 62.7956 19.5822V18.4787C63.1378 18.3122 63.503 18.1958 63.8795 18.1331C64.316 18.0421 64.7612 17.9976 65.2074 18.0001C65.9932 18.0001 66.5759 18.1596 66.9552 18.4787C67.3211 18.7845 67.4972 19.2764 67.4972 19.9544V23.9827H66.1694ZM68.3644 23.9827V22.7995L71.4265 19.3961H68.4863V18.1729H73.2963V19.3562L70.2071 22.7596H73.3505V23.9827H68.3644Z" fill="#212F3E"/>
<path d="M86.3039 29.9653L86.1006 29.7526L84.8947 29.3139H84.5966L83.4314 29.8457L83.2282 30.0451L82.781 31.2283V31.5075L83.3095 32.6509L83.5127 32.8503L84.7186 33.289H85.0167L86.1819 32.7705L86.3852 32.5711L86.8323 31.3879V31.1087L86.3039 29.9653ZM31.009 35.7486H41.7943V39.963L31.009 36.4532V35.7486ZM29.898 39.3913L37.5263 46.8763L34.4777 49.8543L29.3831 39.8965L29.898 39.4046V39.3913ZM26.47 41.1994V51.7687H22.1749L25.7519 41.1994H26.47ZM22.7439 40.1092L15.1157 47.5809L12.0806 44.6029L20.9012 40.2555L22.2291 39.604L22.7439 40.1092ZM20.9012 36.7589H10.116V32.5445L20.9012 36.041V36.7589ZM22.0123 33.1029L14.384 25.6312L17.4326 22.6532L22.5272 32.5977L22.0258 33.1029H22.0123ZM25.4403 31.3081V20.7388H29.7489L26.1719 31.3081H25.4403ZM29.1663 32.3983L36.7946 24.9266L39.8297 27.9046L31.009 32.2387L29.6812 32.9035L29.1663 32.3983Z" fill="#00B3BA"/>
</svg>
