<svg width="336" height="16" viewBox="0 0 336 16" fill="none" xmlns="http://www.w3.org/2000/svg">
<path d="M327.956 5.68004C327.956 7.0389 328.59 7.71833 329.858 7.71833H331.733C331.733 8.9866 331.634 9.98309 331.434 10.7078C331.235 11.4325 330.845 12.0214 330.266 12.4743C329.414 13.1447 329.314 13.8241 329.967 14.5126L330.999 15.6269C331.525 16.1886 332.25 16.1161 333.174 15.4095C334.442 14.4311 335.23 13.1447 335.538 11.5503C335.846 9.97404 336 8.01728 336 5.68004V2.03829C336 0.67943 335.366 0 334.098 0H329.858C328.59 0 327.956 0.67943 327.956 2.03829V5.68004Z" fill="#F1F5F9"/>
<path d="M317.911 5.68004C317.911 7.0389 318.545 7.71833 319.814 7.71833H321.689C321.689 8.9866 321.589 9.98309 321.39 10.7078C321.19 11.4325 320.801 12.0214 320.221 12.4743C319.37 13.1447 319.27 13.8241 319.922 14.5126L320.955 15.6269C321.48 16.1886 322.205 16.1161 323.129 15.4095C324.397 14.4311 325.186 13.1447 325.494 11.5503C325.802 9.97404 325.956 8.01728 325.956 5.68004V2.03829C325.956 0.67943 325.321 0 324.053 0L319.814 0C318.545 0 317.911 0.67943 317.911 2.03829V5.68004Z" fill="#F1F5F9"/>
</svg>
