<svg width="140" height="70" viewBox="0 0 140 70" fill="none" xmlns="http://www.w3.org/2000/svg">
<g opacity="0.9">
<path d="M59.3252 55.9513C55.4535 55.9445 52.3189 52.8099 52.3258 48.9382C52.3258 47.6018 52.7116 46.2928 53.4281 45.1699L55.4397 42.0147H51.7196C47.8617 42.0078 44.7134 38.8664 44.7134 35.0016C44.7203 31.1299 47.8548 27.9954 51.7265 27.9885H55.4466L53.4281 24.8333C51.3131 21.5885 52.2363 17.2415 55.481 15.1334C58.7258 13.0254 63.0728 13.9416 65.1809 17.1864C65.2016 17.2208 65.2222 17.2484 65.2429 17.2828L76.5617 35.0016L65.2498 52.7204C63.9546 54.732 61.7226 55.9513 59.3252 55.9513ZM51.7265 30.9646C49.4944 30.9646 47.6895 32.7764 47.6895 35.0016C47.6895 37.2337 49.5013 39.0386 51.7265 39.0386H60.8683L55.9357 46.7613C54.737 48.642 55.2881 51.1428 57.1689 52.3484C59.0496 53.5471 61.5503 52.9959 62.7559 51.1152L73.0551 35.0016L62.7422 18.8811C61.5366 17.0004 59.0358 16.4493 57.1551 17.6548C55.2744 18.8535 54.7232 21.3543 55.9219 23.235L60.8545 30.9577H51.7265V30.9646Z" fill="#226EB3"/>
</g>
<g opacity="0.9">
<path d="M80.6469 55.9997C78.2495 56.0066 76.0174 54.7872 74.7223 52.7687L68.7287 43.3513C68.2809 42.6624 68.4807 41.7461 69.1696 41.2984C69.8585 40.8506 70.7748 41.0504 71.2226 41.7393C71.2295 41.7461 71.2295 41.753 71.2364 41.7599L77.2299 51.1704C78.4355 53.0512 80.9293 53.5954 82.8169 52.3967C84.6977 51.198 85.2488 48.6972 84.0501 46.8165L79.0762 39.0387H88.2042C90.4363 39.0387 92.2412 37.2269 92.2412 35.0017C92.2412 32.7697 90.4294 30.9647 88.2042 30.9647H79.1382L84.0432 23.2834C85.2419 21.4026 84.6908 18.9019 82.8101 17.6963C80.9293 16.4976 78.4286 17.0487 77.223 18.9295L71.257 28.2849C70.823 28.9807 69.9068 29.1942 69.211 28.7602C68.5152 28.3262 68.3016 27.4099 68.7356 26.7141C68.7425 26.7072 68.7494 26.6935 68.7563 26.6866L74.7291 17.3381C76.8165 14.0726 81.1498 13.1219 84.4152 15.2025C87.6806 17.283 88.6313 21.6231 86.5508 24.8885L84.5668 27.9955H88.2042C92.0759 27.9542 95.2449 31.0612 95.2862 34.9328C95.3275 38.8045 92.2206 41.9735 88.3489 42.0148C88.3007 42.0148 88.2593 42.0148 88.2111 42.0148H84.5048L86.5577 45.2183C88.6451 48.4768 87.6944 52.81 84.4359 54.8974C83.2923 55.6139 81.9834 55.9997 80.6469 55.9997Z" fill="#226EB3"/>
</g>
</svg>
