<svg width="141" height="70" viewBox="0 0 141 70" fill="none" xmlns="http://www.w3.org/2000/svg">
<path d="M73.3401 34.8111L78.1356 40.1766L84.5839 44.2103L85.7083 34.8469L84.5839 25.6899L78.0119 29.2339L73.3401 34.8111Z" fill="#00832D"/>
<path d="M45.5115 43.3403V51.3197C45.5115 53.1439 47.021 54.6215 48.8846 54.6215H57.0364L58.723 48.5902L57.0364 43.3403L51.4426 41.6895L45.5115 43.3403Z" fill="#0066DA"/>
<path d="M57.0364 15L45.5115 26.2811L51.4426 27.932L57.0364 26.2811L58.6949 21.1001L57.0364 15Z" fill="#E94235"/>
<path d="M57.0364 26.2812H45.5115V43.3405H57.0364V26.2812Z" fill="#2684FC"/>
<path d="M91.9457 19.7764L84.5838 25.6894V44.2097L91.9766 50.1447C93.0841 50.9921 94.7032 50.219 94.7032 48.8432V21.0531C94.7032 19.6581 93.0476 18.8932 91.9457 19.7764ZM73.3399 34.8106V43.3402H57.0364V54.6213H81.2106C83.0743 54.6213 84.5838 53.1438 84.5838 51.3196V44.2097L73.3399 34.8106Z" fill="#00AC47"/>
<path d="M81.2106 15H57.0364V26.2811H73.3399V34.8108L84.5838 25.6896V18.3018C84.5838 16.4776 83.0743 15 81.2106 15Z" fill="#FFBA00"/>
</svg>
