<svg width="140" height="70" viewBox="0 0 140 70" fill="none" xmlns="http://www.w3.org/2000/svg">
<g clip-path="url(#clip0_10821_8922)">
<path d="M103.951 37.7676L34.7197 45.0409L35.5549 52.9833L104.786 45.71L103.951 37.7676Z" fill="#FFE900"/>
<path d="M68.2743 22.874C66.6939 22.8738 65.1487 23.3421 63.8346 24.2197C62.5205 25.0973 61.4963 26.3447 60.8915 27.8043C60.2867 29.2638 60.1286 30.8698 60.4372 32.4191C60.7457 33.9686 61.507 35.3916 62.6249 36.5084C63.7426 37.6251 65.1666 38.3856 66.7168 38.6933C68.2669 39.0011 69.8735 38.8422 71.3335 38.2371C72.7934 37.6321 74.0409 36.6078 74.9184 35.2938C75.7958 33.9799 76.2637 32.4354 76.2627 30.8556C76.2635 29.8069 76.0573 28.7684 75.6561 27.7995C75.2548 26.8306 74.6664 25.9502 73.9244 25.2089C73.1824 24.4675 72.3015 23.8797 71.332 23.4791C70.3624 23.0785 69.3233 22.8728 68.2743 22.874ZM68.2743 35.2961C67.3956 35.2961 66.5368 35.0357 65.8061 34.5477C65.0756 34.0598 64.5062 33.3663 64.17 32.5549C63.8337 31.7435 63.7458 30.8507 63.9171 29.9893C64.0885 29.1279 64.5117 28.3367 65.1329 27.7157C65.7543 27.0947 66.5458 26.6717 67.4075 26.5004C68.2694 26.329 69.1626 26.417 69.9743 26.7531C70.7861 27.0892 71.4799 27.6583 71.968 28.3886C72.4562 29.1188 72.7167 29.9773 72.7167 30.8556C72.7155 32.0325 72.2469 33.1609 71.4139 33.9926C70.581 34.8243 69.4516 35.2916 68.2743 35.2916V35.2961Z" fill="black"/>
<path d="M93.9835 22.874C92.4033 22.874 90.8586 23.3424 89.5447 24.2199C88.2309 25.0975 87.2068 26.3447 86.6021 27.804C85.9973 29.2633 85.8392 30.869 86.1474 32.4181C86.4557 33.9673 87.2167 35.3903 88.334 36.5072C89.4514 37.624 90.875 38.3846 92.4249 38.6928C93.9746 39.001 95.5811 38.8428 97.041 38.2383C98.501 37.634 99.7487 36.6103 100.627 35.297C101.505 33.9837 101.973 32.4396 101.973 30.8601C101.975 29.8108 101.77 28.7714 101.369 27.8015C100.968 26.8316 100.38 25.9504 99.6377 25.2084C98.8954 24.4664 98.0138 23.8783 97.0435 23.4777C96.0733 23.0771 95.0333 22.8719 93.9835 22.874ZM93.9835 35.2961C93.1049 35.2961 92.246 35.0356 91.5154 34.5478C90.7849 34.0599 90.2155 33.3664 89.8793 32.5549C89.543 31.7435 89.455 30.8507 89.6264 29.9893C89.7978 29.1279 90.221 28.3367 90.8422 27.7157C91.4635 27.0947 92.2551 26.6717 93.1168 26.5004C93.9787 26.3291 94.8719 26.417 95.6836 26.7531C96.4953 27.0892 97.1891 27.6583 97.6773 28.3886C98.1655 29.1188 98.4259 29.9773 98.4259 30.8556C98.4248 32.0325 97.9562 33.1608 97.1232 33.9926C96.2903 34.8244 95.1609 35.2915 93.9835 35.2915V35.2961Z" fill="black"/>
<path d="M89.1185 22.4079V18.8589H73.1404V22.4079H79.3541V38.4155H82.9047V22.4079H89.1185Z" fill="black"/>
<path d="M46.6858 26.8453V30.3943H51.593C50.4596 33.3684 48.2999 35.2902 45.7973 35.2902C44.7025 35.2887 43.6251 35.0171 42.6603 34.4998C41.6956 33.9826 40.8733 33.2357 40.2664 32.3249C39.6594 31.4142 39.2865 30.3679 39.1806 29.2788C39.0748 28.1896 39.2392 27.0912 39.6595 26.0807C40.0797 25.0703 40.7427 24.179 41.5898 23.4858C42.4368 22.7926 43.4419 22.3188 44.5158 22.1066C45.5898 21.8943 46.6996 21.95 47.7468 22.2687C48.7941 22.5875 49.7466 23.1594 50.52 23.9339L53.0408 21.4131C51.6137 19.9863 49.7957 19.0143 47.8162 18.6201C45.8367 18.2258 43.7847 18.4269 41.9195 19.198C40.0544 19.9691 38.4597 21.2755 37.3372 22.9522C36.2146 24.6289 35.6145 26.6006 35.6126 28.6181C35.6071 29.9567 35.8677 31.283 36.3793 32.5201C36.8908 33.7571 37.6431 34.8803 38.5925 35.8243C39.5366 36.7759 40.659 37.5322 41.8956 38.0499C43.1323 38.5675 44.4589 38.8367 45.7996 38.8416C49.2772 38.8416 52.4063 36.6031 54.2505 33.0496V38.4146H57.8011V26.8453H46.6858Z" fill="black"/>
</g>
<defs>
<clipPath id="clip0_10821_8922">
<rect width="70.56" height="36" fill="white" transform="translate(34.72 17)"/>
</clipPath>
</defs>
</svg>
