<svg width="140" height="70" viewBox="0 0 140 70" fill="none" xmlns="http://www.w3.org/2000/svg">
<path d="M87.3548 19.1825C84.1182 17.6957 80.6575 16.6152 77.0394 16C76.595 16.7887 76.0759 17.8496 75.718 18.6935C71.8719 18.1256 68.0611 18.1256 64.2857 18.6935C63.9279 17.8496 63.397 16.7887 62.9487 16C59.3267 16.6152 55.862 17.6997 52.6254 19.1904C46.0972 28.8757 44.3275 38.3205 45.2123 47.6312C49.5422 50.8057 53.7384 52.7342 57.8637 53.9961C58.8823 52.6198 59.7907 51.1567 60.5733 49.6148C59.0828 49.0588 57.6553 48.3726 56.3064 47.576C56.6643 47.3157 57.0143 47.0436 57.3525 46.7636C65.5796 50.5415 74.5185 50.5415 82.6474 46.7636C82.9895 47.0436 83.3395 47.3157 83.6934 47.576C82.3406 48.3765 80.9091 49.0627 79.4187 49.6188C80.2012 51.1567 81.1058 52.6238 82.1282 54C86.2576 52.7381 90.4576 50.8097 94.7875 47.6312C95.8257 36.8377 93.0139 27.4797 87.3548 19.1825ZM61.6941 41.9052C59.2244 41.9052 57.1991 39.6416 57.1991 36.885C57.1991 34.1285 59.1812 31.861 61.6941 31.861C64.2071 31.861 66.2324 34.1245 66.1892 36.885C66.1931 39.6416 64.2071 41.9052 61.6941 41.9052ZM78.3057 41.9052C75.836 41.9052 73.8107 39.6416 73.8107 36.885C73.8107 34.1285 75.7927 31.861 78.3057 31.861C80.8187 31.861 82.844 34.1245 82.8008 36.885C82.8008 39.6416 80.8187 41.9052 78.3057 41.9052Z" fill="#5865F2"/>
</svg>
