<svg width="24" height="25" viewBox="0 0 24 25" fill="none" xmlns="http://www.w3.org/2000/svg">
<path d="M22.54 6.58406C22.4212 6.10947 22.1792 5.67463 21.8386 5.32347C21.498 4.9723 21.0707 4.71725 20.6 4.58406C18.88 4.16406 12 4.16406 12 4.16406C12 4.16406 5.11996 4.16406 3.39996 4.62406C2.92921 4.75725 2.50194 5.0123 2.16131 5.36347C1.82068 5.71463 1.57875 6.14947 1.45996 6.62406C1.14518 8.36962 0.991197 10.1404 0.999961 11.9141C0.988741 13.7011 1.14273 15.4854 1.45996 17.2441C1.59092 17.7039 1.83827 18.1222 2.17811 18.4585C2.51794 18.7949 2.93878 19.0379 3.39996 19.1641C5.11996 19.6241 12 19.6241 12 19.6241C12 19.6241 18.88 19.6241 20.6 19.1641C21.0707 19.0309 21.498 18.7758 21.8386 18.4247C22.1792 18.0735 22.4212 17.6387 22.54 17.1641C22.8523 15.4317 23.0063 13.6744 23 11.9141C23.0112 10.127 22.8572 8.34276 22.54 6.58406Z" fill="#0284c7" stroke="#0284c7" stroke-width="1.8" stroke-linecap="round" stroke-linejoin="round"/>
<path d="M9.75 15.184L15.5 11.914L9.75 8.64404V15.184Z" fill="#E7E3FF" stroke="#E7E3FF" stroke-width="1.8" stroke-linecap="round" stroke-linejoin="round"/>
</svg>
