<svg width="24" height="25" viewBox="0 0 24 25" fill="none" xmlns="http://www.w3.org/2000/svg">
<path d="M14.9517 12.1651C14.9517 10.534 13.6293 9.21181 11.9984 9.21181C10.3672 9.21181 9.04509 10.534 9.04509 12.1651C9.04509 13.7961 10.3672 15.1184 11.9984 15.1184C13.6293 15.1184 14.9517 13.7961 14.9517 12.1651Z" fill="#0284c7"/>
<path fill-rule="evenodd" clip-rule="evenodd" d="M11.7031 4.90177C11.5239 4.90169 11.3579 4.90161 11.2036 4.90185V4.89964C9.55232 4.90148 9.23558 4.91256 8.41825 4.94947C7.55442 4.98916 7.0854 5.13313 6.77309 5.25496C6.35963 5.41591 6.0643 5.60787 5.7542 5.91797C5.44411 6.22807 5.25177 6.52339 5.09119 6.93685C4.96992 7.24917 4.82558 7.718 4.78608 8.58184C4.74362 9.51582 4.73513 9.7949 4.73513 12.1609C4.73513 14.5268 4.74362 14.8074 4.78608 15.7414C4.82539 16.6052 4.96992 17.074 5.09119 17.386C5.25214 17.7996 5.44411 18.0942 5.7542 18.4043C6.0643 18.7144 6.35963 18.9064 6.77309 19.0669C7.08558 19.1882 7.55442 19.3326 8.41825 19.3724C9.35223 19.4149 9.63261 19.4241 11.9984 19.4241C14.364 19.4241 14.6445 19.4149 15.5785 19.3724C16.4423 19.3329 16.9115 19.189 17.2235 19.0671C17.6371 18.9065 17.9315 18.7146 18.2416 18.4045C18.5517 18.0946 18.7441 17.8002 18.9047 17.3867C19.0259 17.0748 19.1703 16.6059 19.2098 15.7421C19.2522 14.8081 19.2614 14.5276 19.2614 12.1631C19.2614 9.79859 19.2522 9.51803 19.2098 8.58405C19.1704 7.72022 19.0259 7.25138 18.9047 6.93944C18.7437 6.52598 18.5517 6.23065 18.2416 5.92055C17.9317 5.61046 17.637 5.41849 17.2235 5.25791C16.9112 5.13664 16.4423 4.9923 15.5785 4.9528C14.6443 4.91034 14.364 4.90185 11.9984 4.90185C11.8961 4.90185 11.7978 4.90181 11.7031 4.90177ZM15.6645 7.43578C15.6645 6.84863 16.1407 6.37296 16.7277 6.37296V6.37259C17.3147 6.37259 17.7909 6.84881 17.7909 7.43578C17.7909 8.02274 17.3147 8.49896 16.7277 8.49896C16.1407 8.49896 15.6645 8.02274 15.6645 7.43578ZM7.44847 12.1651C7.44847 9.65241 9.48568 7.61519 11.9984 7.61519C14.5111 7.61519 16.5476 9.65241 16.5476 12.1651C16.5476 14.6778 14.5111 16.7141 11.9984 16.7141C9.48568 16.7141 7.44847 14.6778 7.44847 12.1651Z" fill="#0284c7"/>
<path fill-rule="evenodd" clip-rule="evenodd" d="M5.24402 0.196153C5.52883 0.172527 6.99403 0.167358 12.0039 0.167358L15.9096 0.167358C18.7244 0.172249 18.8846 0.195446 19.4193 0.272881L19.4503 0.277368C20.6072 0.444229 21.5781 0.905681 22.372 1.66394C22.8168 2.09198 23.1232 2.51061 23.3992 3.07118C23.7355 3.75598 23.9007 4.40385 23.9764 5.36737C23.9926 5.5741 24 8.86406 24 12.1562C24 15.4479 23.9932 18.7439 23.9769 18.9507C23.9022 19.8988 23.737 20.5523 23.4112 21.2241C22.7633 22.5605 21.5728 23.5351 20.1349 23.9061C19.6134 24.0408 19.1418 24.1042 18.3297 24.1424C18.0399 24.1571 15.0091 24.1608 11.9783 24.1608C8.94745 24.1608 5.91848 24.1516 5.6213 24.1387C4.9199 24.1054 4.37354 24.0353 3.87886 23.9079C2.45021 23.5388 1.23751 22.5494 0.602553 21.2315C0.270308 20.543 0.113415 19.9136 0.0303533 18.9132C0.00635777 18.6289 0.000820354 17.1652 0.000820354 12.1594C0.000820354 11.5461 0.000576244 10.9895 0.000354359 10.4836C-3.39192e-05 9.59829 -0.000354206 8.86807 0.000820354 8.26011C0.00553859 5.44224 0.0284549 5.28414 0.106405 4.74638C0.107741 4.73716 0.109093 4.72783 0.110461 4.71838C0.277507 3.56254 0.738959 2.59016 1.50035 1.79979C1.91843 1.36639 2.34204 1.05722 2.87917 0.790503C3.57615 0.443491 4.2159 0.281614 5.24402 0.196153ZM8.34516 3.35876C9.29003 3.31576 9.59207 3.30523 11.997 3.30523C14.4027 3.30523 14.7036 3.31576 15.6485 3.35876C16.5917 3.40195 17.2359 3.55128 17.8007 3.77037C18.384 3.99648 18.8768 4.2992 19.3696 4.79203C19.8624 5.28449 20.1652 5.7788 20.3922 6.36152C20.61 6.92486 20.7595 7.56867 20.8038 8.51188C20.8463 9.45693 20.8573 9.75891 20.8573 12.1651C20.8573 14.5713 20.8463 14.8725 20.8038 15.8176C20.7595 16.7604 20.61 17.4044 20.3922 17.968C20.1652 18.5505 19.8624 19.0448 19.3696 19.5373C18.8773 20.0301 18.3838 20.3335 17.8012 20.5598C17.2375 20.7789 16.593 20.9283 15.6498 20.9714C14.7047 21.0145 14.4037 21.025 11.9973 21.025C9.59126 21.025 9.28948 21.0145 8.34442 20.9714C7.4014 20.9283 6.7574 20.7789 6.19369 20.5598C5.61134 20.3335 5.11703 20.0301 4.62475 19.5373C4.13211 19.0448 3.82939 18.5505 3.60291 17.9678C3.384 17.4044 3.23468 16.7606 3.1913 15.8174C3.14848 14.8723 3.13777 14.5713 3.13777 12.1651C3.13777 9.75891 3.14884 9.45675 3.19111 8.5117C3.23357 7.56886 3.38308 6.92486 3.60273 6.36133C3.82976 5.7788 4.13248 5.28449 4.62531 4.79203C5.11777 4.29938 5.61207 3.99667 6.1948 3.77037C6.75814 3.55128 7.40195 3.40195 8.34516 3.35876ZM11.997 3.30523C11.9975 3.30523 11.9979 3.30523 11.9984 3.30523H11.9956C11.9961 3.30523 11.9965 3.30523 11.997 3.30523Z" fill="#0284c7"/>
</svg>
