<svg width="24" height="25" viewBox="0 0 24 25" fill="none" xmlns="http://www.w3.org/2000/svg">
<mask id="path-1-inside-1_11867_14272" fill="white">
<path d="M19.589 6.85006C18.5903 6.63644 17.686 6.10941 17.0078 5.34582C16.3297 4.58222 15.9131 3.62197 15.819 2.60506V2.16406H12.374V15.8361C12.3718 16.4413 12.1801 17.0307 11.8257 17.5214C11.4713 18.0121 10.9721 18.3794 10.3982 18.5718C9.8243 18.7641 9.20455 18.7718 8.62605 18.5937C8.04756 18.4157 7.53939 18.0608 7.17296 17.5791C6.80084 17.0892 6.59442 16.4936 6.58363 15.8786C6.57283 15.2635 6.75823 14.661 7.11293 14.1585C7.46763 13.6559 7.97319 13.2794 8.55631 13.0835C9.13943 12.8876 9.76978 12.8825 10.356 13.0691V9.56906C9.04881 9.38836 7.71788 9.62075 6.54931 10.2337C5.38074 10.8467 4.433 11.8096 3.83864 12.9878C3.24428 14.1659 3.03303 15.5004 3.23444 16.8045C3.43586 18.1086 4.03986 19.3171 4.96196 20.2611C5.84132 21.1608 6.96885 21.7781 8.20062 22.0342C9.43239 22.2902 10.7125 22.1734 11.8776 21.6987C13.0427 21.2239 14.0399 20.4128 14.7419 19.3687C15.4439 18.3247 15.8189 17.0952 15.819 15.8371V8.85106C17.2112 9.8464 18.8805 10.3801 20.592 10.3771V6.95406C20.2549 6.95448 19.9188 6.91962 19.589 6.85006Z"/>
</mask>
<path d="M19.589 6.85006C18.5903 6.63644 17.686 6.10941 17.0078 5.34582C16.3297 4.58222 15.9131 3.62197 15.819 2.60506V2.16406H12.374V15.8361C12.3718 16.4413 12.1801 17.0307 11.8257 17.5214C11.4713 18.0121 10.9721 18.3794 10.3982 18.5718C9.8243 18.7641 9.20455 18.7718 8.62605 18.5937C8.04756 18.4157 7.53939 18.0608 7.17296 17.5791C6.80084 17.0892 6.59442 16.4936 6.58363 15.8786C6.57283 15.2635 6.75823 14.661 7.11293 14.1585C7.46763 13.6559 7.97319 13.2794 8.55631 13.0835C9.13943 12.8876 9.76978 12.8825 10.356 13.0691V9.56906C9.04881 9.38836 7.71788 9.62075 6.54931 10.2337C5.38074 10.8467 4.433 11.8096 3.83864 12.9878C3.24428 14.1659 3.03303 15.5004 3.23444 16.8045C3.43586 18.1086 4.03986 19.3171 4.96196 20.2611C5.84132 21.1608 6.96885 21.7781 8.20062 22.0342C9.43239 22.2902 10.7125 22.1734 11.8776 21.6987C13.0427 21.2239 14.0399 20.4128 14.7419 19.3687C15.4439 18.3247 15.8189 17.0952 15.819 15.8371V8.85106C17.2112 9.8464 18.8805 10.3801 20.592 10.3771V6.95406C20.2549 6.95448 19.9188 6.91962 19.589 6.85006Z" fill="#0284c7"/>
<path d="M14.635 2.67621L14.633 2.67521L-0.291126 32.4809L-0.289126 32.4819L14.635 2.67621ZM19.589 6.85006L12.6164 39.446L12.663 39.456L12.7096 39.4658L19.589 6.85006ZM15.819 2.60506H-17.5144V4.1452L-17.3724 5.67878L15.819 2.60506ZM15.819 2.16406H49.1523V-31.1693H15.819V2.16406ZM12.374 2.16406V-31.1693H-20.9594V2.16406H12.374ZM12.374 15.8361L45.7071 15.9535L45.7073 15.8948V15.8361H12.374ZM7.17296 17.5791L-19.3696 37.7435L-19.3638 37.7511L-19.3581 37.7586L7.17296 17.5791ZM10.356 13.0691L0.249105 44.8332L43.6893 58.6552V13.0691H10.356ZM10.356 9.56906H43.6893V-19.4733L14.9205 -23.4503L10.356 9.56906ZM4.96196 20.2611L-18.8824 43.554L-18.8769 43.5596L4.96196 20.2611ZM15.819 15.8371L49.1523 15.8391V15.8371H15.819ZM15.819 8.85106L35.2049 -18.2653L-17.5144 -55.9551V8.85106H15.819ZM20.592 10.3771L20.6512 43.7103L53.9253 43.6512V10.3771H20.592ZM20.592 6.95406H53.9253V-26.4205L20.5508 -26.3792L20.592 6.95406ZM26.5615 -25.7459C32.5081 -24.4738 37.893 -21.3356 41.9312 -16.7887L-7.91555 27.4803C-2.5211 33.5545 4.67246 37.7467 12.6164 39.446L26.5615 -25.7459ZM41.9312 -16.7887C45.9693 -12.2418 48.4495 -6.52391 49.0103 -0.468653L-17.3724 5.67878C-16.6233 13.7679 -13.31 21.4062 -7.91555 27.4803L41.9312 -16.7887ZM49.1523 2.60506V2.16406H-17.5144V2.60506H49.1523ZM15.819 -31.1693H12.374V35.4974H15.819V-31.1693ZM-20.9594 2.16406V15.8361H45.7073V2.16406H-20.9594ZM-20.9592 15.7187C-20.9368 9.35714 -18.9217 3.16252 -15.1971 -1.9947L38.8485 37.0375C43.2819 30.899 45.6804 23.5255 45.7071 15.9535L-20.9592 15.7187ZM-15.1971 -1.9947C-11.4725 -7.1519 -6.22563 -11.0125 -0.19375 -13.034L20.9902 50.1775C28.1699 47.7714 34.4152 43.1761 38.8485 37.0375L-15.1971 -1.9947ZM-0.19375 -13.034C5.8381 -15.0554 12.3517 -15.1361 18.4318 -13.2647L-1.17971 50.4521C6.05737 52.6796 13.8105 52.5836 20.9902 50.1775L-0.19375 -13.034ZM18.4318 -13.2647C24.5119 -11.3933 29.8528 -7.66388 33.704 -2.60049L-19.3581 37.7586C-14.774 43.7855 -8.41676 48.2246 -1.17971 50.4521L18.4318 -13.2647ZM33.7155 -2.58538C37.628 2.56464 39.7983 8.82703 39.9118 15.2937L-26.7446 16.4635C-26.6095 24.1602 -24.0263 31.6138 -19.3696 37.7435L33.7155 -2.58538ZM39.9118 15.2937C40.0253 21.7603 38.076 28.095 34.3467 33.3791L-20.1208 -5.06217C-24.5596 1.22711 -26.8797 8.76679 -26.7446 16.4635L39.9118 15.2937ZM34.3467 33.3791C30.6173 38.6632 25.3018 42.6221 19.1708 44.6816L-2.0582 -18.5147C-9.35539 -16.0634 -15.6821 -11.3515 -20.1208 -5.06217L34.3467 33.3791ZM19.1708 44.6816C13.0399 46.7412 6.41227 46.7943 0.249105 44.8332L20.4628 -18.6951C13.1273 -21.0292 5.23899 -20.966 -2.0582 -18.5147L19.1708 44.6816ZM43.6893 13.0691V9.56906H-22.9774V13.0691H43.6893ZM14.9205 -23.4503C6.72895 -24.5827 -1.61172 -23.1263 -8.93483 -19.2849L22.0335 39.7524C17.0475 42.3678 11.3687 43.3594 5.79139 42.5884L14.9205 -23.4503ZM-8.93483 -19.2849C-16.258 -15.4436 -22.1973 -9.4093 -25.922 -2.02616L33.5992 28.0017C31.0632 33.0285 27.0194 37.137 22.0335 39.7524L-8.93483 -19.2849ZM-25.922 -2.02616C-29.6467 5.35698 -30.9705 13.7197 -29.7083 21.8923L36.1772 11.7166C37.0366 17.281 36.1352 22.9748 33.5992 28.0017L-25.922 -2.02616ZM-29.7083 21.8923C-28.4461 30.0649 -24.661 37.6385 -18.8824 43.554L28.8063 -3.03183C32.7407 0.995716 35.3178 6.1523 36.1772 11.7166L-29.7083 21.8923ZM-18.8769 43.5596C-13.3669 49.1973 -6.30189 53.0653 1.41628 54.6698L14.985 -10.6014C20.2396 -9.5091 25.0495 -6.87572 28.8008 -3.03743L-18.8769 43.5596ZM1.41628 54.6698C9.13447 56.2743 17.1557 55.5424 24.4561 52.5677L-0.700849 -9.17028C4.26934 -11.1955 9.7303 -11.6938 14.985 -10.6014L1.41628 54.6698ZM24.4561 52.5677C31.7564 49.5929 38.0048 44.5102 42.4035 37.9684L-12.9197 0.76913C-9.925 -3.68466 -5.67104 -7.14503 -0.700849 -9.17028L24.4561 52.5677ZM42.4035 37.9684C46.8022 31.4265 49.1518 23.7223 49.1523 15.8391L-17.5144 15.835C-17.514 10.4681 -15.9144 5.22291 -12.9197 0.76913L42.4035 37.9684ZM49.1523 15.8371V8.85106H-17.5144V15.8371H49.1523ZM-3.56694 35.9674C3.49729 41.0178 11.9674 43.7258 20.6512 43.7103L20.5327 -22.9562C25.7937 -22.9656 30.9251 -21.325 35.2049 -18.2653L-3.56694 35.9674ZM53.9253 10.3771V6.95406H-12.7414V10.3771H53.9253ZM20.5508 -26.3792C22.5393 -26.3817 24.5226 -26.176 26.4683 -25.7657L12.7096 39.4658C15.3149 40.0153 17.9705 40.2907 20.6332 40.2874L20.5508 -26.3792Z" fill="#0284c7" mask="url(#path-1-inside-1_11867_14272)"/>
</svg>
