<svg width="24" height="25" viewBox="0 0 24 25" fill="none" xmlns="http://www.w3.org/2000/svg">
<path d="M23 3.16411C22.0424 3.83959 20.9821 4.35622 19.86 4.69411C19.2577 4.00162 18.4573 3.5108 17.567 3.28803C16.6767 3.06527 15.7395 3.1213 14.8821 3.44856C14.0247 3.77582 13.2884 4.35851 12.773 5.11783C12.2575 5.87714 11.9877 6.77644 12 7.69411V8.69411C10.2426 8.73968 8.50127 8.34992 6.93101 7.55955C5.36074 6.76919 4.01032 5.60274 3 4.16411C3 4.16411 -1 13.1641 8 17.1641C5.94053 18.5621 3.48716 19.263 1 19.1641C10 24.1641 21 19.1641 21 7.66411C20.9991 7.38556 20.9723 7.1077 20.92 6.83411C21.9406 5.8276 22.6608 4.55682 23 3.16411Z" fill="#0284c7" stroke="#0284c7" stroke-width="1.8" stroke-linecap="round" stroke-linejoin="round"/>
</svg>
