<svg width="140" height="70" viewBox="0 0 140 70" fill="none" xmlns="http://www.w3.org/2000/svg">
<path d="M50.3878 66.0916C50.2236 65.7317 50.0893 65.4076 50.0893 65.3713C50.0893 65.335 49.5178 62.3385 49.4526 61.5685C49.1683 58.2066 48.7199 57.8847 48.8451 54.8872C48.9209 53.0715 48.6682 52.4521 49.2059 50.9673C50.3132 47.9093 51.1251 46.7061 52.5641 45.9905C53.7316 45.4099 54.8269 45.4888 55.8549 46.2274C56.1259 46.4221 57.035 47.0353 57.8752 47.5902C58.7153 48.1451 59.7132 48.8178 60.0926 49.0852C60.4721 49.3525 61.105 49.7383 61.499 49.9424C62.1942 50.3025 62.2199 50.308 62.3609 50.1262C62.6706 49.7266 63.4183 48.6053 63.8226 48.07C65.8478 45.389 63.9405 45.687 63.4639 45.5472C62.7146 45.3273 62.3989 45.0051 61.6985 44.1869C60.0718 42.2863 59.3009 40.1718 59.187 37.559C59.0547 34.5249 59.3608 32.078 60.6973 30.6854C61.2701 30.0885 62.4827 29.2217 63.5913 28.6165C64.5302 28.1041 70.2883 27.0331 70.7936 27.2556C71.0461 27.3668 69.7943 24.0685 70.5147 19.7801C70.6578 18.9282 71.6298 16.2919 71.7325 16.1125C71.9861 15.6696 76.1648 14.2439 77.3535 13.548C78.6817 12.7705 81.554 10.8976 81.7703 9.50458C82.2459 6.44343 82.3303 5.1353 82.5285 5.02037C82.8235 4.84932 84.7955 8.90223 83.4607 12.7238C83.1973 13.478 81.941 15.2291 81.3785 15.9615C80.9734 16.4889 81.8531 16.7354 82.3591 17.4968C82.8194 18.1893 83.1219 19.8822 83.181 20.7594C83.2413 21.6551 82.957 23.493 82.7023 23.8535C82.5992 23.9995 82.5569 24.143 82.6079 24.1742C82.6586 24.2054 83.0018 24.1646 83.3707 24.0837C83.7396 24.0027 84.5392 23.8738 85.1476 23.7972C86.2307 23.6609 86.2695 23.6628 87.0045 23.8882C88.1071 24.2263 93.4704 25.518 90.0481 40.4575C88.9142 45.407 83.6231 51.9382 82.9578 51.4325L81.3194 50.1873L79.4313 52.9778C78.4677 53.9644 77.4286 54.9166 76.8157 55.3747C75.8486 56.0976 73.9136 57.2363 73.6523 57.2363C73.585 57.2363 73.2038 57.3922 72.8052 57.5827C71.6528 58.1336 69.9268 58.5852 68.0984 58.7049C61.0189 59.1621 63.7197 58.3101 57.8578 55.4804C57.3954 55.2572 56.3311 56.3832 55.0484 57.5467C53.6789 58.7889 52.96 59.7343 52.4167 61.0075C52.2328 61.4385 51.9465 62.0997 51.7805 62.4768C51.3288 63.5029 50.9572 64.9228 50.9019 65.8335C50.8749 66.279 50.8154 66.6665 50.7696 66.6947C50.7238 66.7228 50.552 66.4514 50.3878 66.0916ZM58.1707 53.5199C59.0781 53.2911 59.1774 53.2407 60.1534 52.5126C60.8528 51.991 61.2861 51.0491 61.4721 50.9668C62.6897 50.4282 60.5633 49.9435 59.7683 49.4089C58.9733 48.8744 57.9396 48.4792 57.2353 47.9433C56.5311 47.4074 55.9212 46.9896 55.8802 47.0148C55.8391 47.04 55.8047 47.3997 55.8037 47.8141C55.8009 49.0226 55.6383 50.2352 55.4111 50.7426C55.2954 51.0009 55.1787 51.4987 55.1516 51.8489C55.0889 52.66 55.2783 53.0501 55.9517 53.4975C56.5193 53.8744 56.7549 53.8768 58.1707 53.5199ZM91.0544 30.631C90.7589 28.6526 91.0035 25.9318 89.4571 24.9414C85.8893 22.6564 85.4977 24.9223 85.2788 25.423C84.9187 26.2468 84.6971 26.9207 84.9704 27.8263C85.81 30.6087 86.8841 33.0726 87.394 35.0503C87.9791 37.32 88.6241 38.7555 88.6886 40.5352C88.7344 41.7987 88.7224 41.9315 88.5359 42.2234C88.2707 42.6384 84.2636 43.6549 82.2458 44.2475C81.553 44.451 82.1667 45.9239 82.0873 46.4088C82.0079 46.8937 80.9234 49.6037 81.2722 50.1486C84.714 55.5251 92.3249 39.1385 91.0544 30.631ZM83.6406 43.8498C84.1789 43.7207 84.6823 43.5633 84.7591 43.4999C84.836 43.4365 85.0313 43.3947 85.1931 43.407C85.4828 43.4289 86.6167 43.073 86.7039 42.9328C86.7284 42.8934 87.7401 42.3672 87.5377 42.2336C87.3353 42.0999 83.3808 39.2021 82.8138 38.9074C76.2841 35.5135 72.8516 35.2799 70.6955 35.7129C67.0022 36.4547 63.8123 38.3215 63.4286 38.782C63.3127 38.921 69.2109 36.958 73.3976 39.0205C74.1711 39.4015 75.7682 40.0564 76.9689 41.3379C78.0657 42.5085 79.0658 43.7471 79.8529 43.9563C80.7064 44.1831 82.4553 44.1339 83.6406 43.8498ZM75.7683 29.8575C77.8358 29.4968 81.0388 25.2152 80.7896 24.8144C80.7559 24.7602 81.4091 23.6795 81.303 23.6584C77.434 22.8893 77.5272 19.049 77.4715 19.0147C77.4157 18.9805 71.7672 21.6738 70.4655 22.2347C69.3609 22.7107 70.6234 25.5487 71.2894 27.3102C71.5857 28.0938 73.2171 29.1388 73.8737 29.5649C74.6505 30.0689 75.5917 29.8883 75.7683 29.8575ZM80.2239 16.7906C81.3403 15.9135 84.3137 11.5235 83.9982 9.74197C82.713 2.4839 82.1589 6.97724 82.0764 7.62496C82.0422 7.89322 81.9449 8.48737 81.8601 8.9453C81.7753 9.40323 81.6672 10.0644 81.6199 10.4146C81.5725 10.7648 81.4417 11.3819 81.3291 11.786C81.2165 12.19 81.0386 12.8617 80.9339 13.2785C80.8291 13.6954 80.4765 14.7223 80.1503 15.5606C79.8241 16.3988 79.5572 17.1046 79.5572 17.129C79.5572 17.2514 79.7836 17.1365 80.2239 16.7906Z" fill="url(#paint0_linear_10821_8939)"/>
<path fill-rule="evenodd" clip-rule="evenodd" d="M50.6806 65.8615C52.4258 58.654 54.0048 57.8463 58.1601 55.1746C57.2459 54.6568 54.9962 52.9402 55.0021 52.0265C55.0178 49.3587 55.4602 44.7089 52.5089 46.6416C46.909 50.3088 48.9354 61.9678 50.6806 65.8615Z" fill="url(#paint1_linear_10821_8939)"/>
<path fill-rule="evenodd" clip-rule="evenodd" d="M56.821 54.2517C59.2884 56.1101 61.469 57.7529 63.0168 58.6243C78.1094 59.3849 81.878 51.068 82.1522 44.2495C80.8088 44.311 78.5197 43.9831 77.2861 42.1299C74.2054 43.1379 64.8787 45.9645 64.7165 46.5998C63.8746 49.8955 61.3719 52.5574 56.821 54.2517Z" fill="url(#paint2_linear_10821_8939)"/>
<path fill-rule="evenodd" clip-rule="evenodd" d="M83.0118 51.4746C92.1279 44.7108 90.9546 31.1669 91.1018 30.4734C91.4762 28.7102 89.2752 22.737 86.6313 23.8329C82.2294 25.6576 89.7291 36.0036 88.723 41.678C88.5132 42.8607 84.88 43.7326 82.4102 44.1148C82.1254 44.1589 82.3782 47.9747 81.1392 49.7311C80.9618 49.9825 82.8452 51.5982 83.0118 51.4746Z" fill="url(#paint3_linear_10821_8939)"/>
<path fill-rule="evenodd" clip-rule="evenodd" d="M84.2832 50.5458C95.9561 39.1133 90.0471 18.7042 85.9716 24.6652C91.5692 23.5368 92.4597 42.2641 84.2832 50.5458Z" fill="url(#paint4_linear_10821_8939)"/>
<path fill-rule="evenodd" clip-rule="evenodd" d="M62.1181 50.7059C62.334 50.4155 58.3048 49.0402 55.8696 46.8544C55.5996 46.612 55.556 50.3903 55.3009 51.9658C55.1423 52.9446 56.8097 53.9301 57.1908 54.0529C57.5069 54.1548 61.2317 51.8981 62.1181 50.7059Z" fill="url(#paint5_linear_10821_8939)"/>
<path fill-rule="evenodd" clip-rule="evenodd" d="M58.9229 39.8178C57.5222 32.7408 60.071 28.5796 70.2841 27.1177C70.3336 27.2734 81.6346 23.4876 85.6104 23.4619C84.5328 25.1688 85.6223 29.3834 86.9315 32.8481C86.9315 32.8481 77.3642 35.3367 58.9229 39.8178Z" fill="url(#paint6_linear_10821_8939)"/>
<path fill-rule="evenodd" clip-rule="evenodd" d="M63.8869 38.6899C65.0989 38.257 68.5589 37.2138 72.6924 38.6483C75.5234 39.6307 77.1479 42.1077 78.37 43.0604C81.2486 45.3044 86.5625 42.8116 87.5236 42.8267C87.9185 42.8329 80.3904 36.0897 74.7146 35.7485C67.0846 35.2899 62.3223 39.2487 63.8869 38.6899Z" fill="url(#paint7_linear_10821_8939)"/>
<path fill-rule="evenodd" clip-rule="evenodd" d="M82.5046 5.15568C82.4626 7.45703 81.7363 12.9501 79.3985 16.7042C78.3291 18.4214 83.3872 14.4378 83.9317 11.0136C84.2312 9.13031 82.5393 3.3216 82.5046 5.15568Z" fill="url(#paint8_linear_10821_8939)"/>
<path fill-rule="evenodd" clip-rule="evenodd" d="M74.9122 30.259C77.4503 28.9671 79.7625 27.2681 81.228 24.1133C81.4761 23.5792 80.0194 24.0973 78.8998 22.5129C77.7911 20.9442 78.0527 19.352 77.1032 19.4793C74.1363 19.8772 70.1804 22.6662 70.1804 22.6662C70.1804 22.6662 70.4079 25.7179 71.2099 26.9582C72.8633 29.5157 74.9122 30.259 74.9122 30.259Z" fill="url(#paint9_linear_10821_8939)"/>
<path opacity="0.552238" fill-rule="evenodd" clip-rule="evenodd" d="M78.8406 22.2283C79.5894 24.9363 83.7505 24.4455 82.8806 19.1743C82.5055 19.721 81.5686 22.7224 78.8406 22.2283Z" fill="url(#paint10_linear_10821_8939)"/>
<path fill-rule="evenodd" clip-rule="evenodd" d="M74.5541 30.0334C73.1529 29.0835 71.9433 27.9017 71.1684 26.6515C70.3935 25.4014 70.0533 19.0259 71.3571 17.4413C72.0736 15.6987 74.6099 14.0144 77.4272 13.2705C72.0719 19.4607 73.8072 28.8429 78.5463 27.9306C78.7831 27.885 75.023 30.0474 74.5541 30.0334Z" fill="url(#paint11_linear_10821_8939)"/>
<path fill-rule="evenodd" clip-rule="evenodd" d="M55.8293 46.668C56.8756 47.4399 61.389 50.9222 62.3837 50.3711C60.0734 56.001 53.9905 51.2316 55.8293 46.668Z" fill="url(#paint12_linear_10821_8939)"/>
<path d="M74.4364 15.0482C73.3521 15.6782 72.0484 16.3828 71.7895 17.0199C70.9209 18.8391 70.5953 22.1039 70.8598 21.9164C73.4376 20.0891 76.4222 19.5825 77.5082 18.6038C80.7263 15.7037 81.9756 9.70853 81.2994 10.5972C79.1102 13.4741 75.555 14.3983 74.4364 15.0482ZM57.5672 55.3059C57.5672 55.3059 54.5233 53.2071 54.5794 52.5337C55.0455 46.9384 54.0493 46.6119 53.5473 46.6713C52.9407 46.743 49.7887 48.7266 49.1738 54.3274C48.7276 58.3916 50.3386 64.7414 50.584 65.085C51.8539 61.6828 51.3585 58.9446 57.5672 55.3059ZM90.8223 30.5173C90.6708 26.3227 88.1374 23.4386 86.4167 24.114C85.6867 24.4006 85.1966 26.3537 85.4529 27.5648C85.6803 28.6389 87.2293 32.7955 87.3407 33.1469C87.604 33.9778 89.3819 39.07 89.0659 41.5167C88.7889 43.6613 82.5527 44.4033 82.5527 44.4033C82.5527 44.4033 82.4479 46.1489 82.233 47.3284C81.9687 48.7784 81.4447 49.9163 81.4447 49.9163C81.4447 49.9163 82.8025 51.1772 82.8573 51.1758C82.9122 51.1744 91.403 46.5991 90.8223 30.5173ZM84.3127 43.5109C84.7516 43.3884 87.3433 42.7053 87.2044 42.6145C86.2426 41.9856 85.1482 41.194 83.3152 39.7729C73.1386 31.8829 63.895 38.5283 64.0772 38.4679C65.767 37.9076 67.5515 37.591 70.0307 37.7561C72.0275 37.8891 75.1666 38.8981 77.9163 42.1656C78.9391 43.381 80.0997 44.2056 84.3127 43.5109ZM79.7732 26.3848C80.0811 26.1193 81.1513 24.1083 80.9586 24.0615C78.2581 23.4069 77.995 22.2158 77.7307 20.9199C77.4831 19.7061 77.5213 19.533 77.0097 19.7014C72.8763 21.0624 71.7329 21.8103 71.1004 22.3336C70.1097 23.1533 70.8046 25.3558 71.192 26.2311C71.732 27.4512 73.7172 29.6589 74.6408 29.8367C75.9879 30.0961 79.1716 27.3449 79.7732 26.3848ZM82.7774 18.9525C82.5534 18.0392 81.8337 16.863 81.6419 16.863C81.4613 16.863 79.549 18.338 79.0551 18.852C77.934 20.0185 78.4804 22.1323 79.7239 22.8574C81.8287 24.0846 83.3744 21.3866 82.7774 18.9525ZM81.1904 15.4593C82.1113 14.5423 83.3354 13.0371 83.661 10.7497C83.7885 9.85321 83.8626 9.06461 83.3033 7.29207C83.1736 6.88125 82.7796 5.69974 82.7648 5.8554C82.4739 8.92893 82.0476 12.3417 80.0353 15.9688C79.4037 17.1072 79.7433 16.9003 81.1904 15.4593ZM59.5934 33.765C58.4964 38.3521 61.4035 44.3765 63.7585 44.7198C66.035 45.0518 72.5614 43.0875 75.9842 42.1387C76.881 41.8901 77.3634 42.0198 75.3795 40.363C72.2691 38.2551 69.7588 37.9837 67.2544 38.267C64.492 38.5796 62.4221 39.3946 62.6157 39.233C63.8823 38.1758 66.1381 36.2854 70.4965 35.4293C72.3908 35.0572 75.3142 35.0246 78.8437 36.3987C83.2216 38.1032 85.5018 40.631 87.3527 41.4877C88.0118 41.7928 88.2473 41.6509 88.5077 40.8885C88.944 39.6112 86.2918 31.6356 85.3309 29.3099C83.8645 25.7607 85.5754 24.0644 85.2014 24.1465C83.3876 24.5451 81.7882 25.7072 80.4474 26.9039C77.1699 29.8291 75.1723 30.4522 74.8759 30.4271C73.9399 30.3477 72.1886 28.6963 71.5523 27.8578C71.1463 27.3227 63.8799 28.7209 61.7372 30.5765C61.6882 30.619 60.0348 31.676 59.5934 33.765ZM57.2653 53.7358C59.6619 52.7334 62.0083 50.6033 61.8053 50.5681C60.5611 50.3524 55.9723 47.218 55.9755 47.2505C56.1331 48.868 55.7795 50.3215 55.6181 51.9248C55.5509 52.5934 56.4449 53.6292 57.2653 53.7358ZM64.9987 46.7242C64.5402 47.743 64.0615 51.7495 57.436 54.3205C57.2441 54.3949 62.9883 58.3104 63.3009 58.3241C82.2705 59.1542 82.1097 44.7541 81.8579 44.3911C81.8215 44.3385 80.199 44.3949 78.9423 43.8004C78.8465 43.7551 77.994 43.3171 77.4858 42.6573C77.3134 42.4336 77.2866 42.312 76.6477 42.497C73.6912 43.3535 64.8642 46.5107 64.9987 46.7242ZM59.0892 39.7004C55.7017 27.9016 67.5894 27.3542 69.4742 26.8999C70.9318 26.5486 70.6142 26.412 70.3068 25.0377C69.8753 23.1081 70.0097 21.4262 70.3797 19.6233C70.7295 17.9184 70.91 17.0563 71.6488 16.2015C72.2443 15.5124 75.6001 13.9367 76.432 13.5389C79.9771 11.8439 81.3316 9.98088 81.7267 8.51546C82.0052 7.48238 82.4128 4.93611 82.2296 3.11608C82.1845 2.66811 82.4745 3.37005 83.9169 7.83751C84.6539 10.1202 84.2909 12.8611 81.9665 15.3357C81.6508 15.6718 81.8039 15.7383 82.2284 16.4376C83.1104 17.8905 83.598 19.7072 83.4606 21.029C83.3481 22.1118 82.8838 23.1357 83.5479 23.0562C83.6439 23.0447 86.5774 22.6019 88.5855 23.8743C89.9454 24.7359 91.8827 26.3876 91.3798 33.2871C90.2787 48.3954 82.8736 51.6833 82.8217 51.6851C82.6964 51.6894 81.311 50.2555 81.229 50.4244C76.983 59.1683 68.2216 58.8542 63.3352 58.9461C62.3583 58.9645 58.296 55.5547 57.9536 55.788C53.6289 58.7342 52.4283 59.47 50.7608 67C50.6969 66.8806 48.4483 62.9046 48.5416 54.9081C48.6181 48.3565 52.2087 45.2646 53.805 45.4429C55.7428 45.6594 56.7153 46.6672 59.4444 48.4545C59.9316 48.7736 61.6527 49.8111 62.0444 49.8016C63.0202 49.7787 63.6858 47.9916 63.8451 46.8346C64.0057 45.6676 64.161 45.9497 63.2473 45.6362C62.0954 45.241 60.1084 43.0906 59.0892 39.7004Z" fill="#2C3B54"/>
<path fill-rule="evenodd" clip-rule="evenodd" d="M65.1117 46.6145C66.8904 45.647 76.988 42.5 77.0786 42.3025C77.1448 42.1583 65.2345 47.0423 62.5371 45.2318C62.3745 45.1227 63.1671 45.7032 63.8837 45.8497C63.9341 45.86 63.9307 47.7371 63.2517 48.7991C63.0613 49.0969 64.6987 46.8392 65.1117 46.6145Z" fill="url(#paint13_linear_10821_8939)"/>
<path fill-rule="evenodd" clip-rule="evenodd" d="M81.5648 16.8623C80.458 17.6325 78.9319 18.7087 78.6198 19.5386C78.4358 20.0281 78.3115 18.1717 79.5681 17.0658C80.276 16.4427 81.7913 16.7047 81.5648 16.8623Z" fill="url(#paint14_linear_10821_8939)"/>
<path fill-rule="evenodd" clip-rule="evenodd" d="M80.0765 23.0632C81.3319 23.4364 82.3016 22.6721 82.8332 21.0253C82.896 20.8306 82.6778 22.4675 81.8977 23.0759C81.1538 23.656 79.8119 22.9846 80.0765 23.0632Z" fill="url(#paint15_linear_10821_8939)"/>
<path fill-rule="evenodd" clip-rule="evenodd" d="M83.2633 24.7628C85.0421 23.7952 86.8633 23.9433 88.4157 24.013C89.4461 24.0593 86.4746 22.8614 83.0988 23.0487C82.7383 23.3547 81.6668 25.1397 80.1568 26.9474C79.9301 27.2188 82.8503 24.9875 83.2633 24.7628Z" fill="url(#paint16_linear_10821_8939)"/>
<path fill-rule="evenodd" clip-rule="evenodd" d="M66.3328 28.5898C67.3772 28.3755 68.6872 28.0216 69.5542 27.9345C70.2772 27.8618 71.183 27.456 71.8789 28.2022C71.4915 27.6727 70.7504 26.6033 70.5195 25.9028C70.7297 26.7259 69.7902 26.8419 69.5567 26.8789C64.3051 27.706 61.1459 29.1157 59.552 31.7374C62.5711 29.409 66.1357 28.6302 66.3328 28.5898Z" fill="url(#paint17_linear_10821_8939)"/>
<defs>
<linearGradient id="paint0_linear_10821_8939" x1="75.1548" y1="14.7849" x2="83.2974" y2="42.7329" gradientUnits="userSpaceOnUse">
<stop stop-color="#0F3060"/>
<stop offset="0.271152" stop-color="#0575CE"/>
<stop offset="0.732747" stop-color="#0575CE"/>
<stop offset="1" stop-color="#0F3060"/>
</linearGradient>
<linearGradient id="paint1_linear_10821_8939" x1="59.469" y1="50.2433" x2="49.8009" y2="66.6452" gradientUnits="userSpaceOnUse">
<stop stop-color="#092D61"/>
<stop offset="1" stop-color="#0575CE"/>
</linearGradient>
<linearGradient id="paint2_linear_10821_8939" x1="68.5373" y1="59.793" x2="74.1457" y2="23.1844" gradientUnits="userSpaceOnUse">
<stop stop-color="#0F3060"/>
<stop offset="0.456982" stop-color="#0575CE"/>
<stop offset="0.738284" stop-color="#0575CE"/>
<stop offset="1" stop-color="#0F3060"/>
</linearGradient>
<linearGradient id="paint3_linear_10821_8939" x1="71.6971" y1="51.4813" x2="66.2883" y2="28.3739" gradientUnits="userSpaceOnUse">
<stop stop-color="#FF8000"/>
<stop offset="0.662721" stop-color="#FFF4E1"/>
<stop offset="0.75" stop-color="#FFF4E1"/>
<stop offset="1" stop-color="#FF8400"/>
</linearGradient>
<linearGradient id="paint4_linear_10821_8939" x1="99.5804" y1="30.1138" x2="80.2602" y2="34.3534" gradientUnits="userSpaceOnUse">
<stop stop-color="white"/>
<stop offset="1" stop-color="white" stop-opacity="0"/>
</linearGradient>
<linearGradient id="paint5_linear_10821_8939" x1="58.7084" y1="47.4771" x2="55.3059" y2="53.0114" gradientUnits="userSpaceOnUse">
<stop stop-color="#FFC768"/>
<stop offset="0.378421" stop-color="#FF8400"/>
<stop offset="0.774204" stop-color="#FF8400"/>
<stop offset="1" stop-color="#FFC768"/>
</linearGradient>
<linearGradient id="paint6_linear_10821_8939" x1="68.2504" y1="22.6957" x2="70.9398" y2="38.605" gradientUnits="userSpaceOnUse">
<stop stop-color="white"/>
<stop offset="1" stop-color="white" stop-opacity="0"/>
</linearGradient>
<linearGradient id="paint7_linear_10821_8939" x1="73.0541" y1="37.7583" x2="76.9623" y2="45.619" gradientUnits="userSpaceOnUse">
<stop stop-color="#FF8000"/>
<stop offset="0.341448" stop-color="#FFC768"/>
<stop offset="0.71198" stop-color="#FFC768"/>
<stop offset="1" stop-color="#FF8400"/>
</linearGradient>
<linearGradient id="paint8_linear_10821_8939" x1="80.6784" y1="11.4695" x2="84.9507" y2="10.9563" gradientUnits="userSpaceOnUse">
<stop stop-color="#FF8000"/>
<stop offset="0.5" stop-color="#FFF4E1"/>
<stop offset="0.75" stop-color="#FFF4E1"/>
<stop offset="1" stop-color="#FF8400"/>
</linearGradient>
<linearGradient id="paint9_linear_10821_8939" x1="77.9003" y1="28.2121" x2="72.7854" y2="21.4198" gradientUnits="userSpaceOnUse">
<stop stop-color="#FF8000"/>
<stop offset="0.341448" stop-color="#FFC768"/>
<stop offset="0.71198" stop-color="#FFC768"/>
<stop offset="1" stop-color="#FF8400"/>
</linearGradient>
<linearGradient id="paint10_linear_10821_8939" x1="84.2714" y1="26.7914" x2="80.0582" y2="20.7586" gradientUnits="userSpaceOnUse">
<stop stop-color="white"/>
<stop offset="1" stop-color="white" stop-opacity="0"/>
</linearGradient>
<linearGradient id="paint11_linear_10821_8939" x1="62.6389" y1="27.3987" x2="76.9076" y2="22.8753" gradientUnits="userSpaceOnUse">
<stop stop-color="white"/>
<stop offset="1" stop-color="white" stop-opacity="0"/>
</linearGradient>
<linearGradient id="paint12_linear_10821_8939" x1="63.043" y1="51.7516" x2="55.8444" y2="46.6466" gradientUnits="userSpaceOnUse">
<stop stop-color="white"/>
<stop offset="1" stop-color="white" stop-opacity="0"/>
</linearGradient>
<linearGradient id="paint13_linear_10821_8939" x1="65.4504" y1="45.0118" x2="66.3499" y2="48.156" gradientUnits="userSpaceOnUse">
<stop stop-color="#212A3A"/>
<stop offset="1" stop-color="#404E67" stop-opacity="0"/>
</linearGradient>
<linearGradient id="paint14_linear_10821_8939" x1="78.5046" y1="19.6192" x2="82.0898" y2="18.7557" gradientUnits="userSpaceOnUse">
<stop stop-color="#212A3A"/>
<stop offset="1" stop-color="#404E67" stop-opacity="0"/>
</linearGradient>
<linearGradient id="paint15_linear_10821_8939" x1="81.9326" y1="23.3187" x2="80.2138" y2="23.0729" gradientUnits="userSpaceOnUse">
<stop stop-color="#212A3A"/>
<stop offset="1" stop-color="#404E67" stop-opacity="0"/>
</linearGradient>
<linearGradient id="paint16_linear_10821_8939" x1="81.8569" y1="24.4183" x2="89.076" y2="23.0177" gradientUnits="userSpaceOnUse">
<stop stop-color="#212A3A"/>
<stop offset="1" stop-color="#404E67" stop-opacity="0"/>
</linearGradient>
<linearGradient id="paint17_linear_10821_8939" x1="65.8063" y1="28.0367" x2="60.9567" y2="30.3764" gradientUnits="userSpaceOnUse">
<stop stop-color="#212A3A"/>
<stop offset="1" stop-color="#404E67" stop-opacity="0"/>
</linearGradient>
</defs>
</svg>
