<svg width="140" height="70" viewBox="0 0 140 70" fill="none" xmlns="http://www.w3.org/2000/svg">
<mask id="mask0_10887_8129" style="mask-type:luminance" maskUnits="userSpaceOnUse" x="35" y="16" width="23" height="40">
<path d="M56.3426 16.2412L47.3859 25.8413C47.3224 25.9045 47.2589 26.0308 47.3224 26.1571C47.5765 27.2308 46.8777 28.3045 45.7978 28.494C45.0991 28.6203 44.4003 28.4308 43.9557 27.9256L36.0789 35.6941C35.8248 35.9467 35.6978 36.2625 35.7613 36.5783L36.5236 46.81L44.9085 55.1469C45.1626 55.3996 45.6073 55.3996 45.8614 55.1469C45.9249 55.0838 45.9884 54.9575 46.0519 54.8312L57.1683 16.6833C57.2319 16.4307 57.1048 16.1781 56.8507 16.0518C56.6602 16.0518 56.4696 16.0518 56.3426 16.2412Z" fill="white"/>
</mask>
<g mask="url(#mask0_10887_8129)">
<path d="M57.8033 14.5361L47.3857 25.652C47.3222 25.7152 47.2586 25.8415 47.3221 25.9678C47.5762 27.0415 46.814 28.1152 45.7341 28.3679C45.0353 28.4942 44.3366 28.3047 43.8919 27.7994L35.634 36.0101L36.4598 46.8733L45.7341 56.0945L57.8033 14.5361Z" fill="#3388FF"/>
<path d="M57.6763 14.7886L47.3856 25.8413C47.3221 25.9045 47.2586 26.0308 47.3221 26.1571C47.5762 27.2308 46.8774 28.3045 45.7976 28.494C45.0988 28.6203 44.4001 28.4308 43.9554 27.9256L35.761 36.0099C35.6975 36.073 35.6975 36.073 35.6975 36.1362L36.5233 46.81L57.2316 15.736L57.6763 14.7886Z" fill="#005DE0"/>
</g>
<mask id="mask1_10887_8129" style="mask-type:luminance" maskUnits="userSpaceOnUse" x="16" y="14" width="40" height="23">
<path d="M55.6438 15.5466L45.9884 24.452C45.9249 24.5152 45.7979 24.5783 45.7343 24.5152C44.6545 24.2625 43.5746 24.9573 43.384 26.031C43.257 26.7257 43.4475 27.4204 43.9557 27.8626L36.0789 35.6942C35.8249 35.9469 35.5072 36.0732 35.1896 36.01L24.899 35.2521L16.5141 26.9152C16.26 26.6625 16.26 26.2204 16.5141 25.9678C16.5776 25.9046 16.7046 25.8415 16.8317 25.7783L55.1992 14.7256C55.4533 14.6624 55.7074 14.7887 55.7709 15.0414C55.8344 15.2308 55.7709 15.4203 55.6438 15.5466Z" fill="white"/>
</mask>
<g mask="url(#mask1_10887_8129)">
<path d="M57.3592 14.0947L46.1158 24.4527C46.0523 24.5159 45.9252 24.5791 45.7982 24.5159C44.7183 24.2633 43.6384 24.958 43.3843 26.0949C43.2573 26.7896 43.4478 27.4844 43.956 27.9896L35.6981 36.2002L24.7723 35.3792L15.5615 26.0949L57.3592 14.0947Z" fill="#46EBD5"/>
<path d="M57.1053 14.2202L45.9888 24.4519C45.9253 24.5151 45.7983 24.5782 45.7348 24.5151C44.6549 24.2624 43.575 24.9572 43.3844 26.0309C43.2574 26.7256 43.4479 27.4204 43.9561 27.8625L35.7617 36.0099C35.6982 36.0731 35.6982 36.0731 35.6347 36.0731L24.8994 35.252L56.1524 14.6623L57.1053 14.2202Z" fill="#00D0B6"/>
</g>
<path d="M85.8804 26.7889C86.7697 26.6626 87.659 26.7889 88.4848 26.7258C88.5483 26.7889 88.5483 26.9152 88.6118 26.9784L88.6753 27.1679C88.8659 27.5468 88.993 27.8626 89.0565 28.2416C89.0565 28.3047 89.12 28.3679 89.12 28.431C89.247 28.6205 89.3106 28.81 89.3106 28.9995L89.3741 29.1889C89.5011 29.3784 89.5647 29.5679 89.5647 29.7574C89.5647 29.8205 89.6282 29.8837 89.6282 29.9468C89.7552 30.1363 89.8188 30.3258 89.8188 30.5153L89.8823 30.7047C90.0093 30.8942 90.0728 31.0837 90.0728 31.2732C90.0728 31.3363 90.1364 31.3995 90.1364 31.4627C90.2634 31.6521 90.3269 31.8416 90.3269 32.0311C90.3269 32.0942 90.3904 32.1574 90.3904 32.2206C90.5175 32.41 90.581 32.5995 90.581 32.789C90.581 32.8521 90.6445 32.9153 90.6445 32.9785C90.7716 33.1679 90.8351 33.3574 90.8351 33.5469L90.8986 33.7364C91.0257 33.9258 91.0892 34.1153 91.0892 34.3048C91.0892 34.3679 91.1527 34.4311 91.1527 34.4943C91.2798 34.6837 91.3433 34.8732 91.3433 35.0627L91.4068 35.2522C91.4703 35.3153 91.4703 35.4416 91.5339 35.568C91.5339 35.6311 91.5974 35.6943 91.5974 35.7574C91.7244 35.9469 91.7879 36.1364 91.7879 36.3259C91.7879 36.389 91.8515 36.4522 91.8515 36.5153C91.9785 36.7048 92.042 36.8943 92.042 37.0838C92.042 37.1469 92.1056 37.2101 92.1056 37.2732C92.2326 37.4627 92.2961 37.6522 92.2961 37.8417L92.3596 38.0311C92.4867 38.2206 92.5502 38.4101 92.5502 38.5996C92.5502 38.6627 92.6137 38.7259 92.6137 38.789C92.7408 38.9785 92.8043 39.168 92.8043 39.3575C92.8043 39.4206 92.8678 39.4838 92.8678 39.547C92.9949 39.7364 93.0584 39.9259 93.0584 40.1154C93.0584 40.1785 93.1219 40.2417 93.1219 40.3049C93.249 40.4943 93.3125 40.6838 93.3125 40.8733C93.3125 40.9364 93.376 40.9996 93.376 41.0628C93.503 41.2522 93.5666 41.4417 93.5666 41.6312L93.6301 41.8207C93.7571 42.0733 93.8207 42.3259 93.9477 42.5786C93.0584 42.5786 92.2326 42.5786 91.3433 42.5786C91.2162 42.3891 91.1527 42.1365 91.0892 41.8838L90.9621 41.6943V41.6312L90.8986 41.4417C90.8351 41.3154 90.7716 41.2522 90.7716 41.1259C90.7716 41.0628 90.7081 40.9996 90.7081 40.9364V40.8733C90.7081 40.8101 90.6445 40.747 90.6445 40.6838C90.5175 40.4943 90.454 40.3049 90.454 40.0522L90.3269 39.8627V39.7996C90.3269 39.7364 90.2634 39.6733 90.2634 39.6101C90.1999 39.4838 90.1999 39.4206 90.1364 39.2943L90.0093 39.1048V39.0417L89.9458 38.8522C89.8188 38.6627 89.7552 38.4733 89.7552 38.2206C89.7552 38.1575 89.7552 38.0943 89.7552 38.0943H89.6917C89.4376 38.0311 89.1835 37.968 88.8659 38.0311C87.0238 38.0311 85.1816 38.0311 83.3395 38.0311H83.2759L83.2124 38.1575C83.1489 38.3469 83.0854 38.5996 83.0219 38.789C83.0219 38.8522 82.9583 38.9154 82.9583 38.9785C82.8948 39.168 82.8313 39.4206 82.7678 39.547L82.7042 39.7364V39.7996C82.7042 39.8627 82.6407 39.9259 82.6407 39.9891C82.6407 40.1154 82.5772 40.2417 82.5137 40.3049C82.5137 40.368 82.4502 40.4312 82.4502 40.4943V40.5575L82.3231 40.747C82.2596 40.9364 82.1961 41.1891 82.1325 41.3786C82.1325 41.4417 82.069 41.5049 82.069 41.568C82.0055 41.7575 81.942 42.0101 81.8785 42.1996L81.8149 42.3891C81.8149 42.5154 81.7514 42.5786 81.6879 42.6417C80.8621 42.6417 79.9728 42.6417 79.147 42.6417C79.2105 42.4522 79.274 42.2628 79.3376 42.0733C79.3376 42.0101 79.4011 41.947 79.4011 41.8838C79.4646 41.6943 79.5281 41.5049 79.5916 41.3154L79.6552 41.1259C79.6552 40.9996 79.7187 40.9364 79.7822 40.8101C79.7822 40.747 79.8457 40.6838 79.8457 40.6207C79.9093 40.4312 79.9728 40.2417 80.0363 40.0522C80.0363 39.9891 80.0998 39.9259 80.0998 39.8627C80.1634 39.6733 80.2269 39.4838 80.2904 39.2943C80.2904 39.2312 80.3539 39.168 80.3539 39.1048C80.4174 38.9154 80.481 38.7259 80.5445 38.5364L80.608 38.3469C80.6715 38.1575 80.735 37.968 80.7986 37.7785C80.7986 37.7154 80.8621 37.6522 80.8621 37.589C80.9256 37.3996 80.9891 37.2101 81.0527 37.0206L81.1162 36.8311C81.1162 36.7048 81.1797 36.6417 81.2432 36.5153L81.3703 36.3259C81.4338 36.1364 81.4973 35.9469 81.5608 35.7574C81.5608 35.6943 81.6244 35.6311 81.6244 35.568C81.6879 35.3785 81.7514 35.189 81.8149 34.9995C81.8149 34.9364 81.8785 34.8732 81.8785 34.8101C81.942 34.6206 82.0055 34.4311 82.069 34.2416L82.1325 34.0522C82.1325 33.8627 82.1961 33.6732 82.2596 33.4837C82.2596 33.4206 82.3231 33.3574 82.3231 33.2943C82.3866 33.1048 82.4502 32.9153 82.5137 32.7258L82.5772 32.5363C82.5772 32.41 82.6407 32.3469 82.7042 32.2206L82.7678 32.0311C82.8313 31.8416 82.8948 31.6521 82.9583 31.4627C82.9583 31.3995 83.0219 31.3363 83.0219 31.2732C83.0854 31.0837 83.1489 30.8942 83.2124 30.7047C83.2124 30.6416 83.2759 30.5784 83.2759 30.5153C83.3395 30.3258 83.403 30.1363 83.4665 29.9468C83.4665 29.8837 83.53 29.8205 83.53 29.7574C83.5936 29.5679 83.6571 29.3784 83.7206 29.1889C83.7206 29.1258 83.7841 29.0626 83.7841 28.9995C83.9112 28.6205 84.0382 28.2416 84.1653 27.9258C84.1653 27.8626 84.2288 27.7995 84.2288 27.7363C84.2923 27.5468 84.3558 27.3573 84.4194 27.1679C84.4194 27.1047 84.4829 27.0415 84.4829 26.9784C85.8804 27.0415 85.8804 26.9152 85.8804 26.7889ZM87.1508 29.4416L87.0238 29.5679L87.0873 29.6311C87.0873 29.6942 87.0873 29.7574 87.0873 29.8205H87.0238V29.9468L87.0873 30.01C87.0238 30.1363 86.9602 30.3258 86.9602 30.5153H86.8967L86.8332 30.6416L86.8967 30.7047C86.7697 30.9574 86.7062 31.21 86.7062 31.4627H86.5791L86.5156 31.5258L86.5791 31.589C86.4521 31.8416 86.325 32.1574 86.2615 32.4732H86.198L86.1345 32.5363L86.198 32.5995V32.6627H86.1345L86.0709 32.789L86.1345 32.8521C86.0074 33.1048 85.8804 33.4206 85.8168 33.7364H85.7533L85.6898 33.8627L85.7533 33.9258V33.989H85.6898V34.1153L85.7533 34.1785C85.6263 34.4311 85.4992 34.7469 85.4357 35.0627H85.3722L85.3087 35.189L85.3722 35.2522V35.3153H85.3087L85.2451 35.4416L85.3087 35.5048C85.2451 35.6311 85.1816 35.8206 85.1181 36.0101C86.7062 36.0101 88.3577 36.0101 89.9458 36.0101C89.8823 35.7574 89.7552 35.5048 89.6282 35.2522L89.6917 35.189L89.6282 35.0627H89.5647V34.9995L89.6282 34.9364L89.5647 34.8101H89.5011C89.5011 34.5574 89.4376 34.3679 89.3106 34.1785L89.3741 34.1153L89.3106 33.989H89.247V33.9258L89.3106 33.8627L89.1835 33.7364L89.247 33.6732L89.1835 33.61H89.12C89.12 33.3574 88.993 33.1679 88.9294 32.9785L88.993 32.9153L88.9294 32.789H88.8659V32.7258L88.9294 32.6627L88.4848 32.4732L88.5483 32.41L88.4848 32.3469H88.4213C88.4213 32.0942 88.2942 31.9048 88.2307 31.7153L88.2942 31.6521L88.2307 31.5258H88.1672V31.4627L88.2307 31.3995L88.1672 31.2732H88.1036C88.1036 31.0205 87.9766 30.7047 87.8496 30.4521L87.9131 30.389L87.8496 30.2626H87.786V30.1995L87.8496 30.1363L87.786 30.01H87.7225C87.7225 29.8205 87.659 29.6311 87.5955 29.5047L87.659 29.4416L87.5955 29.3153H87.5319C87.5319 29.3784 87.4684 29.4416 87.4684 29.5047M69.301 26.9784C70.1268 26.9152 70.9526 26.9784 71.7784 26.9784C71.7784 31.6521 71.7784 36.389 71.7784 41.0628C74.1287 41.0628 76.4155 41.0628 78.7659 41.0628C78.7659 41.7575 78.7659 42.4523 78.7659 43.147C75.5897 43.147 72.4771 43.147 69.3645 43.147C69.3645 39.3575 69.3645 35.5048 69.3645 31.7153C69.3645 30.1363 69.301 28.5574 69.301 26.9784ZM97.0603 26.9784C98.7754 26.9784 100.491 26.9784 102.206 26.9784C102.396 26.9784 102.523 26.9784 102.714 27.0415C102.904 27.1047 103.095 27.1047 103.285 27.1047L103.603 27.1679C103.73 27.231 103.857 27.231 103.984 27.231H104.175L104.365 27.2942H104.556L104.747 27.3573H104.81L105.001 27.4205C106.271 27.7995 107.287 28.8731 107.541 30.1995C107.541 30.3258 107.541 30.389 107.605 30.4521C107.605 30.5153 107.605 30.6416 107.605 30.6416C107.605 30.8311 107.605 31.0837 107.669 31.2732C107.669 31.4626 107.669 31.589 107.669 31.7784C107.605 31.9679 107.605 32.2206 107.605 32.41V32.5995C107.541 32.6627 107.541 32.789 107.541 32.9153V32.9785L107.478 33.1679C107.16 34.0522 106.589 34.7469 105.763 35.189C105.445 35.3785 105.128 35.568 104.747 35.6943L104.619 35.7574V35.8206C104.747 36.1364 104.874 36.389 105.064 36.6417C106.398 38.789 107.732 40.8733 109.066 42.9575H106.271C104.937 40.8101 103.667 38.5996 102.333 36.389C101.38 36.3259 100.427 36.3259 99.4742 36.3259C99.4106 38.5364 99.4742 40.6838 99.4742 42.8944C98.6484 42.9575 97.8226 42.8944 96.9968 42.8944C97.0603 39.9259 96.9968 36.8943 96.9968 33.9258C96.9968 31.5258 96.9968 29.0626 96.9968 26.6626M99.5377 28.9363C99.5377 30.7679 99.5377 32.5995 99.5377 34.4943C100.109 34.4943 100.681 34.4943 101.316 34.4943C101.761 34.4943 102.206 34.4943 102.65 34.4311L102.841 34.3679C102.968 34.4943 103.031 34.4311 103.095 34.3048H103.285L103.349 34.3679L103.476 34.3048V34.2416C104.111 34.1153 104.683 33.6732 104.937 33.0416H105.001L105.064 32.9785V32.9153V32.8521L105.191 32.7258L105.128 32.6627V32.5363C105.318 32.5363 105.318 32.2206 105.191 32.1574C105.255 31.9048 105.255 31.589 105.191 31.3363C105.318 31.2732 105.318 30.9574 105.128 30.9574C105.001 30.0732 104.302 29.3784 103.476 29.2521V29.1889L103.413 29.1258L103.349 29.1889H103.222C103.222 28.9995 102.904 28.9995 102.841 29.1258C102.714 29.0626 102.587 29.0626 102.396 29.0626L102.46 28.9995C101.507 28.9363 100.554 28.9363 99.5377 28.9363ZM111.543 26.8521C112.369 26.8521 113.195 26.8521 114.021 26.8521C114.084 29.4416 114.021 32.0311 114.021 34.6837L114.148 34.4943C116.371 31.9679 118.594 29.3784 120.754 26.8521C121.707 26.8521 122.66 26.8521 123.613 26.8521C121.516 29.1889 119.42 31.589 117.387 33.9258C117.769 34.5574 118.213 35.1258 118.594 35.6943C120.309 38.1575 122.025 40.6207 123.74 43.0838H121.199C121.072 43.0838 120.881 43.0838 120.818 42.9575C119.039 40.4943 117.324 38.0311 115.545 35.6311C114.974 36.0101 114.529 36.4522 113.957 36.8943C113.83 37.9048 113.957 38.8522 113.894 39.8627C113.83 40.8733 113.894 42.0101 113.894 43.0838C113.068 43.0838 112.242 43.0838 111.416 43.0838C111.607 37.7154 111.607 32.2837 111.543 26.8521Z" fill="#18263C"/>
</svg>
