<svg width="36" height="36" viewBox="0 0 36 36" fill="none" xmlns="http://www.w3.org/2000/svg">
<path fill-rule="evenodd" clip-rule="evenodd" d="M29.4001 18.0001C29.4001 24.2961 24.2961 29.4001 18.0001 29.4001C11.7041 29.4001 6.6001 24.2961 6.6001 18.0001C6.6001 11.7041 11.7041 6.6001 18.0001 6.6001C24.2961 6.6001 29.4001 11.7041 29.4001 18.0001ZM18.0001 27.0001C22.9707 27.0001 27.0001 22.9707 27.0001 18.0001C27.0001 13.0295 22.9707 9.0001 18.0001 9.0001C13.0295 9.0001 9.0001 13.0295 9.0001 18.0001C9.0001 22.9707 13.0295 27.0001 18.0001 27.0001Z" fill="black"/>
<path fill-rule="evenodd" clip-rule="evenodd" d="M19.2 3.2998V16.7998H32.7V19.1998H19.2V32.6998H16.8V19.1998H3.30005V16.7998H16.8V3.2998H19.2Z" fill="#1C1D20"/>
<path fill-rule="evenodd" clip-rule="evenodd" d="M25.8 3.2998H31.5C32.1628 3.2998 32.7 3.83706 32.7 4.4998V10.1998H30.3V5.6998H25.8V3.2998Z" fill="black"/>
<path fill-rule="evenodd" clip-rule="evenodd" d="M10.2 3.2998H4.49995C3.83721 3.2998 3.29995 3.83706 3.29995 4.4998V10.1998H5.69995V5.6998H10.2V3.2998Z" fill="black"/>
<path fill-rule="evenodd" clip-rule="evenodd" d="M10.2 32.7002H4.49995C3.83721 32.7002 3.29995 32.1629 3.29995 31.5002V25.8002H5.69995V30.3002H10.2V32.7002Z" fill="black"/>
<path fill-rule="evenodd" clip-rule="evenodd" d="M25.8 32.7002H31.5C32.1628 32.7002 32.7 32.1629 32.7 31.5002V25.8002H30.3V30.3002H25.8V32.7002Z" fill="black"/>
</svg>
