<svg width="36" height="36" viewBox="0 0 36 36" fill="none" xmlns="http://www.w3.org/2000/svg">
<path fill-rule="evenodd" clip-rule="evenodd" d="M10.7998 3.2998H25.1998V5.6998H10.7998V3.2998ZM17.9998 10.1998C12.0351 10.1998 7.1998 15.0351 7.1998 20.9998C7.1998 26.9645 12.0351 31.7998 17.9998 31.7998C23.9645 31.7998 28.7998 26.9645 28.7998 20.9998C28.7998 15.0351 23.9645 10.1998 17.9998 10.1998ZM4.7998 20.9998C4.7998 17.0231 6.5583 13.4572 9.3401 11.0371L7.30279 8.99982L8.99984 7.30276L11.3133 9.61621C13.2743 8.46189 15.5597 7.7998 17.9998 7.7998C20.4399 7.7998 22.7254 8.46191 24.6864 9.61627L26.9999 7.30276L28.697 8.99982L26.6596 11.0372C29.4413 13.4572 31.1998 17.0232 31.1998 20.9998C31.1998 28.29 25.29 34.1998 17.9998 34.1998C10.7096 34.1998 4.7998 28.29 4.7998 20.9998ZM22.4999 19.4998H18.7499L19.4992 12.7432L13.4999 22.501H17.2499L16.5004 29.251L22.4999 19.4998Z" fill="#1C1D20"/>
</svg>
