<svg width="16" height="17" viewBox="0 0 16 17" fill="none" xmlns="http://www.w3.org/2000/svg">
<path d="M7.99967 1.83325C8.36787 1.83325 8.66633 2.13173 8.66633 2.49992V4.49992C8.66633 4.86811 8.36787 5.16658 7.99967 5.16658C7.63147 5.16658 7.333 4.86811 7.333 4.49992V2.49992C7.333 2.13173 7.63147 1.83325 7.99967 1.83325ZM7.99967 11.8333C8.36787 11.8333 8.66633 12.1317 8.66633 12.4999V14.4999C8.66633 14.8681 8.36787 15.1666 7.99967 15.1666C7.63147 15.1666 7.333 14.8681 7.333 14.4999V12.4999C7.333 12.1317 7.63147 11.8333 7.99967 11.8333ZM13.7731 5.16658C13.9573 5.48545 13.848 5.89317 13.5291 6.07727L11.7971 7.07727C11.4782 7.26138 11.0705 7.15211 10.8864 6.83325C10.7023 6.51439 10.8115 6.10667 11.1304 5.92257L12.8625 4.92256C13.1813 4.73847 13.5891 4.84773 13.7731 5.16658ZM5.1129 10.1666C5.29699 10.4855 5.18774 10.8932 4.86888 11.0773L3.13683 12.0773C2.81797 12.2614 2.41024 12.1521 2.22615 11.8333C2.04205 11.5144 2.1513 11.1067 2.47017 10.9226L4.20221 9.92258C4.52107 9.73845 4.9288 9.84772 5.1129 10.1666ZM13.7731 11.8333C13.5891 12.1521 13.1813 12.2614 12.8625 12.0773L11.1304 11.0773C10.8115 10.8932 10.7023 10.4855 10.8864 10.1666C11.0705 9.84772 11.4782 9.73845 11.7971 9.92258L13.5291 10.9226C13.848 11.1067 13.9573 11.5144 13.7731 11.8333ZM5.1129 6.83325C4.9288 7.15211 4.52107 7.26138 4.20221 7.07727L2.47017 6.07727C2.1513 5.89317 2.04205 5.48545 2.22615 5.16658C2.41024 4.84773 2.81797 4.73847 3.13683 4.92256L4.86888 5.92257C5.18774 6.10667 5.29699 6.51439 5.1129 6.83325Z" fill="url(#paint0_angular_448_9576)"/>
<defs>
<radialGradient id="paint0_angular_448_9576" cx="0" cy="0" r="1" gradientUnits="userSpaceOnUse" gradientTransform="translate(7.99965 8.49992) rotate(70.0145) scale(7.80325 7.75178)">
<stop stop-color="#3b82f6"/>
<stop offset="0.335" stop-color="#6366f1"/>
<stop offset="0.665" stop-color="#0ea5e9"/>
<stop offset="1" stop-color="#06b6d4"/>
</radialGradient>
</defs>
</svg>
