<svg width="140" height="70" viewBox="0 0 140 70" fill="none" xmlns="http://www.w3.org/2000/svg">
<g clip-path="url(#clip0_10887_8122)">
<path d="M70 59C83.2548 59 94 48.2548 94 35C94 21.7452 83.2548 11 70 11C56.7452 11 46 21.7452 46 35C46 48.2548 56.7452 59 70 59Z" fill="url(#paint0_linear_10887_8122)"/>
<path d="M62.2458 36.7542L65.0933 44.6354C65.0933 44.6354 65.4493 45.3728 65.8305 45.3728C66.2117 45.3728 71.8815 39.4744 71.8815 39.4744L78.1865 27.2964L62.3475 34.7198L62.2458 36.7542Z" fill="#C8DAEA"/>
<path d="M66.0213 38.7754L65.4747 44.5846C65.4747 44.5846 65.2459 46.3646 67.0255 44.5846C68.8051 42.8046 70.5085 41.432 70.5085 41.432" fill="#A9C6D8"/>
<path d="M62.2972 37.0356L56.44 35.1272C56.44 35.1272 55.74 34.8432 55.9654 34.1992C56.0118 34.0664 56.1054 33.9534 56.3854 33.7592C57.6832 32.8546 80.4066 24.6872 80.4066 24.6872C80.4066 24.6872 81.0482 24.471 81.4266 24.6148C81.5202 24.6438 81.6044 24.6971 81.6707 24.7693C81.7369 24.8415 81.7828 24.93 81.8036 25.0258C81.8445 25.1949 81.8616 25.3689 81.8544 25.5428C81.8526 25.6932 81.8344 25.8326 81.8206 26.0512C81.6822 28.2842 77.5406 44.9498 77.5406 44.9498C77.5406 44.9498 77.2928 45.925 76.405 45.9584C76.1868 45.9654 75.9694 45.9285 75.7658 45.8497C75.5623 45.771 75.3766 45.652 75.22 45.5C73.4778 44.0014 67.4562 39.9546 66.1256 39.0646C66.0956 39.0441 66.0703 39.0175 66.0514 38.9864C66.0326 38.9554 66.0206 38.9206 66.0164 38.8846C65.9978 38.7908 66.0998 38.6746 66.0998 38.6746C66.0998 38.6746 76.585 29.3546 76.864 28.3762C76.8856 28.3004 76.804 28.263 76.6944 28.2962C75.998 28.5524 63.9256 36.1762 62.5932 37.0176C62.4973 37.0466 62.3959 37.0528 62.2972 37.0356Z" fill="white"/>
</g>
<defs>
<linearGradient id="paint0_linear_10887_8122" x1="70" y1="59" x2="70" y2="11" gradientUnits="userSpaceOnUse">
<stop stop-color="#1D93D2"/>
<stop offset="1" stop-color="#38B0E3"/>
</linearGradient>
<clipPath id="clip0_10887_8122">
<rect width="48" height="48" fill="white" transform="translate(46 11)"/>
</clipPath>
</defs>
</svg>
