<svg width="64" height="64" viewBox="0 0 64 64" fill="none" xmlns="http://www.w3.org/2000/svg">
<path d="M8 17C8 16.4477 8.44772 16 9 16H55C55.5523 16 56 16.4477 56 17V45.3333H8V17Z" fill="#0ea5e9"/>
<circle cx="20" cy="25.3335" r="4" fill="white"/>
<path d="M13.3333 33C13.3333 32.4477 13.781 32 14.3333 32H25.6666C26.2189 32 26.6666 32.4477 26.6666 33V40H13.3333V33Z" fill="white"/>
<rect x="2.66663" y="45.3335" width="58.6667" height="5.33334" fill="#60a5fa"/>
<path d="M53.3333 11.2667C53.3333 10.9354 53.0646 10.6667 52.7333 10.6667H29.9333C29.6019 10.6667 29.3333 10.9354 29.3333 11.2667V31.6859L34.1333 28.4001H52.1333C52.796 28.4001 53.3333 27.8628 53.3333 27.2001V11.2667Z" fill="#60a5fa"/>
<circle cx="1.86667" cy="1.86667" r="1.86667" transform="matrix(1 0 0 -1 33.6002 21.0667)" fill="#0ea5e9"/>
<circle cx="1.86667" cy="1.86667" r="1.86667" transform="matrix(1 0 0 -1 39.4669 21.0667)" fill="#0ea5e9"/>
<circle cx="1.86667" cy="1.86667" r="1.86667" transform="matrix(1 0 0 -1 45.3335 21.0667)" fill="#0ea5e9"/>
</svg>
