<svg width="64" height="64" viewBox="0 0 64 64" fill="none" xmlns="http://www.w3.org/2000/svg">
<path d="M10.6666 17C10.6666 16.4477 11.1143 16 11.6666 16H34.6666L45.3333 26.6667V55C45.3333 55.5523 44.8856 56 44.3333 56H11.6666C11.1143 56 10.6666 55.5523 10.6666 55V17Z" fill="#60a5fa"/>
<path d="M21.3333 9C21.3333 8.44771 21.781 8 22.3333 8H45.3333L55.9999 18.6667V47C55.9999 47.5523 55.5522 48 54.9999 48H22.3333C21.781 48 21.3333 47.5523 21.3333 47V9Z" fill="#0ea5e9"/>
<path d="M45.3333 8L55.9999 18.6667H45.3333V8Z" fill="#60a5fa"/>
<path d="M26.6666 26.6667H30.6666V30.6667H26.6666V26.6667Z" fill="white"/>
<path d="M34.6666 26.6667H48V30.6667H34.6666V26.6667Z" fill="white"/>
<path d="M26.6666 34.6667H30.6666V38.6667H26.6666V34.6667Z" fill="white"/>
<path d="M34.6666 34.6667H50.6666V38.6667H34.6666V34.6667Z" fill="white"/>
</svg>
