<svg width="336" height="16" viewBox="0 0 336 16" fill="none" xmlns="http://www.w3.org/2000/svg">
<path d="M8.04445 10.32C8.04445 8.9611 7.41032 8.28167 6.14205 8.28167H4.26682C4.26682 7.0134 4.36647 6.01691 4.56577 5.29218C4.76507 4.56745 5.15461 3.97861 5.73439 3.52566C6.58594 2.85529 6.68559 2.17586 6.03334 1.48737L5.00061 0.373104C4.47518 -0.188558 3.75046 -0.116086 2.82643 0.590522C1.55816 1.5689 0.770021 2.85529 0.462013 4.44969C0.154004 6.02596 0 7.98272 0 10.32V13.9617C0 15.3206 0.634135 16 1.9024 16H6.14205C7.41032 16 8.04445 15.3206 8.04445 13.9617V10.32Z" fill="currentColor"/>
<path d="M18.0889 10.32C18.0889 8.9611 17.4548 8.28167 16.1865 8.28167H14.3113C14.3113 7.0134 14.4109 6.01691 14.6102 5.29218C14.8095 4.56745 15.199 3.97861 15.7788 3.52566C16.6304 2.85529 16.73 2.17586 16.0778 1.48737L15.045 0.373104C14.5196 -0.188558 13.7949 -0.116086 12.8709 0.590522C11.6026 1.5689 10.8145 2.85529 10.5064 4.44969C10.1984 6.02596 10.0444 7.98272 10.0444 10.32V13.9617C10.0444 15.3206 10.6786 16 11.9468 16H16.1865C17.4548 16 18.0889 15.3206 18.0889 13.9617V10.32Z" fill="currentColor"/>
</svg>
