<svg width="146" height="70" viewBox="0 0 146 70" fill="none" xmlns="http://www.w3.org/2000/svg">
<path d="M6.71678 35.639L5.70388 41.3184H0.122559L3.07859 25.0602H11.1198C12.1741 25.0402 13.2283 25.1202 14.2619 25.2601C15.0061 25.3601 15.7089 25.5801 16.3704 25.9201C16.8665 26.1601 17.2593 26.54 17.5487 27.02C17.8174 27.4999 17.9414 28.0399 17.9208 28.5798C17.9208 28.9598 17.8794 29.3197 17.7967 29.6797C17.6314 30.5796 17.2386 31.4395 16.6598 32.1594C16.0396 32.8993 15.1921 33.4193 14.2412 33.6393C14.572 33.7592 14.882 33.8792 15.1508 34.0192C15.4195 34.1392 15.6676 34.2992 15.8743 34.4992C16.081 34.6991 16.2257 34.9591 16.329 35.2191C16.4531 35.579 16.5151 35.939 16.5151 36.319C16.4944 36.8589 16.4531 37.4188 16.329 37.9588L16.0396 39.3986C15.9776 39.6986 15.957 39.9986 15.957 40.2985C15.957 40.6385 16.1017 40.8385 16.4117 40.8385L16.329 41.3384H10.665C10.6444 41.1584 10.6237 40.9985 10.6237 40.8185C10.6237 40.5585 10.6444 40.2385 10.6857 39.8386C10.7271 39.4386 10.7684 38.9787 10.8924 38.4987C10.9751 38.0788 11.0165 37.6388 11.0165 37.2189C11.0578 36.7389 10.8511 36.279 10.4583 35.999C9.81751 35.719 9.11468 35.599 8.41185 35.659C8.41185 35.639 6.71678 35.639 6.71678 35.639ZM7.37827 32.0794H9.56945C10.2723 32.0994 10.9544 31.9794 11.5953 31.7395C12.0707 31.5195 12.4015 31.0795 12.4635 30.5596C12.4841 30.4396 12.4841 30.3196 12.4841 30.2196C12.5048 29.8197 12.2981 29.4197 11.9467 29.1997C11.5126 28.9598 11.0371 28.8398 10.541 28.8598H7.9364L7.37827 32.0794ZM25.7139 29.4797H30.2203L29.8896 31.3195C30.4891 30.6596 31.1919 30.1196 31.9774 29.6797C32.7423 29.2997 33.5898 29.1197 34.458 29.1397C35.5536 29.0397 36.6698 29.3797 37.5174 30.0596C38.1995 30.7996 38.551 31.7795 38.4683 32.7593C38.4683 33.2593 38.4269 33.7392 38.3236 34.2192L37.0419 41.2984H32.1428L33.2797 35.0591C33.3211 34.7991 33.3417 34.5392 33.3417 34.2792C33.3624 33.9192 33.259 33.5593 33.0523 33.2593C32.7836 32.9593 32.3702 32.7993 31.9567 32.8593C31.3366 32.7993 30.7164 33.0393 30.303 33.4993C29.9103 34.0192 29.6622 34.6391 29.5795 35.2991L28.5046 41.3184H23.5848L25.7139 29.4797ZM43.078 41.6384V41.6984C43.078 41.8784 43.1607 42.0384 43.2847 42.1583C43.5535 42.3983 43.9256 42.4983 44.2976 42.4583C44.8764 42.4983 45.4553 42.3183 45.8894 41.9384C46.3235 41.4384 46.5922 40.8185 46.6749 40.1586L46.8609 39.1987C46.4061 39.5586 45.8894 39.8586 45.3519 40.0786C44.6284 40.3585 43.8635 40.4785 43.078 40.4585C42.4165 40.4585 41.755 40.3585 41.1349 40.1186C40.6181 39.9186 40.1427 39.5986 39.7499 39.1987C39.3778 38.7987 39.0884 38.3188 38.9024 37.7988C38.7163 37.2389 38.6336 36.6389 38.6336 36.059C38.6336 35.859 38.6336 35.659 38.6543 35.4591L38.737 34.8591C38.861 34.1192 39.0884 33.3793 39.3985 32.6794C39.7086 31.9794 40.1427 31.3195 40.7008 30.7596C41.2589 30.1796 41.9411 29.7197 42.6853 29.3797C43.5328 29.0197 44.4423 28.8398 45.3519 28.8598C46.0547 28.8398 46.7576 29.0197 47.3777 29.3597C47.9565 29.6997 48.432 30.1596 48.7834 30.7196L49.0521 29.1797H53.3725L51.636 38.6987C51.4913 39.5386 51.2846 40.3585 51.0366 41.1784C50.7885 41.9184 50.3958 42.5983 49.8583 43.1782C49.2588 43.7982 48.494 44.2581 47.6671 44.5181C45.5793 45.078 43.3881 45.158 41.2796 44.7181C40.6388 44.5781 40.0393 44.3381 39.4812 43.9981C39.0471 43.7382 38.7163 43.3782 38.4683 42.9583C38.2616 42.5783 38.1582 42.1583 38.1582 41.7384V41.5984H43.0987L43.078 41.6384ZM45.9927 32.1794C45.662 32.1794 45.3519 32.2394 45.0625 32.3794C44.7938 32.5194 44.5664 32.6994 44.3803 32.9393C44.1736 33.1993 44.0289 33.4993 43.9049 33.8192C43.7809 34.1592 43.6982 34.4992 43.6362 34.8591C43.6362 34.9791 43.6155 35.0791 43.6155 35.1591L43.5948 35.4191C43.5741 35.859 43.6982 36.279 43.9462 36.6389C44.2356 36.9989 44.6904 37.1989 45.1452 37.1589H45.2692C45.6 37.1589 45.91 37.0989 46.1994 36.9589C46.4682 36.8189 46.7162 36.6389 46.9229 36.419C47.1296 36.179 47.2743 35.919 47.3984 35.639C47.5224 35.3391 47.6258 35.0391 47.6878 34.7191C47.7291 34.4592 47.7498 34.2192 47.7498 33.9592C47.7705 33.4993 47.6258 33.0593 47.3777 32.6794C47.0676 32.2994 46.5508 32.0994 46.0547 32.1594L45.9927 32.1794ZM17.2179 41.2984L20.0086 31.6995H23.5641L22.1171 41.2984H17.2179Z" fill="#0073AE"/>
<path d="M64.8659 31.4193C64.8659 31.3593 64.8659 31.3193 64.8865 31.2593C64.8865 31.2193 64.8865 31.1593 64.8865 31.1193C64.9279 30.4994 64.7005 29.8995 64.2664 29.4595C63.7703 29.0596 63.1294 28.8596 62.468 28.8996C61.5377 28.8996 60.6489 29.3195 60.0701 30.0395C59.3259 31.0194 58.8504 32.1792 58.6851 33.3991C58.623 33.6791 58.5817 33.959 58.5404 34.219C58.5197 34.479 58.499 34.719 58.499 34.9789C58.499 35.3389 58.5404 35.6789 58.6231 36.0188C58.7057 36.3188 58.8504 36.5988 59.0572 36.8187C59.2845 37.0587 59.5533 37.2587 59.8633 37.3787C60.2561 37.5187 60.6902 37.5987 61.1036 37.5787C61.8685 37.6186 62.592 37.3387 63.1501 36.8387C63.6669 36.3188 64.0597 35.6789 64.2664 34.9789H69.3309C69.0622 35.9388 68.6281 36.8387 68.0493 37.6586C67.5118 38.4186 66.8503 39.0985 66.0648 39.6584C65.2793 40.1984 64.4111 40.6183 63.5015 40.8983C61.5171 41.4782 59.4086 41.4782 57.4034 40.9183C56.5766 40.6583 55.791 40.2384 55.1296 39.6784C54.5094 39.1385 54.034 38.4586 53.7239 37.6986C53.3932 36.8587 53.2278 35.9588 53.2485 35.0789C53.2485 34.799 53.2691 34.499 53.2898 34.199C53.3105 33.899 53.3725 33.5791 53.4345 33.2391C53.6412 32.0592 54.0546 30.9194 54.6748 29.8795C55.2329 28.9196 55.9771 28.0797 56.8246 27.3597C57.6515 26.6398 58.6231 26.0799 59.6566 25.6999C60.6902 25.32 61.7858 25.12 62.9021 25.12C65.2379 25.12 66.995 25.6199 68.1526 26.5998C69.3309 27.6597 69.9717 29.1796 69.889 30.7594V31.0793C69.889 31.1793 69.8684 31.2993 69.8684 31.3993L64.8659 31.4193ZM75.0156 36.1188L74.9742 36.3388C74.9742 36.4188 74.9742 36.4988 74.9742 36.5788C74.9536 37.0987 75.1603 37.5987 75.553 37.9386C75.9665 38.2786 76.4833 38.4586 77.0207 38.4386C77.4135 38.4386 77.8062 38.3386 78.1577 38.1786C78.5297 37.9986 78.8398 37.7386 79.0672 37.3987H83.7803C83.4702 38.0986 82.9948 38.7185 82.4367 39.2585C81.8785 39.7584 81.2584 40.1584 80.5762 40.4783C79.8941 40.7783 79.1706 40.9983 78.4264 41.1183C77.7029 41.2383 76.9587 41.2983 76.2145 41.2983C75.3877 41.2983 74.5815 41.1983 73.796 40.9783C73.0931 40.7983 72.4523 40.4783 71.8735 40.0384C71.3361 39.6184 70.9019 39.0985 70.6125 38.4986C70.3025 37.8386 70.1578 37.1187 70.1578 36.3988C70.1578 36.1988 70.1784 35.9988 70.1991 35.7988C70.1991 35.5989 70.2405 35.3989 70.2611 35.1989C70.4265 34.259 70.7572 33.3791 71.274 32.5792C71.7702 31.7993 72.3903 31.1393 73.1345 30.5794C73.8787 30.0195 74.7055 29.5995 75.5944 29.2995C76.5039 28.9996 77.4755 28.8396 78.4471 28.8396C79.3359 28.8196 80.2455 28.9596 81.093 29.2395C81.7959 29.4795 82.4573 29.8595 83.0155 30.3794C83.5323 30.8794 83.9457 31.4793 84.1937 32.1392C84.4625 32.8592 84.6072 33.6391 84.6072 34.399C84.5865 34.9789 84.5245 35.5589 84.4005 36.1388L75.0156 36.1188ZM79.8941 33.7191C79.9147 33.6191 79.9147 33.4991 79.9147 33.3791C79.9354 32.9192 79.7494 32.4792 79.3979 32.1592C79.0465 31.8393 78.5918 31.6593 78.0956 31.6593C77.4548 31.6193 76.814 31.8193 76.2972 32.1992C75.8218 32.5792 75.5117 33.0991 75.3877 33.6791L79.8941 33.7191ZM86.1575 29.4995H90.6639L90.3125 31.3393C90.912 30.6794 91.6355 30.1394 92.421 29.6995C93.1859 29.3195 94.0541 29.1196 94.9223 29.1596C96.0179 29.0596 97.1135 29.3995 97.961 30.0795C98.6638 30.8194 99.0152 31.7793 98.9326 32.7792C98.9326 33.2791 98.8705 33.7591 98.7879 34.239L97.5269 41.3183H92.6071L93.7233 35.0789C93.7647 34.8189 93.7853 34.559 93.7853 34.299C93.806 33.939 93.7027 33.5791 93.4959 33.2791C93.2272 32.9791 92.8138 32.8392 92.4004 32.8792C91.7802 32.8192 91.1601 33.0591 90.7466 33.5191C90.3539 34.059 90.1265 34.659 90.0438 35.3189L88.9689 41.3383H84.049L86.1575 29.4995ZM106.581 41.2183C106.044 41.2583 105.527 41.2783 105.051 41.2983C104.576 41.3183 104.142 41.3183 103.77 41.3183C103.15 41.3183 102.529 41.2983 101.909 41.2183C101.496 41.1783 101.082 41.0583 100.71 40.8783C100.421 40.7183 100.214 40.4783 100.09 40.1784C99.9661 39.8384 99.9041 39.4585 99.9041 39.0985C99.9041 38.7985 99.9248 38.4786 99.9661 38.1786C100.007 37.8386 100.049 37.4587 100.152 37.0587L101.062 32.1192H99.3046L99.7801 29.3995H101.599L102.281 25.7199H107.118L106.436 29.3995H108.793L108.317 32.1192H105.961L105.175 36.4188L105.113 36.7587C105.093 36.8587 105.093 36.9787 105.093 37.0787C105.072 37.3187 105.175 37.5387 105.361 37.6786C105.692 37.8186 106.064 37.8786 106.436 37.8586H107.201L106.581 41.2183ZM109.764 29.4995H114.229L113.795 31.8793H113.857C114.602 30.2194 116.297 29.1396 118.157 29.1596C118.26 29.1596 118.364 29.1596 118.467 29.1796L118.777 29.2395L117.909 33.939C117.764 33.899 117.599 33.879 117.434 33.8591C117.268 33.8191 117.103 33.8191 116.917 33.7991C116.049 33.7591 115.18 34.019 114.519 34.559C113.816 35.2989 113.382 36.2388 113.279 37.2387L112.576 41.3383H107.656L109.764 29.4995ZM125.351 41.3383L125.33 39.7184C124.627 40.2984 123.821 40.7183 122.953 40.9983C122.126 41.2183 121.258 41.3383 120.39 41.3383C119.894 41.3383 119.397 41.2783 118.922 41.1583C118.488 41.0583 118.054 40.8783 117.682 40.6383C117.33 40.3984 117.041 40.0984 116.855 39.7384C116.648 39.3385 116.545 38.8985 116.545 38.4586C116.545 38.2186 116.565 37.9986 116.607 37.7586C116.71 36.9787 117.082 36.2388 117.64 35.6789C118.157 35.1789 118.798 34.799 119.48 34.539C120.204 34.279 120.948 34.099 121.692 33.999L123.862 33.7391C124.441 33.6791 124.999 33.5591 125.537 33.3991C125.95 33.3191 126.26 33.0191 126.343 32.6192C126.343 32.5992 126.343 32.5792 126.343 32.5592C126.343 32.5392 126.343 32.4992 126.343 32.4792C126.343 32.3192 126.302 32.1792 126.198 32.0592C126.095 31.9593 125.95 31.8793 125.806 31.8193C125.661 31.7593 125.495 31.7193 125.33 31.6993C125.185 31.6793 125.041 31.6593 124.917 31.6593C124.731 31.6593 124.545 31.6793 124.359 31.6993C124.173 31.7193 123.986 31.7793 123.8 31.8593C123.614 31.9393 123.449 32.0592 123.325 32.1992C123.16 32.3792 123.056 32.5792 123.015 32.7992H118.302C118.405 32.1992 118.612 31.6193 118.963 31.1193C119.315 30.5994 119.811 30.1594 120.369 29.8595C121.072 29.4795 121.837 29.2195 122.622 29.0796C123.656 28.8796 124.71 28.7996 125.764 28.8196C126.694 28.7996 127.604 28.8796 128.514 29.0196C129.113 29.1196 129.692 29.3395 130.209 29.6395C130.581 29.8595 130.891 30.1994 131.056 30.5994C131.222 30.9994 131.304 31.4393 131.304 31.8793C131.304 32.1792 131.284 32.4592 131.242 32.7592C131.201 33.0791 131.159 33.3791 131.097 33.7191L130.105 39.2385C130.064 39.4385 130.043 39.6584 130.043 39.8784C130.043 40.0184 130.064 40.1784 130.126 40.3184C130.229 40.4783 130.333 40.6183 130.477 40.7583L130.457 41.3582L125.351 41.3383ZM123.098 38.6585C123.49 38.6585 123.883 38.5985 124.235 38.4386C124.545 38.2986 124.834 38.0786 125.041 37.8386C125.268 37.5587 125.433 37.2387 125.558 36.8987C125.682 36.5388 125.785 36.1588 125.826 35.7588C125.392 35.9388 124.937 36.0588 124.483 36.1588L123.242 36.4188C122.891 36.4988 122.56 36.6588 122.25 36.8587C121.961 37.0587 121.775 37.3587 121.733 37.6786V37.7986C121.733 38.0586 121.857 38.2786 122.085 38.4186C122.374 38.5985 122.746 38.6785 123.098 38.6585ZM131.304 41.3183L134.26 25.06H139.18L136.224 41.2983L131.304 41.3183ZM25.3212 27.4197C25.3005 27.3797 25.2799 27.3397 25.2592 27.2998C25.1558 27.1598 25.0318 27.0398 24.9078 26.9398C24.391 26.5198 23.7708 26.2599 23.1093 26.1599C22.7166 26.0999 22.3238 26.0799 21.9311 26.1199C21.4143 26.1599 20.9182 26.3399 20.4841 26.6198C20.4634 26.6398 20.4427 26.6598 20.422 26.6798C20.1947 26.8798 19.8432 26.8798 19.6159 26.6798C19.3885 26.4598 19.3885 26.1199 19.6159 25.8999C20.236 25.38 21.0008 25.08 21.8277 25.02C22.3238 24.98 22.8199 25 23.3161 25.08C24.577 25.22 25.6933 25.8999 26.3754 26.9398C26.5201 27.1998 26.4168 27.5397 26.1274 27.6797C26.0654 27.7197 25.9827 27.7397 25.9207 27.7397C25.6726 27.7597 25.4452 27.6397 25.3212 27.4197ZM23.8949 28.6996C23.8742 28.6796 23.8742 28.6596 23.8742 28.6396C23.8122 28.5596 23.7502 28.4996 23.6675 28.4396C23.3781 28.1997 23.0267 28.0597 22.6546 27.9997C22.4479 27.9597 22.2205 27.9597 22.0138 27.9797C21.7243 27.9997 21.4556 28.0997 21.2282 28.2597L21.2076 28.2796C21.0215 28.4596 20.7114 28.4596 20.5254 28.2796C20.3394 28.0997 20.3394 27.7997 20.5254 27.6197C20.9182 27.2998 21.4143 27.0998 21.9104 27.0598C22.2205 27.0398 22.5305 27.0398 22.8199 27.0998C23.6055 27.1798 24.329 27.6197 24.7631 28.2796C24.8664 28.4996 24.7631 28.7796 24.5357 28.8796C24.4737 28.8996 24.4116 28.9196 24.3496 28.9396C24.1636 28.9796 23.9569 28.8796 23.8949 28.6996ZM23.4814 29.8195C23.5848 30.4994 23.1093 31.1193 22.4272 31.2393C21.7243 31.3393 21.0835 30.8794 20.9595 30.2194C20.8561 29.5395 21.3316 28.9196 22.0138 28.7996C22.0758 28.7796 22.1378 28.7796 22.2205 28.7796C22.8613 28.7396 23.4401 29.1996 23.4814 29.8195ZM140.544 26.8598C140.689 26.5398 140.896 26.2599 141.144 26.0199C141.95 25.28 143.128 25.06 144.162 25.46C144.493 25.5799 144.782 25.7799 145.051 26.0199C145.299 26.2599 145.506 26.5398 145.65 26.8398C145.795 27.1598 145.878 27.5197 145.878 27.8797C145.878 28.2397 145.816 28.5996 145.671 28.9196C145.526 29.2195 145.32 29.4995 145.071 29.7395C144.823 29.9795 144.534 30.1594 144.203 30.2994C143.852 30.4394 143.5 30.4994 143.128 30.4994C142.756 30.4994 142.405 30.4394 142.074 30.2994C141.413 30.0395 140.875 29.5395 140.586 28.8996C140.441 28.5796 140.358 28.2197 140.379 27.8597C140.338 27.5597 140.4 27.1998 140.544 26.8598ZM140.999 28.7796C141.103 29.0396 141.268 29.2795 141.475 29.4995C141.681 29.6995 141.929 29.8595 142.198 29.9795C142.488 30.0995 142.798 30.1594 143.108 30.1594C144.017 30.1594 144.865 29.6195 145.195 28.7996C145.32 28.5196 145.382 28.2197 145.382 27.8997C145.382 27.5997 145.32 27.2998 145.195 27.0198C145.092 26.7598 144.927 26.5198 144.72 26.3199C144.286 25.8999 143.707 25.6599 143.108 25.6599C142.798 25.6599 142.488 25.7199 142.198 25.8399C141.661 26.0599 141.227 26.4798 141.02 27.0198C140.896 27.2998 140.834 27.5997 140.834 27.8997C140.813 28.1997 140.875 28.4996 140.999 28.7796ZM143.252 26.3599C143.562 26.3399 143.852 26.4198 144.1 26.5798C144.286 26.7398 144.389 26.9998 144.369 27.2398C144.389 27.4597 144.307 27.6997 144.121 27.8397C143.955 27.9797 143.728 28.0597 143.521 28.0597L144.451 29.4195H143.914L143.025 28.0997H142.508V29.4195H142.012V26.3599H143.252ZM143.046 27.7397H143.356C143.459 27.7397 143.542 27.6997 143.624 27.6797C143.707 27.6397 143.769 27.5997 143.81 27.5197C143.872 27.4397 143.893 27.3397 143.893 27.2398C143.893 27.1598 143.872 27.0598 143.831 26.9998C143.79 26.9398 143.728 26.8798 143.666 26.8598C143.604 26.8198 143.521 26.7998 143.438 26.7998C143.356 26.7798 143.252 26.7798 143.17 26.7798H142.529V27.7597L143.046 27.7397Z" fill="#FF8800"/>
</svg>
