<svg width="141" height="70" viewBox="0 0 141 70" fill="none" xmlns="http://www.w3.org/2000/svg">
<path d="M74.7813 26.0368C74.7813 29.2292 73.4694 32.2908 71.1343 34.5481C68.7991 36.8055 65.6319 38.0736 62.3294 38.0736C59.0269 38.0736 55.8597 36.8055 53.5245 34.5481C51.1893 32.2908 49.8774 29.2292 49.8774 26.0368C49.8774 22.8445 51.1893 19.7828 53.5245 17.5255C55.8597 15.2682 59.0269 14 62.3294 14C65.6319 14 68.7991 15.2682 71.1343 17.5255C73.4694 19.7828 74.7813 22.8445 74.7813 26.0368Z" fill="url(#paint0_linear_10821_8893)"/>
<path d="M92.1351 43.3227C92.1351 44.9039 91.8129 46.4697 91.1869 47.9306C90.5609 49.3914 89.6434 50.7188 88.4867 51.8369C87.3301 52.955 85.9569 53.842 84.4457 54.4471C82.9344 55.0522 81.3146 55.3636 79.6789 55.3636C76.3753 55.3636 73.207 54.0951 70.871 51.8369C68.535 49.5788 67.2227 46.5162 67.2227 43.3227C67.2227 40.1292 68.535 37.0666 70.871 34.8085C73.207 32.5503 76.3753 31.2817 79.6789 31.2817C81.3146 31.2817 82.9344 31.5932 84.4457 32.1983C85.9569 32.8034 87.3301 33.6903 88.4867 34.8085C89.6434 35.9266 90.5609 37.2539 91.1869 38.7148C91.8129 40.1757 92.1351 41.7415 92.1351 43.3227Z" fill="url(#paint1_linear_10821_8893)"/>
<path opacity="0.05" fill-rule="evenodd" clip-rule="evenodd" d="M49.9229 27.0667C50.1163 29.341 50.9702 31.5155 52.3856 33.3384C53.8011 35.1613 55.7201 36.5579 57.9204 37.3663C60.1207 38.1748 62.5121 38.362 64.8176 37.9063C67.1231 37.4505 69.2482 36.3706 70.9468 34.7915C72.6454 33.2124 73.8478 31.1988 74.4148 28.984C74.9818 26.7693 74.8902 24.4441 74.1505 22.2778C73.4108 20.1115 72.0533 18.1928 70.2354 16.7441C68.4175 15.2954 66.2135 14.3759 63.8789 14.0923C60.7089 15.1207 57.8132 16.8177 55.4001 19.061C52.987 21.3044 51.1164 24.0385 49.9229 27.0667Z" fill="black"/>
<path opacity="0.05" fill-rule="evenodd" clip-rule="evenodd" d="M92.1024 42.4579C91.9397 40.1559 91.1007 37.9472 89.6846 36.0932C88.2684 34.2391 86.3344 32.8172 84.1112 31.9957C81.888 31.1742 79.4688 30.9874 77.1396 31.4574C74.8104 31.9274 72.6688 33.0346 70.968 34.648C69.2672 36.2614 68.0784 38.3134 67.5423 40.5615C67.0062 42.8095 67.1451 45.1594 67.9427 47.3333C68.7403 49.5072 70.1631 51.414 72.0429 52.8282C73.9227 54.2425 76.1808 55.105 78.5501 55.3137C81.6335 54.2489 84.4419 52.5479 86.7817 50.3282C89.1214 48.1084 90.9367 45.4241 92.1024 42.4579Z" fill="black"/>
<path opacity="0.1" fill-rule="evenodd" clip-rule="evenodd" d="M50.5059 29.8188C51.1599 31.7593 52.3107 33.5072 53.8506 34.8991C55.3905 36.2909 57.2692 37.2813 59.3111 37.7775C61.3529 38.2737 63.4912 38.2595 65.5258 37.7363C67.5605 37.2131 69.4251 36.1979 70.9452 34.7858C72.4654 33.3736 73.5914 31.6106 74.2181 29.6617C74.8447 27.7127 74.9514 25.6414 74.5283 23.6415C74.1051 21.6417 73.1659 19.7786 71.7985 18.2265C70.4311 16.6744 68.6802 15.484 66.7095 14.7666C62.8258 15.5513 59.2477 17.3785 56.3828 20.0398C53.5179 22.7011 51.4815 26.0895 50.5059 29.8188Z" fill="black"/>
<path opacity="0.1" fill-rule="evenodd" clip-rule="evenodd" d="M91.5366 39.6289C90.8922 37.6655 89.7405 35.8946 88.191 34.4849C86.6416 33.0751 84.7459 32.0734 82.6845 31.5749C80.6231 31.0765 78.4644 31.098 76.4139 31.6373C74.3635 32.1766 72.4894 33.2158 70.9701 34.6561C69.4507 36.0963 68.3366 37.8897 67.7338 39.8655C67.131 41.8414 67.0596 43.934 67.5262 45.9442C67.9929 47.9544 68.9822 49.8153 70.3999 51.3499C71.8177 52.8845 73.6167 54.0418 75.6259 54.7115C79.4598 53.877 82.9786 52.0243 85.7886 49.3605C88.5986 46.6968 90.5888 43.3273 91.5366 39.6289Z" fill="black"/>
<path opacity="0.1" fill-rule="evenodd" clip-rule="evenodd" d="M50.9636 30.9603C51.7738 32.7308 53.0115 34.2862 54.5722 35.495C56.1328 36.7038 57.9706 37.5305 59.9301 37.9052C61.8896 38.28 63.9134 38.1917 65.8303 37.648C67.7473 37.1042 69.5011 36.1209 70.9436 34.7811C72.3861 33.4413 73.4749 31.7845 74.118 29.9506C74.7611 28.1166 74.9396 26.1595 74.6384 24.2446C74.3372 22.3296 73.5651 20.5132 72.3874 18.9486C71.2098 17.3841 69.6611 16.1175 67.8723 15.2559C63.7355 15.8804 59.8959 17.7212 56.8721 20.5296C53.8483 23.338 51.7859 26.9788 50.9636 30.9603Z" fill="black"/>
<path opacity="0.1" fill-rule="evenodd" clip-rule="evenodd" d="M91.0775 38.464C90.2714 36.6729 89.0291 35.0984 87.4573 33.8757C85.8855 32.6529 84.0311 31.8186 82.0534 31.4442C80.0757 31.0699 78.034 31.1668 76.1034 31.7266C74.1729 32.2864 72.4114 33.2924 70.9701 34.6581C69.5289 36.0238 68.451 37.7085 67.8291 39.5673C67.2072 41.4262 67.0599 43.4037 67.3998 45.3299C67.7397 47.2562 68.5567 49.0736 69.7806 50.6261C71.0044 52.1786 72.5986 53.4197 74.4261 54.2429C78.5267 53.5671 82.3174 51.6947 85.2925 48.8755C88.2676 46.0563 90.2856 42.4243 91.0775 38.464Z" fill="black"/>
<path d="M90.7306 34.7715C90.7306 37.2751 90.2205 39.7542 89.2293 42.0672C88.2382 44.3802 86.7855 46.4819 84.9541 48.2522C83.1228 50.0225 80.9486 51.4268 78.5558 52.3848C76.163 53.3429 73.5984 53.836 71.0085 53.836C68.4185 53.836 65.854 53.3429 63.4612 52.3848C61.0684 51.4268 58.8942 50.0225 57.0628 48.2522C55.2315 46.4819 53.7788 44.3802 52.7876 42.0672C51.7965 39.7542 51.2864 37.2751 51.2864 34.7715C51.2864 32.2679 51.7965 29.7889 52.7876 27.4759C53.7788 25.1629 55.2315 23.0612 57.0628 21.2909C58.8942 19.5206 61.0684 18.1163 63.4612 17.1582C65.854 16.2001 68.4185 15.707 71.0085 15.707C73.5984 15.707 76.163 16.2001 78.5558 17.1582C80.9486 18.1163 83.1228 19.5206 84.9541 21.2909C86.7855 23.0612 88.2382 25.1629 89.2293 27.4759C90.2205 29.7889 90.7306 32.2679 90.7306 34.7715Z" fill="url(#paint2_linear_10821_8893)"/>
<path fill-rule="evenodd" clip-rule="evenodd" d="M65.4626 34.1096C64.6656 33.6008 64.0006 32.9204 63.5193 32.1213C63.0546 31.2772 62.8253 30.3299 62.854 29.3734C62.8187 28.1595 63.2459 26.9756 64.0538 26.0478C64.8934 25.1161 65.9725 24.4168 67.1814 24.021C68.4961 23.5705 69.8813 23.3442 71.2756 23.3523C72.1879 23.3439 73.0992 23.4117 73.9994 23.5549C74.6438 23.6514 75.2767 23.8099 75.8888 24.0279C76.4508 24.2124 76.9582 24.5265 77.3673 24.9434C77.6687 25.2863 77.8309 25.724 77.8236 26.1746C77.8343 26.4087 77.7974 26.6426 77.715 26.8628C77.6325 27.0831 77.5062 27.2854 77.3431 27.4583C77.1888 27.6176 77.0015 27.7434 76.7934 27.8276C76.5854 27.9117 76.3614 27.9522 76.1361 27.9464C75.8261 27.9439 75.5203 27.8771 75.2391 27.7506C74.546 27.4497 73.832 27.1963 73.1024 26.9923C72.4308 26.8205 71.7384 26.737 71.0439 26.7441C70.1387 26.7118 69.2431 26.9339 68.4651 27.3838C68.1368 27.5773 67.868 27.8528 67.687 28.1814C67.5059 28.5101 67.4192 28.8798 67.4358 29.2521C67.431 29.7408 67.6228 30.2122 67.9704 30.5661C68.3834 30.9818 68.8715 31.3206 69.4105 31.5657C70.0142 31.8562 70.9145 32.2413 72.1115 32.7211C72.2441 32.7618 72.3733 32.8121 72.4982 32.8714C73.6663 33.3196 74.7863 33.8779 75.8419 34.5384C76.6756 35.0656 77.3785 35.7653 77.9004 36.5872C78.4142 37.4511 78.6715 38.4361 78.6439 39.4331C78.687 40.6537 78.3263 41.8558 77.6146 42.8635C76.8899 43.8175 75.8872 44.5393 74.7358 44.9358C73.3481 45.4167 71.8817 45.6484 70.4084 45.6197C68.3838 45.6884 66.3689 45.3187 64.5101 44.5373C64.0349 44.3321 63.6183 44.0179 63.2961 43.6218C63.0286 43.2589 62.8899 42.8214 62.9009 42.3754C62.8876 42.1401 62.9271 41.9049 63.0167 41.6859C63.1063 41.4669 63.2438 41.2693 63.4198 41.1069C63.7887 40.7936 64.2676 40.6297 64.7575 40.6491C65.3034 40.6564 65.8396 40.7901 66.3213 41.0393C66.9203 41.3298 67.3927 41.5477 67.7386 41.6929C68.1337 41.8533 68.5429 41.9788 68.9612 42.0679C69.4771 42.1777 70.004 42.2304 70.5321 42.2251C71.466 42.2898 72.3953 42.0495 73.1721 41.5426C73.4628 41.3219 73.6952 41.0372 73.85 40.7121C74.0048 40.387 74.0774 40.0308 74.062 39.673C74.0629 39.1656 73.8635 38.6772 73.5047 38.308C73.0306 37.8333 72.4756 37.4415 71.8642 37.1498C71.141 36.7803 70.1241 36.3299 68.8134 35.7986C67.6411 35.3455 66.5186 34.7797 65.4626 34.1096Z" fill="white"/>
<defs>
<linearGradient id="paint0_linear_10821_8893" x1="60.3875" y1="14.1462" x2="64.0461" y2="37.9621" gradientUnits="userSpaceOnUse">
<stop offset="0.012" stop-color="#00B7F0"/>
<stop offset="0.339" stop-color="#009DE5"/>
<stop offset="0.755" stop-color="#0082D9"/>
<stop offset="1" stop-color="#0078D4"/>
</linearGradient>
<linearGradient id="paint1_linear_10821_8893" x1="68.8973" y1="49.359" x2="90.1242" y2="36.7239" gradientUnits="userSpaceOnUse">
<stop stop-color="#0078D4"/>
<stop offset="0.37" stop-color="#007AD5"/>
<stop offset="0.573" stop-color="#0082D9"/>
<stop offset="0.735" stop-color="#0090DF"/>
<stop offset="0.875" stop-color="#00A3E7"/>
<stop offset="1" stop-color="#00BCF2"/>
</linearGradient>
<linearGradient id="paint2_linear_10821_8893" x1="63.3118" y1="21.844" x2="82.0995" y2="55.3955" gradientUnits="userSpaceOnUse">
<stop stop-color="#00B7F0"/>
<stop offset="1" stop-color="#007CC1"/>
</linearGradient>
</defs>
</svg>
