<svg width="140" height="70" viewBox="0 0 140 70" fill="none" xmlns="http://www.w3.org/2000/svg">
<path d="M50.2046 43.0472L51.5774 39.8371C53.0609 40.9517 55.0315 41.5313 56.98 41.5313C58.4192 41.5313 59.327 40.974 59.327 40.1269C59.3049 37.7639 50.7139 39.6142 50.6474 33.6843C50.6253 30.6748 53.2823 28.3564 57.0464 28.3564C59.2828 28.3564 61.5191 28.9137 63.1133 30.1844L61.8291 33.4614C60.3677 32.5251 58.5521 31.8563 56.825 31.8563C55.6515 31.8563 54.8765 32.4136 54.8765 33.127C54.8987 35.4454 63.5561 34.1748 63.6447 39.8371C63.6447 42.9135 61.0541 45.0759 57.3343 45.0759C54.6108 45.0759 52.1088 44.4294 50.2046 43.0472ZM102.88 38.6779C102.194 39.8817 100.91 40.7065 99.426 40.7065C97.234 40.7065 95.4626 38.9231 95.4626 36.7161C95.4626 34.5091 97.234 32.7257 99.426 32.7257C100.91 32.7257 102.194 33.5506 102.88 34.7544L106.666 32.6366C105.249 30.0952 102.526 28.3564 99.426 28.3564C94.8426 28.3564 91.1228 32.1015 91.1228 36.7161C91.1228 41.3307 94.8426 45.0759 99.426 45.0759C102.548 45.0759 105.249 43.3593 106.666 40.7957L102.88 38.6779ZM65.5489 21.4233H70.2873V44.7638H65.5489V21.4233ZM108.526 21.4233V44.7638H113.265V37.7639L118.889 44.7638H124.956L117.804 36.4486L124.424 28.6908H118.623L113.265 35.1333V21.4233H108.526ZM84.3695 38.7225C83.6831 39.8594 82.2661 40.7065 80.6718 40.7065C78.4798 40.7065 76.7084 38.9231 76.7084 36.7161C76.7084 34.5091 78.4798 32.7257 80.6718 32.7257C82.2661 32.7257 83.6831 33.6174 84.3695 34.7767V38.7225ZM84.3695 28.6908V30.5856C83.5946 29.2704 81.6682 28.3564 79.6533 28.3564C75.4906 28.3564 72.2136 32.0569 72.2136 36.6938C72.2136 41.3307 75.4906 45.0759 79.6533 45.0759C81.6682 45.0759 83.5946 44.1619 84.3695 42.8466V44.7415H89.1079V28.6908H84.3695Z" fill="black"/>
<path d="M20.9114 38.7009C20.9114 40.3283 19.605 41.6436 17.9886 41.6436C16.3723 41.6436 15.0659 40.3283 15.0659 38.7009C15.0659 37.0736 16.3723 35.7583 17.9886 35.7583H20.9114V38.7009ZM22.3727 38.7009C22.3727 37.0736 23.6791 35.7583 25.2955 35.7583C26.9118 35.7583 28.2182 37.0736 28.2182 38.7009V46.0575C28.2182 47.6849 26.9118 49.0001 25.2955 49.0001C23.6791 49.0001 22.3727 47.6849 22.3727 46.0575V38.7009Z" fill="#E01E5A"/>
<path d="M25.2959 26.8853C23.6795 26.8853 22.3732 25.57 22.3732 23.9426C22.3732 22.3153 23.6795 21 25.2959 21C26.9122 21 28.2186 22.3153 28.2186 23.9426V26.8853H25.2959ZM25.2959 28.3789C26.9122 28.3789 28.2186 29.6941 28.2186 31.3215C28.2186 32.9489 26.9122 34.2641 25.2959 34.2641H17.9669C16.3506 34.2641 15.0442 32.9489 15.0442 31.3215C15.0442 29.6941 16.3506 28.3789 17.9669 28.3789H25.2959Z" fill="#36C5F0"/>
<path d="M37.0095 31.3215C37.0095 29.6941 38.3158 28.3789 39.9322 28.3789C41.5485 28.3789 42.8549 29.6941 42.8549 31.3215C42.8549 32.9489 41.5485 34.2641 39.9322 34.2641H37.0095V31.3215ZM35.5481 31.3215C35.5481 32.9489 34.2417 34.2641 32.6254 34.2641C31.009 34.2641 29.7026 32.9489 29.7026 31.3215V23.9426C29.7026 22.3153 31.009 21 32.6254 21C34.2417 21 35.5481 22.3153 35.5481 23.9426V31.3215Z" fill="#2EB67D"/>
<path d="M32.6254 43.1149C34.2417 43.1149 35.5481 44.4302 35.5481 46.0575C35.5481 47.6849 34.2417 49.0001 32.6254 49.0001C31.009 49.0001 29.7026 47.6849 29.7026 46.0575V43.1149H32.6254ZM32.6254 41.6436C31.009 41.6436 29.7026 40.3283 29.7026 38.7009C29.7026 37.0736 31.009 35.7583 32.6254 35.7583H39.9543C41.5707 35.7583 42.8771 37.0736 42.8771 38.7009C42.8771 40.3283 41.5707 41.6436 39.9543 41.6436H32.6254Z" fill="#ECB22E"/>
</svg>
