<svg width="16" height="16" viewBox="0 0 16 16" fill="none" xmlns="http://www.w3.org/2000/svg">
<path d="M12 1L12.8273 3.17269L15 4L12.8273 4.82731L12 7L11.1727 4.82731L9 4L11.1727 3.17269L12 1Z" fill="url(#paint0_radial_623_3138)"/>
<path d="M6.5 3L7.97785 7.02215L12 8.5L7.97785 9.97785L6.5 14L5.02215 9.97785L1 8.5L5.02215 7.02215L6.5 3Z" fill="url(#paint1_radial_623_3138)"/>
<path d="M12.5515 11.4485L12 10L11.4485 11.4485L10 12L11.4485 12.5515L12 14L12.5515 12.5515L14 12L12.5515 11.4485Z" fill="url(#paint2_radial_623_3138)"/>
<defs>
<radialGradient id="paint0_radial_623_3138" cx="0" cy="0" r="1" gradientUnits="userSpaceOnUse" gradientTransform="translate(4.5 9.5) rotate(-21.8014) scale(10.7703 11.5988)">
<stop stop-color="white"/>
<stop offset="0.725" stop-color="white"/>
<stop offset="1" stop-color="#FFFAF1"/>
</radialGradient>
<radialGradient id="paint1_radial_623_3138" cx="0" cy="0" r="1" gradientUnits="userSpaceOnUse" gradientTransform="translate(4.5 9.5) rotate(-21.8014) scale(10.7703 11.5988)">
<stop stop-color="white"/>
<stop offset="0.725" stop-color="white"/>
<stop offset="1" stop-color="#FFFAF1"/>
</radialGradient>
<radialGradient id="paint2_radial_623_3138" cx="0" cy="0" r="1" gradientUnits="userSpaceOnUse" gradientTransform="translate(4.5 9.5) rotate(-21.8014) scale(10.7703 11.5988)">
<stop stop-color="white"/>
<stop offset="0.725" stop-color="white"/>
<stop offset="1" stop-color="#FFFAF1"/>
</radialGradient>
</defs>
</svg>
