<svg width="147" height="24" viewBox="0 0 147 24" fill="none" xmlns="http://www.w3.org/2000/svg">
<path d="M12.8844 9.89073L13.0761 10.4981H13.713H18.9598L14.6752 13.6727L14.1774 14.0416L14.3639 14.6324L15.9921 19.7915L11.7917 16.6394L11.2701 16.248L10.7486 16.6394L6.53792 19.7992L8.14275 14.665L8.32586 14.0791L7.83494 13.7107L3.5538 10.4981H8.82729H9.46421L9.65591 9.89073L11.2701 4.7761L12.8844 9.89073Z" fill="#FFCE31" stroke="#FFC046" stroke-width="1.73781"/>
<path d="M57.6124 9.89073L57.8041 10.4981H58.441H63.6878L59.4032 13.6727L58.9054 14.0416L59.0919 14.6324L60.7202 19.7915L56.5197 16.6394L55.9982 16.248L55.4766 16.6394L51.2659 19.7992L52.8708 14.665L53.0539 14.0791L52.563 13.7107L48.2818 10.4981H53.5553H54.1922L54.3839 9.89073L55.9982 4.7761L57.6124 9.89073Z" fill="#FFCE31" stroke="#FFC046" stroke-width="1.73781"/>
<path d="M35.5948 9.89073L35.7865 10.4981H36.4234H41.6702L37.3856 13.6727L36.8878 14.0416L37.0743 14.6324L38.7026 19.7915L34.5021 16.6394L33.9806 16.248L33.4591 16.6394L29.2484 19.7992L30.8532 14.665L31.0363 14.0791L30.5454 13.7107L26.2643 10.4981H31.5377H32.1747L32.3664 9.89073L33.9806 4.7761L35.5948 9.89073Z" fill="#FFCE31" stroke="#FFC046" stroke-width="1.73781"/>
<path d="M80.3229 9.89073L80.5146 10.4981H81.1515H86.3983L82.1137 13.6727L81.6159 14.0416L81.8023 14.6324L83.4306 19.7915L79.2301 16.6394L78.7086 16.248L78.1871 16.6394L73.9764 19.7992L75.5812 14.665L75.7643 14.0791L75.2734 13.7107L70.9923 10.4981H76.2658H76.9027L77.0944 9.89073L78.7086 4.7761L80.3229 9.89073Z" fill="#FFCE31" stroke="#FFC046" stroke-width="1.73781"/>
<path d="M102.696 9.7797L102.806 10.1292H103.173H109.537L104.355 13.9691L104.068 14.1814L104.176 14.5213L106.15 20.7762L101.03 16.9345L100.73 16.7093L100.43 16.9345L95.3046 20.7807L97.2506 14.5549L97.356 14.2178L97.0735 14.0058L91.9075 10.1292H98.2873H98.6538L98.7641 9.7797L100.73 3.55041L102.696 9.7797Z" fill="url(#paint0_linear_15549_42096)" stroke="#FFC046"/>
<path d="M120.036 16.4432V14.8452L125.693 5.90909H126.952V8.26136H126.153L122.107 14.6662V14.7685H129.861V16.4432H120.036ZM126.243 19V15.9574L126.256 15.2287V5.90909H128.128V19H126.243ZM132.521 19.1214C132.172 19.1214 131.871 18.9979 131.62 18.7507C131.368 18.4993 131.243 18.1967 131.243 17.843C131.243 17.4936 131.368 17.1953 131.62 16.9482C131.871 16.6967 132.172 16.571 132.521 16.571C132.87 16.571 133.171 16.6967 133.422 16.9482C133.674 17.1953 133.799 17.4936 133.799 17.843C133.799 18.0774 133.74 18.2926 133.62 18.4886C133.505 18.6804 133.352 18.8338 133.16 18.9489C132.968 19.0639 132.755 19.1214 132.521 19.1214ZM140.07 19.179C139.486 19.1705 138.91 19.0639 138.344 18.8594C137.781 18.6548 137.27 18.3139 136.81 17.8366C136.349 17.3594 135.981 16.718 135.704 15.9126C135.431 15.1072 135.295 14.1016 135.295 12.8956C135.295 11.7536 135.408 10.7393 135.633 9.85298C135.864 8.96662 136.194 8.21875 136.624 7.60938C137.055 6.99574 137.574 6.52912 138.184 6.20952C138.793 5.88991 139.477 5.73011 140.236 5.73011C141.016 5.73011 141.708 5.88352 142.313 6.19034C142.918 6.49716 143.408 6.92116 143.783 7.46236C144.163 8.00355 144.403 8.61932 144.506 9.30966H142.556C142.424 8.7642 142.162 8.31889 141.77 7.97372C141.378 7.62855 140.866 7.45597 140.236 7.45597C139.277 7.45597 138.529 7.87358 137.992 8.70881C137.459 9.54403 137.191 10.7053 137.187 12.1925H137.283C137.508 11.8217 137.785 11.5064 138.114 11.2464C138.446 10.9822 138.817 10.7798 139.226 10.6392C139.639 10.4943 140.074 10.4219 140.53 10.4219C141.288 10.4219 141.974 10.6072 142.588 10.978C143.206 11.3445 143.698 11.8516 144.065 12.4993C144.431 13.147 144.614 13.8885 144.614 14.7237C144.614 15.5589 144.425 16.3153 144.045 16.9929C143.67 17.6705 143.142 18.2074 142.46 18.6037C141.778 18.9957 140.981 19.1875 140.07 19.179ZM140.063 17.517C140.566 17.517 141.016 17.3935 141.412 17.1463C141.808 16.8991 142.121 16.5668 142.351 16.1491C142.582 15.7315 142.697 15.2649 142.697 14.7493C142.697 14.2464 142.584 13.7884 142.358 13.375C142.136 12.9616 141.829 12.6335 141.437 12.3906C141.05 12.1477 140.606 12.0263 140.108 12.0263C139.729 12.0263 139.377 12.0987 139.053 12.2436C138.734 12.3885 138.452 12.5888 138.209 12.8445C137.967 13.1001 137.775 13.3942 137.634 13.7266C137.498 14.0547 137.43 14.402 137.43 14.7685C137.43 15.2585 137.543 15.7124 137.768 16.13C137.998 16.5476 138.312 16.8842 138.708 17.1399C139.109 17.3913 139.56 17.517 140.063 17.517Z" fill="white"/>
<defs>
<linearGradient id="paint0_linear_15549_42096" x1="90.7523" y1="9.7338" x2="110.364" y2="9.73381" gradientUnits="userSpaceOnUse">
<stop offset="0.504772" stop-color="#FFCE31"/>
<stop offset="0.504872" stop-color="#FFCE31" stop-opacity="0"/>
</linearGradient>
</defs>
</svg>
