<svg width="141" height="70" viewBox="0 0 141 70" fill="none" xmlns="http://www.w3.org/2000/svg">
<g clip-path="url(#clip0_10821_8871)">
<path d="M79.4715 29.9434H91.6979C92.853 29.9434 93.7894 30.8632 93.7894 31.9979V42.9377C93.7894 47.1079 90.3479 50.4886 86.1026 50.4886H86.0663C81.821 50.4892 78.379 47.109 78.3784 42.9387C78.3784 42.9384 78.3784 42.938 78.3784 42.9377V31.0171C78.3784 30.4241 78.8678 29.9434 79.4715 29.9434Z" fill="#5059C9"/>
<path d="M87.735 27.7803C90.4708 27.7803 92.6885 25.6017 92.6885 22.9143C92.6885 20.2269 90.4708 18.0483 87.735 18.0483C84.9993 18.0483 82.7815 20.2269 82.7815 22.9143C82.7815 25.6017 84.9993 27.7803 87.735 27.7803Z" fill="#5059C9"/>
<path d="M72.324 27.7804C76.2757 27.7804 79.4791 24.6336 79.4791 20.7518C79.4791 16.87 76.2757 13.7231 72.324 13.7231C68.3724 13.7231 65.1689 16.87 65.1689 20.7518C65.1689 24.6336 68.3724 27.7804 72.324 27.7804Z" fill="#7B83EB"/>
<path d="M81.8648 29.9434H61.683C60.5417 29.9711 59.6388 30.9016 59.6653 32.0228V44.5002C59.5059 51.2285 64.9248 56.8119 71.7739 56.9766C78.623 56.8119 84.0419 51.2285 83.8825 44.5002V32.0228C83.9089 30.9016 83.0061 29.9711 81.8648 29.9434Z" fill="#7B83EB"/>
<path opacity="0.1" d="M72.8743 29.9434V47.4284C72.8688 48.2303 72.3742 48.9506 71.6194 49.2559C71.3791 49.3557 71.1208 49.4072 70.8598 49.4073H60.6336C60.4905 49.0504 60.3584 48.6936 60.2483 48.3259C59.863 47.0852 59.6664 45.7953 59.6649 44.498V32.0195C59.6384 30.9001 60.5398 29.9711 61.6793 29.9434H72.8743Z" fill="black"/>
<path opacity="0.2" d="M71.7735 29.9434V48.5098C71.7735 48.7661 71.721 49.0198 71.6194 49.2559C71.3086 49.9973 70.5753 50.4832 69.7591 50.4886H61.1509C60.9638 50.1317 60.7877 49.7749 60.6336 49.4073C60.4795 49.0396 60.3584 48.6936 60.2483 48.3259C59.863 47.0852 59.6664 45.7953 59.6649 44.498V32.0195C59.6384 30.9001 60.5398 29.9711 61.6793 29.9434H71.7735Z" fill="black"/>
<path opacity="0.2" d="M71.7735 29.9434V46.3471C71.7651 47.4366 70.8681 48.3177 69.759 48.3259H60.2483C59.863 47.0852 59.6664 45.7953 59.6649 44.498V32.0195C59.6384 30.9001 60.5398 29.9711 61.6793 29.9434H71.7735Z" fill="black"/>
<path opacity="0.2" d="M70.6727 29.9434V46.3471C70.6643 47.4366 69.7673 48.3177 68.6583 48.3259H60.2483C59.863 47.0852 59.6664 45.7953 59.6649 44.498V32.0195C59.6384 30.9001 60.5398 29.9711 61.6793 29.9434H70.6727Z" fill="black"/>
<path opacity="0.1" d="M72.8745 24.3528V27.759C72.6874 27.7698 72.5113 27.7806 72.3241 27.7806C72.137 27.7806 71.9609 27.7698 71.7737 27.759C71.4022 27.7348 71.0337 27.6769 70.673 27.586C68.4439 27.0675 66.6023 25.5318 65.7194 23.4553C65.5675 23.1066 65.4496 22.7446 65.3672 22.374H70.8601C71.9709 22.3782 72.8703 23.2617 72.8745 24.3528Z" fill="black"/>
<path opacity="0.2" d="M71.7735 25.4344V27.7592C71.402 27.735 71.0335 27.6771 70.6728 27.5862C68.4437 27.0677 66.6021 25.532 65.7192 23.4556H69.7591C70.8699 23.4597 71.7693 24.3432 71.7735 25.4344Z" fill="black"/>
<path opacity="0.2" d="M71.7735 25.4344V27.7592C71.402 27.735 71.0335 27.6771 70.6728 27.5862C68.4437 27.0677 66.6021 25.532 65.7192 23.4556H69.7591C70.8699 23.4597 71.7693 24.3432 71.7735 25.4344Z" fill="black"/>
<path opacity="0.2" d="M70.6728 25.4344V27.5862C68.4437 27.0677 66.6021 25.532 65.7192 23.4556H68.6583C69.7691 23.4597 70.6685 24.3432 70.6728 25.4344Z" fill="black"/>
<path d="M48.4735 23.4556H68.6553C69.7696 23.4556 70.673 24.343 70.673 25.4376V45.2627C70.673 46.3574 69.7696 47.2448 68.6553 47.2448H48.4735C47.3592 47.2448 46.4558 46.3573 46.4558 45.2627V25.4376C46.4558 24.343 47.3592 23.4556 48.4735 23.4556Z" fill="url(#paint0_linear_10821_8871)"/>
<path d="M63.8745 31.0007H59.8401V41.7923H57.2698V31.0007H53.2542V28.9072H63.8745V31.0007Z" fill="white"/>
</g>
<defs>
<linearGradient id="paint0_linear_10821_8871" x1="50.6628" y1="21.9068" x2="66.0471" y2="49.0311" gradientUnits="userSpaceOnUse">
<stop stop-color="#5A62C3"/>
<stop offset="0.5" stop-color="#4D55BD"/>
<stop offset="1" stop-color="#3940AB"/>
</linearGradient>
<clipPath id="clip0_10821_8871">
<rect width="47.3336" height="43.2531" fill="white" transform="translate(46.4558 13.7231)"/>
</clipPath>
</defs>
</svg>
