<svg width="141" height="70" viewBox="0 0 141 70" fill="none" xmlns="http://www.w3.org/2000/svg">
<path d="M84.1219 32.7669H73.8408C73.9447 33.4661 74.2065 34.1338 74.6072 34.7215C74.9851 35.2188 75.4817 35.6178 76.0535 35.8837C76.6438 36.1307 77.279 36.2583 77.9209 36.2588C78.6468 36.2587 79.3669 36.1316 80.0472 35.8837C80.7427 35.6324 81.3889 35.2661 81.9577 34.8008L83.485 36.9139C82.7275 37.5873 81.8286 38.0903 80.8514 38.3877C79.8465 38.6849 78.8033 38.8397 77.7535 38.8473C76.4627 38.8677 75.1881 38.564 74.0513 37.9651C72.9754 37.3811 72.1017 36.4964 71.5418 35.4241C70.9559 34.2523 70.6514 32.9649 70.6514 31.6602C70.6514 30.3556 70.9559 29.0682 71.5418 27.8963C72.11 26.8451 72.9634 25.9677 74.0081 25.3606C75.1079 24.7487 76.3537 24.4334 77.6186 24.4467C78.8186 24.4182 80.0017 24.7283 81.0266 25.3399C82.0515 25.9516 82.875 26.839 83.3987 27.8963C83.9734 29.0638 84.2635 30.3459 84.246 31.6417C84.1716 32.0127 84.1283 32.389 84.1165 32.7669M81.0672 30.4637C80.9619 29.5249 80.5426 28.6464 79.8745 27.965C79.5646 27.6738 79.198 27.4466 78.7965 27.2969C78.3951 27.1472 77.967 27.0779 77.5377 27.0933C77.0788 27.0716 76.6202 27.1413 76.1897 27.2985C75.7592 27.4556 75.3659 27.6967 75.0335 28.0072C74.3739 28.6775 73.9553 29.5398 73.8408 30.4637H81.0672Z" fill="black"/>
<path d="M97.1229 25.4029C98.1829 26.0234 99.0504 26.9145 99.6324 27.9808C100.247 29.1206 100.568 30.3899 100.568 31.6787C100.568 32.9675 100.247 34.2368 99.6324 35.3766C99.0505 36.4444 98.1831 37.3373 97.1229 37.9598C96.0618 38.5885 94.8386 38.9057 93.5987 38.8738C92.736 38.8762 91.8819 38.7054 91.0892 38.3719C90.3628 38.0317 89.7244 37.5351 89.2219 36.9191V38.5409H86.1619V19.0425H89.2219V26.4858C89.7242 25.8683 90.3625 25.3699 91.0892 25.0278C91.8704 24.6602 92.733 24.4895 93.5987 24.5312C94.8348 24.4829 96.0587 24.7856 97.1229 25.4029ZM95.4661 35.4664C96.1072 35.0885 96.6241 34.5384 96.9556 33.8816C97.2891 33.1931 97.4624 32.4407 97.4629 31.6787C97.467 30.9162 97.2935 30.1629 96.9556 29.4758C96.6236 28.8193 96.1068 28.2694 95.4661 27.891C94.7955 27.5102 94.034 27.3096 93.2587 27.3096C92.4835 27.3096 91.722 27.5102 91.0514 27.891C90.4095 28.268 89.8923 28.8183 89.5619 29.4758C89.2032 30.1707 89.0287 30.9428 89.0546 31.721C89.0509 32.497 89.2242 33.264 89.5619 33.9661C89.8915 34.6242 90.4089 35.1746 91.0514 35.5509C91.7218 35.9321 92.4834 36.1326 93.2587 36.132C94.0326 36.0569 94.7832 35.8306 95.4661 35.4664Z" fill="black"/>
<path d="M115.65 32.7669H105.353C105.452 33.4666 105.712 34.1351 106.114 34.7215C106.493 35.2176 106.99 35.6164 107.561 35.8837C108.151 36.1307 108.786 36.2583 109.428 36.2588C110.154 36.2587 110.874 36.1317 111.554 35.8837C112.25 35.6325 112.896 35.2661 113.465 34.8008L114.997 36.9139C114.241 37.5866 113.344 38.0896 112.369 38.3877C111.364 38.6857 110.321 38.8405 109.271 38.8473C107.983 38.87 106.711 38.57 105.574 37.9757C104.499 37.3916 103.625 36.507 103.065 35.4347C102.479 34.2628 102.175 32.9754 102.175 31.6708C102.175 30.3661 102.479 29.0787 103.065 27.9069C103.633 26.8557 104.487 25.9783 105.531 25.3712C106.631 24.7598 107.877 24.4444 109.142 24.4573C110.342 24.4287 111.525 24.7388 112.55 25.3505C113.575 25.9622 114.398 26.8496 114.922 27.9069C115.497 29.0743 115.787 30.3565 115.769 31.6523C115.726 31.9428 115.688 32.3179 115.645 32.7775M112.59 30.4637C112.489 29.5237 112.07 28.6439 111.398 27.965C111.082 27.6707 110.709 27.4419 110.301 27.2921C109.893 27.1424 109.458 27.0747 109.023 27.0933C108.563 27.0718 108.104 27.1416 107.673 27.2987C107.241 27.4558 106.847 27.6968 106.514 28.0072C105.856 28.6751 105.447 29.5405 105.353 30.4637H112.59Z" fill="black"/>
<path d="M130.179 38.4986H126.439L122.909 33.76L119.428 38.4986H115.861L121.128 31.5148L115.904 24.8164H119.639L123.039 29.3912L126.439 24.8164H130.049L124.906 31.4726L130.179 38.4986Z" fill="black"/>
<path d="M93.5125 49.7719H92.8756V44.2831H93.642V46.3645C93.7957 46.1531 94.0001 45.9818 94.2372 45.8657C94.4743 45.7497 94.737 45.6924 95.002 45.6989C95.2606 45.7005 95.5173 45.7415 95.763 45.8204C95.9961 45.9265 96.2011 46.0838 96.362 46.28C96.6648 46.7064 96.813 47.2196 96.783 47.738C96.8105 48.3451 96.5979 48.9392 96.1893 49.3968C96.021 49.5618 95.8186 49.6896 95.5957 49.7719C95.3788 49.8545 95.1483 49.8975 94.9157 49.8987C94.65 49.9035 94.3871 49.8455 94.1493 49.7296C93.9236 49.5989 93.7227 49.4309 93.5556 49.233L93.5125 49.7719ZM96.022 47.738C96.0697 47.4582 96.0201 47.1707 95.8812 46.9217C95.7422 46.6727 95.522 46.4765 95.2557 46.3645C95.1185 46.3162 94.9749 46.2878 94.8293 46.28C94.6573 46.2876 94.4869 46.3159 94.322 46.3645C94.1698 46.4258 94.0374 46.5262 93.9388 46.6551C93.7107 46.9596 93.605 47.3357 93.642 47.7116C93.609 48.1332 93.7466 48.5506 94.0252 48.8738C94.1213 48.9934 94.2535 49.0803 94.4029 49.1221C94.5541 49.1739 94.7124 49.2024 94.8725 49.2066C95.0463 49.1991 95.2185 49.1707 95.3852 49.1221C95.5489 49.0608 95.6835 48.9422 95.763 48.7893C95.9774 48.4795 96.0694 48.104 96.022 47.7327" fill="black"/>
<path d="M100.82 45.8205L99.4166 49.8565C99.3193 50.2516 99.1351 50.6212 98.8769 50.9395C98.7935 51.0556 98.6744 51.1426 98.5369 51.1877C98.3997 51.236 98.2561 51.2645 98.1105 51.2723C97.9522 51.2686 97.7955 51.2401 97.6464 51.1877V50.6066C97.7708 50.6417 97.9003 50.656 98.0296 50.6489C98.1024 50.655 98.1756 50.6404 98.2401 50.6066C98.3045 50.5766 98.3616 50.5334 98.4074 50.4799C98.5496 50.2582 98.6637 50.0205 98.7474 49.772H98.4937L96.9988 45.7835H97.7975L98.9471 49.1486L100.091 45.7835L100.82 45.8205Z" fill="black"/>
<path d="M111.101 44.2831H109.698V49.8141H111.101V44.2831Z" fill="black"/>
<path d="M122.575 45.8628C122.21 45.6657 121.799 45.5655 121.382 45.5723C121.179 45.5591 120.976 45.5872 120.784 45.6548C120.593 45.7224 120.418 45.828 120.271 45.9649C120.123 46.1019 120.006 46.2672 119.927 46.4506C119.848 46.6339 119.809 46.8313 119.811 47.0303C119.806 47.2298 119.844 47.4281 119.922 47.6123C120 47.7965 120.117 47.9626 120.266 48.0996C120.414 48.2367 120.59 48.3416 120.782 48.4077C120.974 48.4738 121.179 48.4994 121.382 48.483C121.799 48.4924 122.211 48.392 122.575 48.1925V49.6928C122.162 49.8198 121.733 49.8892 121.301 49.8988C120.524 49.8988 119.778 49.5966 119.229 49.0587C118.679 48.5207 118.37 47.7911 118.37 47.0303C118.37 46.2695 118.679 45.5399 119.229 45.002C119.778 44.464 120.524 44.1618 121.301 44.1618C121.734 44.1654 122.164 44.2349 122.575 44.3678V45.8628Z" fill="black"/>
<path d="M107.744 45.8628C107.381 45.6652 106.972 45.5649 106.557 45.5723C106.354 45.5591 106.15 45.5872 105.959 45.6548C105.768 45.7224 105.593 45.828 105.446 45.9649C105.298 46.1019 105.181 46.2672 105.102 46.4506C105.023 46.6339 104.984 46.8313 104.986 47.0303C104.981 47.2298 105.019 47.4281 105.097 47.6123C105.175 47.7965 105.292 47.9626 105.44 48.0996C105.589 48.2367 105.765 48.3416 105.957 48.4077C106.149 48.4738 106.354 48.4994 106.557 48.483C106.972 48.493 107.382 48.3926 107.744 48.1925V49.6928C107.318 49.824 106.874 49.8935 106.427 49.8988C105.65 49.8988 104.905 49.5966 104.355 49.0587C103.805 48.5207 103.497 47.7911 103.497 47.0303C103.497 46.2695 103.805 45.5399 104.355 45.002C104.905 44.464 105.65 44.1618 106.427 44.1618C106.874 44.1679 107.318 44.2373 107.744 44.3678V45.8628Z" fill="black"/>
<path d="M127.032 45.6144C126.845 45.6136 126.659 45.6571 126.493 45.7412C126.311 45.811 126.151 45.9257 126.029 46.074C125.889 46.1972 125.785 46.3538 125.726 46.5284C125.643 46.6916 125.614 46.8766 125.645 47.0566C125.652 47.2351 125.679 47.4124 125.726 47.5849C125.803 47.7522 125.904 47.9072 126.029 48.0445C126.166 48.1769 126.322 48.2891 126.493 48.3773C126.662 48.4532 126.846 48.4945 127.032 48.4988C127.225 48.4961 127.415 48.4543 127.591 48.3761C127.766 48.2979 127.924 48.185 128.052 48.0445C128.191 47.9193 128.293 47.7608 128.349 47.5849C128.438 47.4232 128.468 47.2372 128.436 47.0566C128.43 46.8777 128.401 46.7001 128.349 46.5284C128.278 46.3611 128.178 46.2074 128.052 46.074C127.918 45.9383 127.761 45.8258 127.588 45.7412C127.429 45.6393 127.238 45.5945 127.049 45.6144M130.028 47.0302C130.037 47.6089 129.871 48.1773 129.549 48.663C129.228 49.1488 128.766 49.5299 128.223 49.7579C127.679 49.986 127.079 50.0505 126.498 49.9434C125.917 49.8363 125.381 49.5625 124.96 49.1566C124.538 48.7507 124.25 48.2313 124.131 47.6644C124.012 47.0974 124.068 46.5087 124.292 45.9731C124.516 45.4375 124.898 44.9792 125.388 44.6566C125.879 44.3341 126.457 44.1618 127.049 44.1617C127.437 44.1568 127.823 44.2273 128.183 44.3692C128.544 44.511 128.872 44.7213 129.149 44.9881C129.426 45.2548 129.646 45.5726 129.797 45.9231C129.948 46.2736 130.026 46.6499 130.028 47.0302Z" fill="black"/>
<path d="M116.498 45.5299C116.145 45.4386 115.783 45.3837 115.418 45.3661C114.879 45.3661 114.528 45.5299 114.528 45.8205C114.528 46.111 114.954 46.2801 115.165 46.3487L115.548 46.4702C115.922 46.5487 116.259 46.7472 116.506 47.0342C116.752 47.3212 116.894 47.6804 116.908 48.055C116.908 49.4233 115.677 49.8829 114.571 49.8829C114.057 49.8893 113.544 49.8325 113.044 49.7138V48.4248C113.482 48.56 113.939 48.6312 114.398 48.6361C115.121 48.6361 115.418 48.4248 115.418 48.1343C115.418 47.8437 115.121 47.68 114.781 47.606L114.485 47.5215C113.724 47.2732 113.044 46.8136 113.044 45.8997C113.044 44.8432 113.805 44.1934 115.121 44.1934C115.594 44.2076 116.063 44.2642 116.525 44.3624L116.498 45.5299Z" fill="black"/>
<path d="M67.3378 24.8163H70.5274L65.8969 38.4615H62.2432L58.8 28.1867L55.3568 38.4985H51.7895L47.1589 24.8163H50.3863L53.6999 35.2127L57.1 24.8163H60.5432L64.0242 35.2549L67.3378 24.8163Z" fill="black"/>
<mask id="mask0_10821_8855" style="mask-type:luminance" maskUnits="userSpaceOnUse" x="10" y="19" width="29" height="22">
<path d="M30.7201 19.0002C29.6795 18.991 28.6545 19.2478 27.7464 19.7451C26.8094 20.2078 25.9947 20.8769 25.3664 21.6997L22.3495 29.6238C22.2967 29.9198 22.2264 30.2126 22.139 30.5007C22.0959 30.6645 22.0527 30.7912 22.0095 30.955C21.758 31.7751 21.4607 32.581 21.119 33.3692C20.86 33.8235 20.4822 34.3676 19.8022 34.2408L19.5431 34.1141C19.1179 33.8007 18.7816 33.3861 18.5663 32.9096C17.9904 31.8669 17.5343 30.7648 17.2063 29.6238C16.7824 28.1969 16.4844 26.737 16.3158 25.2602C16.3132 24.5871 16.1269 23.9269 15.7761 23.3479C15.5452 23.0453 15.2554 22.7903 14.9234 22.5978C14.4871 22.3411 13.9912 22.1974 13.4824 22.1804C12.9375 22.1667 12.3972 22.2808 11.9066 22.5133C11.4522 22.7588 11.078 23.125 10.8272 23.5698C10.5397 24.0013 10.3911 24.5074 10.4008 25.0225C10.4095 25.2186 10.4384 25.4133 10.4872 25.6036C10.6545 27.2677 11.3777 32.4289 13.8009 36.3381C13.8009 36.3381 15.7977 40.1205 20.0882 40.036C21.1196 40.0094 22.1333 39.7681 23.0619 39.3281C23.9968 38.9003 24.813 38.2589 25.4419 37.458L27.1851 33.6756L28.4588 29.6819L28.5829 29.0585C28.8339 28.0057 29.1751 26.9754 29.6029 25.9787C29.7384 25.5673 29.989 25.2013 30.3261 24.9222L30.3693 24.8799C30.5197 24.8075 30.6887 24.7803 30.8549 24.802C31.0211 24.8236 31.177 24.893 31.3029 25.0014C31.4622 25.1093 31.5934 25.2523 31.6861 25.4187C31.8156 25.5825 31.8966 25.7515 32.0261 25.9153C32.2322 26.2541 32.4126 26.6072 32.5658 26.9719C32.6966 27.2682 32.8537 27.5528 33.0353 27.8224C33.0468 27.8224 33.0578 27.8268 33.0659 27.8347C33.074 27.8427 33.0785 27.8534 33.0785 27.8646C33.3692 28.1718 33.7149 28.4242 34.0985 28.6095C34.4759 28.8095 34.9 28.9096 35.329 28.9C35.7215 28.8969 36.1104 28.8272 36.4785 28.694C36.8467 28.5584 37.1801 28.3456 37.4554 28.0706C37.7052 27.7775 37.9189 27.4565 38.0922 27.1145C38.2215 26.7524 38.2926 26.3727 38.3027 25.9893C38.3031 25.575 38.2167 25.1651 38.049 24.7848C38.049 24.7848 36.8995 21.874 34.9026 20.416C33.7093 19.4997 32.2367 19.0012 30.7201 19.0002Z" fill="white"/>
</mask>
<g mask="url(#mask0_10821_8855)">
<path d="M35.14 10.3507L3.5459 21.375L13.5201 48.7629L45.1142 37.7385L35.14 10.3507Z" fill="url(#paint0_linear_10821_8855)"/>
</g>
<mask id="mask1_10821_8855" style="mask-type:luminance" maskUnits="userSpaceOnUse" x="23" y="19" width="16" height="15">
<path d="M30.72 19C29.6772 19.0072 28.6482 19.2342 27.7031 19.6656C26.7638 20.1249 25.9483 20.7946 25.3231 21.6202L23.4126 26.6494L27.1526 33.6806L28.4263 29.6869L28.5504 29.0636C28.8014 28.0107 29.1426 26.9805 29.5704 25.9837C29.7059 25.5723 29.9565 25.2063 30.2936 24.9272L30.3368 24.8849C30.4872 24.8125 30.6562 24.7854 30.8224 24.807C30.9886 24.8286 31.1446 24.898 31.2704 25.0064C31.4297 25.1144 31.5609 25.2573 31.6536 25.4238C31.7831 25.5875 31.8641 25.7566 31.9936 25.9203C32.1997 26.2591 32.3801 26.6122 32.5333 26.9769C32.6748 27.2726 32.8427 27.5554 33.0352 27.8221C33.0467 27.8221 33.0577 27.8266 33.0658 27.8345C33.0738 27.8424 33.0784 27.8532 33.0784 27.8644C33.3691 28.1715 33.7148 28.424 34.0984 28.6092C34.4758 28.8092 34.8999 28.9094 35.3289 28.8998C35.7213 28.8967 36.1103 28.827 36.4784 28.6938C36.8466 28.5582 37.1799 28.3454 37.4553 28.0704C37.7051 27.7772 37.9188 27.4563 38.0921 27.1142C38.2214 26.7521 38.2925 26.3725 38.3026 25.989C38.303 25.5748 38.2166 25.1649 38.0489 24.7846C38.0489 24.7846 36.8994 21.8738 34.9025 20.4158C33.7092 19.4995 32.2366 19.001 30.72 19Z" fill="white"/>
</mask>
<g mask="url(#mask1_10821_8855)">
<path d="M37.6116 16.3201L20.3855 19.7612L23.9204 36.7161L41.1465 33.2749L37.6116 16.3201Z" fill="url(#paint1_linear_10821_8855)"/>
</g>
<mask id="mask2_10821_8855" style="mask-type:luminance" maskUnits="userSpaceOnUse" x="14" y="19" width="27" height="21">
<path d="M19.5431 19C19.2878 19.0125 19.0337 19.0407 18.7821 19.0845C17.8239 19.2743 16.9153 19.6532 16.1118 20.1982C15.3082 20.7432 14.6265 21.4427 14.1084 22.2541C14.3934 22.3209 14.6651 22.4334 14.9125 22.587C15.2445 22.7795 15.5343 23.0345 15.7652 23.3371C16.116 23.9161 16.3023 24.5763 16.3049 25.2494C16.4834 26.694 16.7683 28.1241 17.1576 29.5284C17.5639 27.9862 18.2394 26.5242 19.1545 25.2072C19.2613 25.0503 19.4059 24.9215 19.5754 24.8321C19.6655 24.7799 19.7676 24.7508 19.8723 24.7476C20.0517 24.7442 20.2287 24.788 20.385 24.8744C20.4281 24.8744 20.4281 24.9166 20.4713 24.9166C20.6078 25.0443 20.7341 25.1821 20.8491 25.3287C21.0746 25.7337 21.2746 26.1518 21.4481 26.5807C21.7882 27.4946 22.085 28.6568 22.085 28.6568L22.9323 31.9849C23.229 33.1348 23.6133 34.2615 24.0818 35.3553C25.3987 38.3083 27.3955 39.1377 27.3955 39.1377C28.3816 39.6401 29.4689 39.9233 30.5797 39.9671C31.6371 40.0159 32.6899 39.8014 33.6397 39.3437C34.6816 38.8339 35.6013 38.1137 36.3381 37.2306C36.782 36.6378 37.179 36.0126 37.5254 35.3605C38.3219 33.8249 38.9358 32.2048 39.355 30.5322C39.6462 29.4899 39.8733 28.4314 40.035 27.3625C40.1213 26.8343 40.2023 26.306 40.2455 25.7777C40.339 25.282 40.3243 24.7725 40.2023 24.2827C40.1645 24.1982 40.1645 24.1137 40.1213 24.0291C39.8623 23.4134 39.3982 22.9015 38.8045 22.5764C38.3772 22.2961 37.8725 22.1504 37.3581 22.1591C37.1148 22.1638 36.8726 22.1921 36.635 22.2436C37.184 23.0283 37.6539 23.8634 38.0381 24.737C38.2058 25.1173 38.2922 25.5273 38.2918 25.9415C38.2817 26.325 38.2107 26.7046 38.0813 27.0667C37.9081 27.4088 37.6943 27.7297 37.4445 28.0229C37.182 28.3128 36.8446 28.5281 36.4676 28.6462C36.0998 28.7812 35.7109 28.8527 35.3181 28.8575C34.7919 28.867 34.2748 28.7216 33.834 28.4402L33.5318 29.5601C33.3046 30.4209 32.9919 31.2578 32.5981 32.0588C32.3877 32.5502 32.133 33.0222 31.8371 33.4693C31.6436 33.7775 31.3622 34.0236 31.0276 34.1772C30.9032 34.212 30.7737 34.2263 30.6444 34.2195C30.5065 34.2162 30.3729 34.172 30.2612 34.0927C30.0371 33.9089 29.8535 33.6824 29.7215 33.4271C29.5499 33.1527 29.3949 32.8688 29.2574 32.5766C29.0038 31.9532 28.5774 30.4159 28.5774 30.4159L28.1781 28.773L27.7517 27.1512L27.4549 26.0683C27.0976 24.5813 26.4627 23.1719 25.5822 21.9108C24.7255 20.7166 23.5081 19.8151 22.1012 19.3328C21.5478 19.1373 20.9673 19.0251 20.3796 19H19.5431Z" fill="white"/>
</mask>
<g mask="url(#mask2_10821_8855)">
<path d="M17.7986 10.0913L6.65063 37.0591L36.6376 48.9362L47.7856 21.9684L17.7986 10.0913Z" fill="url(#paint2_linear_10821_8855)"/>
</g>
<defs>
<linearGradient id="paint0_linear_10821_8855" x1="10.8715" y1="34.8542" x2="24.208" y2="29.9972" gradientUnits="userSpaceOnUse">
<stop stop-color="#21DEFF"/>
<stop offset="0.04" stop-color="#21DEFF"/>
<stop offset="0.17" stop-color="#21DEFF"/>
<stop offset="0.27" stop-color="#21DEFF"/>
<stop offset="0.34" stop-color="#21DEFF"/>
<stop offset="0.38" stop-color="#21DEFF"/>
<stop offset="1" stop-color="#21DEFF"/>
</linearGradient>
<linearGradient id="paint1_linear_10821_8855" x1="31.2346" y1="30.9802" x2="30.1075" y2="25.3376" gradientUnits="userSpaceOnUse">
<stop stop-color="#44B044"/>
<stop offset="0.11" stop-color="#44B044"/>
<stop offset="0.27" stop-color="#44B044"/>
<stop offset="0.43" stop-color="#44B044"/>
<stop offset="0.58" stop-color="#44B044"/>
<stop offset="0.7" stop-color="#44B044"/>
<stop offset="0.8" stop-color="#44B044"/>
<stop offset="1" stop-color="#44B044"/>
</linearGradient>
<linearGradient id="paint2_linear_10821_8855" x1="33.1755" y1="15.8332" x2="27.0548" y2="31.2865" gradientUnits="userSpaceOnUse">
<stop stop-color="#3774FF"/>
<stop offset="0.05" stop-color="#3774FF"/>
<stop offset="0.16" stop-color="#3774FF"/>
<stop offset="0.32" stop-color="#3774FF"/>
<stop offset="0.43" stop-color="#3774FF"/>
<stop offset="1" stop-color="#3774FF"/>
</linearGradient>
</defs>
</svg>
