<svg width="140" height="70" viewBox="0 0 140 70" fill="none" xmlns="http://www.w3.org/2000/svg">
<g clip-path="url(#clip0_10887_8115)">
<g filter="url(#filter0_f_10887_8115)">
<path d="M60.1838 50.0102L60.8471 50.4024C63.6329 52.0525 66.8271 52.9255 70.0845 52.927H70.0914C80.0948 52.927 88.236 44.8031 88.2401 34.8182C88.2419 29.9797 86.3559 25.4296 82.9293 22.0069C81.2487 20.319 79.2493 18.9805 77.0469 18.0689C74.8444 17.1574 72.4827 16.6909 70.0985 16.6965C60.0873 16.6965 51.9458 24.8194 51.9423 34.8037C51.9374 38.2131 52.8993 41.5542 54.7168 44.4409L55.1487 45.1257L53.3149 51.8076L60.1838 50.0102ZM48.072 56.9841L51.1701 45.6944C49.2594 42.3905 48.2542 38.6423 48.2554 34.8023C48.2605 22.7892 58.0553 13.0161 70.0917 13.0161C75.9325 13.0191 81.4149 15.2877 85.538 19.4059C89.6611 23.5241 91.9297 28.998 91.9276 34.8197C91.9222 46.8319 82.1259 56.6068 70.0914 56.6068H70.0819C66.4277 56.6053 62.837 55.6903 59.6475 53.9545L48.072 56.9841Z" fill="#B3B3B3"/>
</g>
<path d="M47.8479 56.76L50.946 45.4703C49.032 42.1584 48.0267 38.4014 48.0313 34.5781C48.0364 22.5651 57.8312 12.792 69.8675 12.792C75.7084 12.795 81.1907 15.0636 85.3139 19.1818C89.437 23.3 91.7055 28.7739 91.7035 34.5956C91.6981 46.6078 81.9018 56.3826 69.8672 56.3826H69.8577C66.2035 56.3812 62.6128 55.4662 59.4234 53.7304L47.8479 56.76Z" fill="white"/>
<path d="M69.9563 16.7999C59.9451 16.7999 51.8036 24.9228 51.8001 34.9071C51.7951 38.3164 52.7571 41.6576 54.5746 44.5442L55.0064 45.2294L53.1727 51.9112L60.0418 50.1135L60.7051 50.5057C63.491 52.1559 66.6852 53.0285 69.9426 53.0303H69.9494C79.9529 53.0303 88.0944 44.9065 88.0982 34.9216C88.1058 32.5417 87.6403 30.184 86.7287 27.9849C85.817 25.7859 84.4774 23.7891 82.7874 22.1103C81.1067 20.4223 79.1073 19.0838 76.9048 18.1722C74.7023 17.2607 72.3406 16.7942 69.9563 16.7999Z" fill="url(#paint0_linear_10887_8115)"/>
<path fill-rule="evenodd" clip-rule="evenodd" d="M64.4099 25.4701C64.0009 24.5634 63.5706 24.545 63.1821 24.5293L62.1363 24.5166C61.7724 24.5166 61.1813 24.6529 60.6815 25.1979C60.1817 25.7429 58.7717 27.0601 58.7717 29.7393C58.7717 32.4186 60.7269 35.0074 60.9993 35.3712C61.2718 35.7349 64.7737 41.4082 70.3196 43.5909C74.9282 45.4049 75.8661 45.0441 76.8668 44.9535C77.8675 44.8629 80.0948 43.6363 80.5492 42.3646C81.0036 41.093 81.0039 40.0036 80.8676 39.7758C80.7314 39.548 80.3676 39.4126 79.8215 39.1401C79.2754 38.8676 76.5935 37.5504 76.0934 37.3685C75.5933 37.1866 75.2298 37.0963 74.8656 37.6413C74.5015 38.1863 73.4571 39.4123 73.1387 39.7758C72.8202 40.1392 72.5024 40.1848 71.9563 39.9126C71.4103 39.6404 69.6533 39.0652 67.5688 37.21C65.9469 35.7666 64.8521 33.984 64.5333 33.4393C64.2146 32.8946 64.4995 32.5995 64.7731 32.3282C65.018 32.0841 65.3186 31.6923 65.5919 31.3744C65.8653 31.0566 65.9552 30.8294 66.1368 30.4665C66.3185 30.1037 66.2279 29.785 66.0914 29.5128C65.9549 29.2405 64.8948 26.5471 64.4099 25.4701Z" fill="white"/>
</g>
<defs>
<filter id="filter0_f_10887_8115" x="41.01" y="5.95411" width="57.9795" height="58.0918" filterUnits="userSpaceOnUse" color-interpolation-filters="sRGB">
<feFlood flood-opacity="0" result="BackgroundImageFix"/>
<feBlend mode="normal" in="SourceGraphic" in2="BackgroundImageFix" result="shape"/>
<feGaussianBlur stdDeviation="3.531" result="effect1_foregroundBlur_10887_8115"/>
</filter>
<linearGradient id="paint0_linear_10887_8115" x1="69.5797" y1="18.974" x2="69.7629" y2="49.9352" gradientUnits="userSpaceOnUse">
<stop stop-color="#57D163"/>
<stop offset="1" stop-color="#23B33A"/>
</linearGradient>
<clipPath id="clip0_10887_8115">
<rect width="52" height="52" fill="white" transform="translate(44 9)"/>
</clipPath>
</defs>
</svg>
