<svg width="140" height="70" viewBox="0 0 140 70" fill="none" xmlns="http://www.w3.org/2000/svg">
<path d="M32.9401 20.4974C30.8044 20.4974 28.506 22.1449 26.6754 26.0095L24.316 20.355H24.1736C23.7871 21.2499 22.5667 21.7381 21.4277 21.7381H9V21.9822C9.99666 22.4093 10.8713 23.8534 11.6849 25.8061L19.414 44.4578H19.6581L24.6821 32.3148L29.706 44.4578H29.9501L34.2418 33.7997C35.9097 29.6096 36.9877 27.3112 36.9877 25.2162C36.947 22.45 35.4012 20.4974 32.9401 20.4974ZM21.3463 37.9897L16.3427 25.8264C15.5291 23.8331 16.2817 22.4297 18.336 22.4297C20.1463 22.4297 21.0412 23.6297 21.9565 25.8061L24.1736 31.1555L21.3463 37.9897ZM33.3469 33.4335L31.5976 37.8676L26.9601 26.7417C28.0992 25.0942 29.5637 24.484 31.2722 24.484C33.2859 24.484 34.5063 25.8671 34.5063 28.3689C34.5063 29.7317 34.1401 31.4606 33.3469 33.4335Z" fill="black"/>
<path d="M98.2515 32.559C98.2515 30.0978 95.709 28.2876 92.4953 28.2876C87.6137 28.2876 84.2983 32.498 84.2983 36.9321C84.2983 41.7526 87.9799 44.6409 91.6207 44.6409C94.5497 44.6409 97.3769 42.8713 98.2515 39.7593L98.0481 39.5762C97.0515 41.0407 95.3429 41.8543 93.614 41.8543C91.3563 41.8543 89.5054 40.5526 88.6307 38.2338C93.3089 37.5016 98.2515 36.2405 98.2515 32.559ZM88.4273 37.5219C88.2443 36.7897 88.1629 36.0168 88.1629 35.2032C88.1629 31.2979 89.8308 29.1012 91.8648 29.1012C93.4716 29.1012 93.9395 30.464 93.9395 31.9081C93.9395 34.9184 91.2139 36.9321 88.4273 37.5219Z" fill="black"/>
<path d="M128.009 27.8403C125.934 27.8403 123.941 29.793 122.72 32.4372L120.666 28.1048H120.422C120.035 29.5692 118.185 30.4235 116.171 30.3828V30.6269C117.432 30.932 117.981 32.1321 118.754 33.7186L124.083 44.7021L123.717 45.3733C122.578 47.6311 121.785 48.4447 120.971 48.4447C119.486 48.4447 119.364 46.309 117.595 46.309C116.537 46.309 115.662 47.0412 115.662 48.3023C115.662 49.7261 117.229 50.621 118.856 50.621C121.235 50.621 122.72 48.7498 124.307 45.7395L128.436 38.0306C130.104 34.939 130.999 33.5762 130.999 31.2574C131.039 29.4065 129.941 27.8403 128.009 27.8403ZM127.744 37.6442L126.422 40.207L123.025 33.0473C123.676 31.888 124.815 30.9523 126.524 30.9523C128.131 30.9523 128.965 31.949 128.965 33.5762C128.944 34.6949 128.558 36.078 127.744 37.6442Z" fill="black"/>
<path d="M53.7682 41.0409V31.7456C53.7682 29.6709 52.4664 28.2878 50.5341 28.2878C48.2154 28.2878 45.2864 30.4031 43.7203 31.9286V19.3789H43.5169C42.5812 20.8434 40.1608 21.7587 37.842 21.6977V21.9417C39.1641 22.3079 39.5506 23.2435 39.5506 25.0334V41.0409C39.5506 42.4037 38.9404 43.4817 37.8624 43.9292V44.1733H45.4695V43.9292C44.3508 43.2986 43.7203 42.4037 43.7203 41.1019V32.7016C45.4898 31.3998 46.8526 30.7693 47.8493 30.7693C48.968 30.7693 49.5985 31.5829 49.5985 33.2304V41.1019C49.5985 42.4037 49.029 43.258 47.8493 43.9292V44.1733H55.4564V43.9292C54.3784 43.4817 53.7682 42.4037 53.7682 41.0409Z" fill="black"/>
<path d="M110.211 28.2878C108.035 28.2878 105.96 29.8743 104.821 31.115V19.3789H104.638C103.56 20.8434 101.058 21.7587 98.821 21.6977V21.9417C100.062 22.3079 100.631 23.2638 100.631 25.0334V44.4784H100.896L102.889 42.2613C103.764 43.6444 105.432 44.4784 107.404 44.4784C112.408 44.4784 115.846 40.207 115.846 35.5491C115.866 31.2778 113.181 28.2878 110.211 28.2878ZM107.303 43.6648C105.818 43.6648 104.821 42.4647 104.821 40.7968V31.949C105.818 31.0744 106.937 30.2608 108.177 30.3014C110.293 30.3218 111.493 32.7016 111.533 36.3424C111.554 40.4714 109.866 43.6648 107.303 43.6648Z" fill="black"/>
<path d="M81.9391 28.2876C80.2712 28.2876 78.4813 30.0571 77.627 31.7453V28.1045H77.3829C76.3659 29.569 73.9455 30.4436 71.6877 30.4232V30.6673C72.9285 31.0334 73.5183 32.0301 73.5183 33.759V40.9186C73.5183 42.3018 72.9081 43.3798 71.7081 43.9289V44.173H79.4779V43.9289C78.2372 43.3798 77.7084 42.3018 77.7084 40.9186V32.4979C78.1558 31.9284 78.6643 31.3182 79.2745 31.3182C80.3932 31.3182 80.8407 32.681 82.2238 32.681C83.1798 32.681 84.1764 31.9081 84.1764 30.5656C84.1968 29.2639 83.1391 28.2876 81.9391 28.2876Z" fill="black"/>
<path d="M70.284 32.559C70.284 30.0978 67.7415 28.2876 64.5278 28.2876C59.6462 28.2876 56.3308 32.498 56.3308 36.9321C56.3308 41.7526 60.0123 44.6409 63.6532 44.6409C66.5821 44.6409 69.4094 42.8713 70.284 39.7593L70.0806 39.5762C69.0839 41.0407 67.3754 41.8543 65.6465 41.8543C63.3888 41.8543 61.5378 40.5526 60.6632 38.2338C65.3414 37.5016 70.284 36.2405 70.284 32.559ZM60.4598 37.5219C60.2768 36.7897 60.1954 36.0168 60.1954 35.2032C60.1954 31.2979 61.8633 29.1012 63.8973 29.1012C65.5041 29.1012 66.0126 30.464 66.0126 31.9081C66.0126 34.9184 63.2667 36.9321 60.4598 37.5219Z" fill="black"/>
</svg>
