<svg width="141" height="70" viewBox="0 0 141 70" fill="none" xmlns="http://www.w3.org/2000/svg">
<path d="M30.2775 51.8002C39.5566 51.8002 47.0775 44.2779 47.0775 35.0002C47.0775 25.7225 39.5552 18.2002 30.2775 18.2002C20.9999 18.2002 13.4775 25.7211 13.4775 35.0002C13.4775 44.2792 20.9985 51.8002 30.2775 51.8002Z" fill="#2196F3"/>
<path fill-rule="evenodd" clip-rule="evenodd" d="M23.336 39.8008H34.4472V31.654C34.4472 30.4271 33.4522 29.432 32.2253 29.432H21.114V37.5788C21.114 38.8058 22.109 39.8008 23.336 39.8008ZM35.9281 36.8391L40.372 39.8008V29.4307L35.9281 32.3938V36.8377V36.8391Z" fill="white"/>
<path fill-rule="evenodd" clip-rule="evenodd" d="M113.844 31.292C114.129 31.7968 114.222 32.3716 114.253 33.0174L114.293 33.8783V39.8979L114.335 40.7598C114.417 42.1673 115.428 43.2077 116.809 43.2963L117.644 43.3387V33.878L117.685 33.0171C117.72 32.3784 117.812 31.793 118.102 31.2846C119.03 29.6424 121.079 29.0843 122.678 30.0374C123.185 30.3396 123.606 30.7734 123.898 31.2952C124.183 31.8 124.272 32.3854 124.306 33.0171L124.348 33.8751V39.8973L124.389 40.7592C124.475 42.1737 125.478 43.2144 126.863 43.2957L127.698 43.3381V33.0174C127.698 29.217 124.699 26.1355 120.998 26.1343C119.074 26.1323 117.242 26.9817 115.971 28.4656C114.7 26.9823 112.868 26.1323 110.944 26.1333C109.552 26.1333 108.261 26.5668 107.191 27.3156C106.538 26.5678 105.078 26.1333 104.24 26.1333V43.3384L105.078 43.296C106.481 43.2013 107.494 42.1885 107.549 40.7595L107.593 39.8976V33.878L107.635 33.0171C107.67 32.3674 107.758 31.7968 108.044 31.2882C108.644 30.2272 109.749 29.5744 110.944 29.5737C112.14 29.5737 113.245 30.2288 113.844 31.2917L113.844 31.292ZM56.4881 43.2966L57.3265 43.3381H69.8922L69.8509 42.48C69.7374 41.0655 68.7621 40.0322 67.3799 39.94L66.5415 39.8976H59.003L69.0538 29.5731L69.0125 28.7157C68.9475 27.2867 67.9306 26.2544 66.5415 26.1757L65.7031 26.1368L53.1375 26.1333L53.1787 26.9942C53.2888 28.3952 54.2782 29.4504 55.6488 29.5317L56.4881 29.574H64.0267L53.9758 39.8986L54.0171 40.7595C54.0997 42.1775 55.0966 43.2048 56.4881 43.296V43.2969V43.2966ZM100.951 28.6515C104.223 32.0104 104.223 37.4571 100.952 40.8166C100.952 40.817 100.951 40.8176 100.951 40.8179C97.6778 44.1765 92.3736 44.1765 89.1002 40.8179C85.8289 37.4587 85.8289 32.0107 89.1002 28.6515C90.6703 27.0388 92.7995 26.1326 95.0204 26.1323C97.2447 26.1307 99.3783 27.0376 100.951 28.6524V28.6515ZM98.5803 31.0878C100.543 33.1041 100.543 36.3718 98.5803 38.3884C96.6168 40.4034 93.4346 40.4034 91.4708 38.3884C89.5086 36.3721 89.5086 33.1044 91.4708 31.0878C93.4343 29.0728 96.6165 29.0728 98.5803 31.0878ZM77.4379 26.1323C79.6588 26.133 81.788 27.0395 83.3578 28.6524C86.6301 32.011 86.6301 37.4597 83.3578 40.8179C80.0847 44.1765 74.7805 44.1765 71.507 40.8179C68.2358 37.4587 68.2358 32.0107 71.507 28.6515C73.0772 27.0388 75.2067 26.1326 77.4273 26.1323H77.4379ZM80.9872 31.0859C82.9498 33.1025 82.9498 36.3708 80.9872 38.3871C79.0237 40.4021 75.8415 40.4021 73.8777 38.3871C71.9154 36.3708 71.9154 33.1031 73.8777 31.0865C75.8412 29.0715 79.0234 29.0715 80.9872 31.0865V31.0855V31.0859Z" fill="#2D8CFF"/>
</svg>
